G04 #@! TF.FileFunction,Copper,L1,Top,Signal*
%FSLAX46Y46*%
G04 Gerber Fmt 4.6, Leading zero omitted, Abs format (unit mm)*
G04 Created by KiCad (PCBNEW 4.0.6) date Sun Jun 18 22:19:01 2017*
%MOMM*%
%LPD*%
G01*
G04 APERTURE LIST*
%ADD10C,0.100000*%
%ADD11R,1.500000X1.250000*%
%ADD12R,1.250000X1.500000*%
%ADD13R,1.800000X1.800000*%
%ADD14C,1.800000*%
%ADD15R,1.700000X1.700000*%
%ADD16R,1.300000X1.500000*%
%ADD17R,1.300000X0.250000*%
%ADD18R,0.250000X1.300000*%
%ADD19O,1.250000X0.600000*%
%ADD20O,0.600000X1.250000*%
%ADD21R,1.500000X1.500000*%
%ADD22R,1.800000X1.000000*%
%ADD23O,1.700000X1.700000*%
%ADD24C,0.600000*%
%ADD25C,0.300000*%
%ADD26C,0.250000*%
%ADD27C,2.000000*%
%ADD28C,0.254000*%
G04 APERTURE END LIST*
D10*
D11*
X92436000Y-73406000D03*
X89936000Y-73406000D03*
X92436000Y-75946000D03*
X89936000Y-75946000D03*
X96754000Y-79502000D03*
X94254000Y-79502000D03*
X111526000Y-75438000D03*
X114026000Y-75438000D03*
D12*
X99060000Y-71354000D03*
X99060000Y-68854000D03*
X108204000Y-85618000D03*
X108204000Y-88118000D03*
X95758000Y-70084000D03*
X95758000Y-67584000D03*
D13*
X86360000Y-91440000D03*
D14*
X88900000Y-91440000D03*
D15*
X76200000Y-88900000D03*
X76200000Y-91440000D03*
X88900000Y-106680000D03*
X91440000Y-106680000D03*
X93980000Y-106680000D03*
X96520000Y-106680000D03*
X99060000Y-106680000D03*
X101600000Y-106680000D03*
X104140000Y-106680000D03*
X101600000Y-58420000D03*
X93980000Y-58420000D03*
X91440000Y-58420000D03*
X109220000Y-106680000D03*
X121920000Y-106680000D03*
X121920000Y-104140000D03*
X76200000Y-81280000D03*
X76200000Y-83820000D03*
X76200000Y-86360000D03*
X121920000Y-99060000D03*
X121920000Y-101600000D03*
X106680000Y-106680000D03*
X96520000Y-58420000D03*
X99060000Y-58420000D03*
X121920000Y-96520000D03*
X137160000Y-93980000D03*
X137160000Y-104140000D03*
X132080000Y-71120000D03*
X121920000Y-55880000D03*
X121920000Y-58420000D03*
X121920000Y-60960000D03*
X129540000Y-71120000D03*
X134620000Y-71120000D03*
X144780000Y-71120000D03*
D16*
X101600000Y-67390000D03*
X101600000Y-64690000D03*
X91440000Y-92790000D03*
X91440000Y-90090000D03*
X106680000Y-67390000D03*
X106680000Y-64690000D03*
X104140000Y-67390000D03*
X104140000Y-64690000D03*
D17*
X99790000Y-75355000D03*
X99790000Y-75855000D03*
X99790000Y-76355000D03*
X99790000Y-76855000D03*
X99790000Y-77355000D03*
X99790000Y-77855000D03*
X99790000Y-78355000D03*
X99790000Y-78855000D03*
X99790000Y-79355000D03*
X99790000Y-79855000D03*
X99790000Y-80355000D03*
X99790000Y-80855000D03*
D18*
X101390000Y-82455000D03*
X101890000Y-82455000D03*
X102390000Y-82455000D03*
X102890000Y-82455000D03*
X103390000Y-82455000D03*
X103890000Y-82455000D03*
X104390000Y-82455000D03*
X104890000Y-82455000D03*
X105390000Y-82455000D03*
X105890000Y-82455000D03*
X106390000Y-82455000D03*
X106890000Y-82455000D03*
D17*
X108490000Y-80855000D03*
X108490000Y-80355000D03*
X108490000Y-79855000D03*
X108490000Y-79355000D03*
X108490000Y-78855000D03*
X108490000Y-78355000D03*
X108490000Y-77855000D03*
X108490000Y-77355000D03*
X108490000Y-76855000D03*
X108490000Y-76355000D03*
X108490000Y-75855000D03*
X108490000Y-75355000D03*
D18*
X106890000Y-73755000D03*
X106390000Y-73755000D03*
X105890000Y-73755000D03*
X105390000Y-73755000D03*
X104890000Y-73755000D03*
X104390000Y-73755000D03*
X103890000Y-73755000D03*
X103390000Y-73755000D03*
X102890000Y-73755000D03*
X102390000Y-73755000D03*
X101890000Y-73755000D03*
X101390000Y-73755000D03*
D19*
X130450000Y-54870000D03*
X130450000Y-55870000D03*
X130450000Y-56870000D03*
X130450000Y-57870000D03*
X130450000Y-58870000D03*
X130450000Y-59870000D03*
D20*
X133450000Y-62970000D03*
X134450000Y-62970000D03*
X135450000Y-62970000D03*
X136450000Y-62970000D03*
X137450000Y-62970000D03*
X143350000Y-62970000D03*
X144500000Y-62970000D03*
D21*
X144145000Y-59370000D03*
X144145000Y-56620000D03*
D22*
X95504000Y-73426000D03*
X95504000Y-75926000D03*
D15*
X144780000Y-48260000D03*
X139700000Y-71120000D03*
X137160000Y-71120000D03*
X83820000Y-41910000D03*
D23*
X83820000Y-44450000D03*
X86360000Y-41910000D03*
X86360000Y-44450000D03*
X88900000Y-41910000D03*
X88900000Y-44450000D03*
X91440000Y-41910000D03*
X91440000Y-44450000D03*
X93980000Y-41910000D03*
X93980000Y-44450000D03*
X96520000Y-41910000D03*
X96520000Y-44450000D03*
X99060000Y-41910000D03*
X99060000Y-44450000D03*
D15*
X118110000Y-123190000D03*
D23*
X118110000Y-125730000D03*
D15*
X88900000Y-128270000D03*
D23*
X91440000Y-128270000D03*
X93980000Y-128270000D03*
X96520000Y-128270000D03*
X99060000Y-128270000D03*
X101600000Y-128270000D03*
X104140000Y-128270000D03*
X106680000Y-128270000D03*
X109220000Y-128270000D03*
D15*
X76200000Y-71120000D03*
D23*
X76200000Y-68580000D03*
D15*
X137160000Y-96520000D03*
X137160000Y-99060000D03*
X137160000Y-101600000D03*
X137160000Y-121920000D03*
X73660000Y-127000000D03*
X63500000Y-127000000D03*
X134620000Y-45720000D03*
X59690000Y-71120000D03*
D23*
X57150000Y-71120000D03*
X59690000Y-73660000D03*
X57150000Y-73660000D03*
X59690000Y-76200000D03*
X57150000Y-76200000D03*
X59690000Y-78740000D03*
X57150000Y-78740000D03*
X59690000Y-81280000D03*
X57150000Y-81280000D03*
X59690000Y-83820000D03*
X57150000Y-83820000D03*
X59690000Y-86360000D03*
X57150000Y-86360000D03*
X59690000Y-88900000D03*
X57150000Y-88900000D03*
X59690000Y-91440000D03*
X57150000Y-91440000D03*
X59690000Y-93980000D03*
X57150000Y-93980000D03*
D15*
X68580000Y-96520000D03*
D23*
X66040000Y-96520000D03*
D15*
X73660000Y-111760000D03*
D23*
X73660000Y-114300000D03*
D15*
X121920000Y-63500000D03*
X121920000Y-50800000D03*
D23*
X124460000Y-50800000D03*
D15*
X137160000Y-91440000D03*
X86360000Y-106680000D03*
X121920000Y-93980000D03*
X121920000Y-91440000D03*
D24*
X97536000Y-67564000D03*
X92202000Y-79502000D03*
X110744000Y-88138000D03*
X114046000Y-73914000D03*
X93472000Y-67564000D03*
X88392000Y-75946000D03*
X88392000Y-73406000D03*
X107011300Y-76274100D03*
X98988900Y-65994600D03*
X80762400Y-99011500D03*
X80882800Y-98208600D03*
X78859500Y-101640000D03*
X84854400Y-88726500D03*
X91831500Y-88674000D03*
X104889800Y-84152500D03*
X105537600Y-72574200D03*
X117202000Y-72724600D03*
X104882900Y-71299600D03*
X102685600Y-70384200D03*
X118015400Y-72651800D03*
X123816800Y-71345500D03*
X124794700Y-70848300D03*
X101731900Y-76490100D03*
X101685600Y-77855000D03*
X68702100Y-93361900D03*
X74065100Y-106458300D03*
X92221200Y-46091400D03*
X124369100Y-72885100D03*
X77913900Y-100765100D03*
X123886500Y-72224400D03*
X118549700Y-73763500D03*
X112493800Y-79819400D03*
X120013700Y-73445600D03*
X113352800Y-80065500D03*
X83919400Y-83611000D03*
X84703000Y-89877100D03*
X101129200Y-78580200D03*
X107528500Y-73223600D03*
D25*
X95504000Y-73406000D02*
X94996000Y-73426000D01*
D26*
X95504000Y-73426000D02*
X94996000Y-73426000D01*
X92456000Y-73426000D02*
X92436000Y-73406000D01*
X94996000Y-73426000D02*
X92456000Y-73426000D01*
X95524000Y-73426000D02*
X95504000Y-73426000D01*
X95504000Y-73426000D02*
X94996000Y-73426000D01*
X96794000Y-73426000D02*
X95524000Y-73426000D01*
X97282000Y-73914000D02*
X96794000Y-73426000D01*
X97282000Y-74930000D02*
X97282000Y-73914000D01*
X98707000Y-76355000D02*
X97282000Y-74930000D01*
X99790000Y-76355000D02*
X98707000Y-76355000D01*
X95524000Y-73426000D02*
X95504000Y-73426000D01*
X110724000Y-88118000D02*
X110744000Y-88138000D01*
X108204000Y-88118000D02*
X110724000Y-88118000D01*
X114026000Y-73934000D02*
X114046000Y-73914000D01*
X114026000Y-75438000D02*
X114026000Y-73934000D01*
X93492000Y-67584000D02*
X93472000Y-67564000D01*
X95758000Y-67584000D02*
X93492000Y-67584000D01*
X89936000Y-75946000D02*
X88392000Y-75946000D01*
X89936000Y-73406000D02*
X88392000Y-73406000D01*
X108204000Y-88118000D02*
X107253700Y-88118000D01*
X107253700Y-84294000D02*
X106390000Y-83430300D01*
X107253700Y-88118000D02*
X107253700Y-84294000D01*
X106390000Y-82455000D02*
X106390000Y-83430300D01*
X94254000Y-79502000D02*
X94094900Y-79502000D01*
X94094900Y-79502000D02*
X92202000Y-79502000D01*
X98131200Y-78855000D02*
X99790000Y-78855000D01*
X97827800Y-78551600D02*
X98131200Y-78855000D01*
X95045300Y-78551600D02*
X97827800Y-78551600D01*
X94094900Y-79502000D02*
X95045300Y-78551600D01*
X108490000Y-75855000D02*
X107514700Y-75855000D01*
X107095600Y-76274100D02*
X107011300Y-76274100D01*
X107514700Y-75855000D02*
X107095600Y-76274100D01*
X130450000Y-55870000D02*
X131400300Y-55870000D01*
X134177500Y-53092800D02*
X134177500Y-53512500D01*
X134620000Y-52650300D02*
X134177500Y-53092800D01*
X134620000Y-45720000D02*
X134620000Y-52650300D01*
X133757800Y-53512500D02*
X131400300Y-55870000D01*
X134177500Y-53512500D02*
X133757800Y-53512500D01*
X144500000Y-62970000D02*
X143350000Y-62970000D01*
X142684700Y-62019700D02*
X134177500Y-53512500D01*
X143350000Y-62019700D02*
X142684700Y-62019700D01*
X143350000Y-62970000D02*
X143350000Y-62019700D01*
X99060000Y-68854000D02*
X99047100Y-68854000D01*
X98826000Y-68854000D02*
X97536000Y-67564000D01*
X99047100Y-68854000D02*
X98826000Y-68854000D01*
X101890000Y-73755000D02*
X101890000Y-72779700D01*
X99320100Y-65994600D02*
X100624700Y-64690000D01*
X98988900Y-65994600D02*
X99320100Y-65994600D01*
X101600000Y-64690000D02*
X100624700Y-64690000D01*
X101890000Y-71696900D02*
X101890000Y-72779700D01*
X99047100Y-68854000D02*
X101890000Y-71696900D01*
X92456000Y-75926000D02*
X92436000Y-75946000D01*
X95504000Y-75926000D02*
X92456000Y-75926000D01*
X97937000Y-76855000D02*
X99790000Y-76855000D01*
X97008000Y-75926000D02*
X97937000Y-76855000D01*
X95504000Y-75926000D02*
X97008000Y-75926000D01*
X107017000Y-75355000D02*
X108490000Y-75355000D01*
X105664000Y-76708000D02*
X107017000Y-75355000D01*
X102362000Y-76708000D02*
X105664000Y-76708000D01*
X101390000Y-73755000D02*
X101390000Y-75355000D01*
X106890000Y-80982000D02*
X106890000Y-82455000D01*
X106426000Y-80518000D02*
X106890000Y-80982000D01*
X101854000Y-80518000D02*
X106426000Y-80518000D01*
X99790000Y-79355000D02*
X101199000Y-79355000D01*
X97282000Y-85090000D02*
X96520000Y-85090000D01*
X101854000Y-80518000D02*
X97282000Y-85090000D01*
X101854000Y-80010000D02*
X101854000Y-80518000D01*
X101199000Y-79355000D02*
X101854000Y-80010000D01*
X108204000Y-83566000D02*
X108204000Y-85618000D01*
X107093000Y-82455000D02*
X108204000Y-83566000D01*
X106890000Y-82455000D02*
X107093000Y-82455000D01*
X96901000Y-79355000D02*
X96754000Y-79502000D01*
X99790000Y-79355000D02*
X96901000Y-79355000D01*
X97028000Y-71354000D02*
X95758000Y-70084000D01*
X99060000Y-71354000D02*
X97028000Y-71354000D01*
X101390000Y-73684000D02*
X99060000Y-71354000D01*
X101390000Y-73755000D02*
X101390000Y-73684000D01*
X111443000Y-75355000D02*
X111526000Y-75438000D01*
X108490000Y-75355000D02*
X111443000Y-75355000D01*
D27*
X86360000Y-85090000D02*
X96012000Y-85090000D01*
X82550000Y-88900000D02*
X86360000Y-85090000D01*
X82550000Y-100330000D02*
X82550000Y-88900000D01*
X73660000Y-109220000D02*
X82550000Y-100330000D01*
X73660000Y-111760000D02*
X73660000Y-109220000D01*
X96012000Y-85090000D02*
X96520000Y-85090000D01*
D26*
X96520000Y-85090000D02*
X96012000Y-85090000D01*
X102362000Y-78232000D02*
X102362000Y-76708000D01*
X101239000Y-79355000D02*
X102362000Y-78232000D01*
X101199000Y-79355000D02*
X101239000Y-79355000D01*
X101771000Y-75355000D02*
X101390000Y-75355000D01*
X102362000Y-75946000D02*
X101771000Y-75355000D01*
X102362000Y-76708000D02*
X102362000Y-75946000D01*
X101390000Y-75355000D02*
X101346000Y-75355000D01*
X101346000Y-75355000D02*
X99790000Y-75355000D01*
X101346000Y-75399000D02*
X101346000Y-75355000D01*
X101390000Y-75355000D02*
X101346000Y-75399000D01*
X90250000Y-92790000D02*
X88900000Y-91440000D01*
X91440000Y-92790000D02*
X90250000Y-92790000D01*
D27*
X57150000Y-56642000D02*
X56388000Y-56642000D01*
X71628000Y-71120000D02*
X57150000Y-56642000D01*
X76200000Y-71120000D02*
X71628000Y-71120000D01*
X111760000Y-132080000D02*
X118110000Y-125730000D01*
X76200000Y-132080000D02*
X111760000Y-132080000D01*
X73660000Y-129540000D02*
X76200000Y-132080000D01*
X73660000Y-127000000D02*
X73660000Y-129540000D01*
X140970000Y-101600000D02*
X137160000Y-101600000D01*
X146050000Y-106680000D02*
X140970000Y-101600000D01*
X146050000Y-124460000D02*
X146050000Y-106680000D01*
X138430000Y-132080000D02*
X146050000Y-124460000D01*
X132080000Y-132080000D02*
X138430000Y-132080000D01*
X125730000Y-125730000D02*
X132080000Y-132080000D01*
X118110000Y-125730000D02*
X125730000Y-125730000D01*
X73660000Y-127000000D02*
X73660000Y-114300000D01*
X69850000Y-114300000D02*
X68580000Y-113030000D01*
X73660000Y-114300000D02*
X69850000Y-114300000D01*
X68580000Y-113030000D02*
X68580000Y-96520000D01*
X53340000Y-59690000D02*
X56388000Y-56642000D01*
X53340000Y-107950000D02*
X53340000Y-59690000D01*
X58420000Y-113030000D02*
X53340000Y-107950000D01*
X68580000Y-113030000D02*
X58420000Y-113030000D01*
X74930000Y-38100000D02*
X90170000Y-38100000D01*
X56388000Y-56642000D02*
X74930000Y-38100000D01*
X109220000Y-38100000D02*
X121920000Y-50800000D01*
X90170000Y-38100000D02*
X109220000Y-38100000D01*
D26*
X106680000Y-64690000D02*
X105704700Y-64690000D01*
X104140000Y-64690000D02*
X105704700Y-64690000D01*
X104140000Y-64690000D02*
X104140000Y-63614700D01*
X90170000Y-46080100D02*
X90170000Y-38100000D01*
X100235400Y-56145500D02*
X90170000Y-46080100D01*
X100235400Y-59710100D02*
X100235400Y-56145500D01*
X104140000Y-63614700D02*
X100235400Y-59710100D01*
X75392200Y-87724700D02*
X76200000Y-87724700D01*
X75024700Y-87357200D02*
X75392200Y-87724700D01*
X75024700Y-87234600D02*
X75024700Y-87357200D01*
X60085400Y-72295300D02*
X75024700Y-87234600D01*
X58692500Y-72295300D02*
X60085400Y-72295300D01*
X58325300Y-71928100D02*
X58692500Y-72295300D01*
X58325300Y-71120000D02*
X58325300Y-71928100D01*
X57150000Y-71120000D02*
X58325300Y-71120000D01*
X76200000Y-88900000D02*
X76200000Y-87724700D01*
X81013800Y-87724700D02*
X76200000Y-87724700D01*
X86175200Y-82563300D02*
X81013800Y-87724700D01*
X96469500Y-82563300D02*
X86175200Y-82563300D01*
X98677800Y-80355000D02*
X96469500Y-82563300D01*
X99790000Y-80355000D02*
X98677800Y-80355000D01*
X75371200Y-90264700D02*
X76200000Y-90264700D01*
X75024700Y-89918200D02*
X75371200Y-90264700D01*
X75024700Y-89802600D02*
X75024700Y-89918200D01*
X60057400Y-74835300D02*
X75024700Y-89802600D01*
X59690000Y-74835300D02*
X60057400Y-74835300D01*
X59690000Y-73660000D02*
X59690000Y-74835300D01*
X76200000Y-91440000D02*
X76200000Y-90264700D01*
X79110700Y-90264700D02*
X76200000Y-90264700D01*
X86037800Y-83337600D02*
X79110700Y-90264700D01*
X96332100Y-83337600D02*
X86037800Y-83337600D01*
X98814700Y-80855000D02*
X96332100Y-83337600D01*
X99790000Y-80855000D02*
X98814700Y-80855000D01*
X57150000Y-76200000D02*
X57150000Y-77375300D01*
X57517400Y-77375300D02*
X57150000Y-77375300D01*
X58325300Y-78183200D02*
X57517400Y-77375300D01*
X58325300Y-79076300D02*
X58325300Y-78183200D01*
X59164400Y-79915400D02*
X58325300Y-79076300D01*
X61666300Y-79915400D02*
X59164400Y-79915400D01*
X80762400Y-99011500D02*
X61666300Y-79915400D01*
X101390000Y-90474700D02*
X101390000Y-82455000D01*
X86360000Y-105504700D02*
X101390000Y-90474700D01*
X86360000Y-106680000D02*
X86360000Y-105504700D01*
X59690000Y-76200000D02*
X59690000Y-77375300D01*
X60036100Y-77375300D02*
X59690000Y-77375300D01*
X60865300Y-78204500D02*
X60036100Y-77375300D01*
X60865300Y-78307500D02*
X60865300Y-78204500D01*
X80766400Y-98208600D02*
X60865300Y-78307500D01*
X80882800Y-98208600D02*
X80766400Y-98208600D01*
X88900000Y-106680000D02*
X88900000Y-105504700D01*
X101890000Y-92514700D02*
X101890000Y-82455000D01*
X88900000Y-105504700D02*
X101890000Y-92514700D01*
X91440000Y-106680000D02*
X91440000Y-105504700D01*
X102390000Y-94554700D02*
X102390000Y-82455000D01*
X91440000Y-105504700D02*
X102390000Y-94554700D01*
X102890000Y-96594700D02*
X102890000Y-82455000D01*
X93980000Y-105504700D02*
X102890000Y-96594700D01*
X93980000Y-106680000D02*
X93980000Y-105504700D01*
X103390000Y-82455000D02*
X103390000Y-83430300D01*
X96520000Y-106680000D02*
X96520000Y-105504700D01*
X103363900Y-98660800D02*
X96520000Y-105504700D01*
X103363900Y-83456400D02*
X103363900Y-98660800D01*
X103390000Y-83430300D02*
X103363900Y-83456400D01*
X99060000Y-106680000D02*
X99060000Y-105504700D01*
X77897700Y-101640000D02*
X78859500Y-101640000D01*
X61347700Y-85090000D02*
X77897700Y-101640000D01*
X59259000Y-85090000D02*
X61347700Y-85090000D01*
X58514600Y-84345600D02*
X59259000Y-85090000D01*
X58514600Y-83520400D02*
X58514600Y-84345600D01*
X57449600Y-82455400D02*
X58514600Y-83520400D01*
X56650600Y-82455400D02*
X57449600Y-82455400D01*
X55956000Y-81760800D02*
X56650600Y-82455400D01*
X55956000Y-75662000D02*
X55956000Y-81760800D01*
X56782700Y-74835300D02*
X55956000Y-75662000D01*
X57150000Y-74835300D02*
X56782700Y-74835300D01*
X57150000Y-73660000D02*
X57150000Y-74835300D01*
X103814200Y-100750500D02*
X99060000Y-105504700D01*
X103814200Y-83706900D02*
X103814200Y-100750500D01*
X103890000Y-83631100D02*
X103814200Y-83706900D01*
X103890000Y-82455000D02*
X103890000Y-83631100D01*
X101600000Y-106680000D02*
X101600000Y-105504700D01*
X104264500Y-102840200D02*
X101600000Y-105504700D01*
X104264500Y-83893500D02*
X104264500Y-102840200D01*
X104390000Y-83768000D02*
X104264500Y-83893500D01*
X104390000Y-82455000D02*
X104390000Y-83768000D01*
X84906900Y-88674000D02*
X84854400Y-88726500D01*
X91831500Y-88674000D02*
X84906900Y-88674000D01*
X104890000Y-84152300D02*
X104890000Y-82455000D01*
X104889800Y-84152500D02*
X104890000Y-84152300D01*
X105390000Y-73755000D02*
X105390000Y-72779700D01*
X105537600Y-72632100D02*
X105537600Y-72574200D01*
X105390000Y-72779700D02*
X105537600Y-72632100D01*
X105159300Y-71023200D02*
X104882900Y-71299600D01*
X115500600Y-71023200D02*
X105159300Y-71023200D01*
X117202000Y-72724600D02*
X115500600Y-71023200D01*
X102890000Y-70588600D02*
X102890000Y-73755000D01*
X102685600Y-70384200D02*
X102890000Y-70588600D01*
X91440000Y-58420000D02*
X91440000Y-59595300D01*
X102390000Y-70972900D02*
X102390000Y-73755000D01*
X102060300Y-70643200D02*
X102390000Y-70972900D01*
X102060300Y-69999500D02*
X102060300Y-70643200D01*
X91656100Y-59595300D02*
X102060300Y-69999500D01*
X91440000Y-59595300D02*
X91656100Y-59595300D01*
X109220000Y-106680000D02*
X109220000Y-105504700D01*
X91440000Y-44450000D02*
X91440000Y-45625300D01*
X105890000Y-83631400D02*
X105890000Y-82455000D01*
X105965600Y-83707000D02*
X105890000Y-83631400D01*
X105965600Y-102250300D02*
X105965600Y-83707000D01*
X109220000Y-105504700D02*
X105965600Y-102250300D01*
X93796800Y-48433200D02*
X118015400Y-72651800D01*
X93678700Y-48433200D02*
X93796800Y-48433200D01*
X91440000Y-46194500D02*
X93678700Y-48433200D01*
X91440000Y-45625300D02*
X91440000Y-46194500D01*
X121920000Y-106680000D02*
X121920000Y-105504700D01*
X121112000Y-105504700D02*
X121920000Y-105504700D01*
X114825200Y-99217900D02*
X121112000Y-105504700D01*
X114825200Y-87190200D02*
X114825200Y-99217900D01*
X108490000Y-80855000D02*
X114825200Y-87190200D01*
X97695300Y-45224000D02*
X123816800Y-71345500D01*
X97695300Y-44450000D02*
X97695300Y-45224000D01*
X96520000Y-44450000D02*
X97695300Y-44450000D01*
X109236700Y-80355000D02*
X108490000Y-80355000D01*
X116652300Y-87770600D02*
X109236700Y-80355000D01*
X116652300Y-98505000D02*
X116652300Y-87770600D01*
X121112000Y-102964700D02*
X116652300Y-98505000D01*
X121920000Y-102964700D02*
X121112000Y-102964700D01*
X121920000Y-104140000D02*
X121920000Y-102964700D01*
X100235300Y-46288900D02*
X124794700Y-70848300D01*
X100235300Y-43893200D02*
X100235300Y-46288900D01*
X99427400Y-43085300D02*
X100235300Y-43893200D01*
X99060000Y-43085300D02*
X99427400Y-43085300D01*
X99060000Y-41910000D02*
X99060000Y-43085300D01*
X86209900Y-72445400D02*
X77375300Y-81280000D01*
X96559500Y-72445400D02*
X86209900Y-72445400D01*
X98012700Y-73898600D02*
X96559500Y-72445400D01*
X98012700Y-74821500D02*
X98012700Y-73898600D01*
X99046200Y-75855000D02*
X98012700Y-74821500D01*
X99790000Y-75855000D02*
X99046200Y-75855000D01*
X76200000Y-81280000D02*
X77375300Y-81280000D01*
X76200000Y-83820000D02*
X77375300Y-83820000D01*
X83840300Y-77355000D02*
X77375300Y-83820000D01*
X99790000Y-77355000D02*
X83840300Y-77355000D01*
X99790000Y-77355000D02*
X100765300Y-77355000D01*
X101630200Y-76490100D02*
X101731900Y-76490100D01*
X100765300Y-77355000D02*
X101630200Y-76490100D01*
X125185300Y-58870000D02*
X123095300Y-60960000D01*
X130450000Y-58870000D02*
X125185300Y-58870000D01*
X121920000Y-60960000D02*
X123095300Y-60960000D01*
X85880300Y-77855000D02*
X77375300Y-86360000D01*
X99790000Y-77855000D02*
X85880300Y-77855000D01*
X76200000Y-86360000D02*
X77375300Y-86360000D01*
X99790000Y-77855000D02*
X100765300Y-77855000D01*
X100765300Y-77855000D02*
X101685600Y-77855000D01*
X126725300Y-59870000D02*
X123095300Y-63500000D01*
X130450000Y-59870000D02*
X126725300Y-59870000D01*
X121920000Y-63500000D02*
X123095300Y-63500000D01*
X121920000Y-99060000D02*
X121920000Y-97884700D01*
X122728100Y-100235300D02*
X121920000Y-100235300D01*
X123095300Y-100602500D02*
X122728100Y-100235300D01*
X123095300Y-107733500D02*
X123095300Y-100602500D01*
X117038600Y-113790200D02*
X123095300Y-107733500D01*
X106730400Y-113790200D02*
X117038600Y-113790200D01*
X92710000Y-127810600D02*
X106730400Y-113790200D01*
X92710000Y-128731200D02*
X92710000Y-127810600D01*
X91963100Y-129478100D02*
X92710000Y-128731200D01*
X90916100Y-129478100D02*
X91963100Y-129478100D01*
X90075300Y-128637300D02*
X90916100Y-129478100D01*
X90075300Y-128270000D02*
X90075300Y-128637300D01*
X88900000Y-128270000D02*
X90075300Y-128270000D01*
X121920000Y-99060000D02*
X121920000Y-100235300D01*
X74065100Y-98724900D02*
X74065100Y-106458300D01*
X68702100Y-93361900D02*
X74065100Y-98724900D01*
X121111900Y-97884700D02*
X121920000Y-97884700D01*
X117711900Y-94484700D02*
X121111900Y-97884700D01*
X117711900Y-87443100D02*
X117711900Y-94484700D01*
X109623800Y-79355000D02*
X117711900Y-87443100D01*
X108490000Y-79355000D02*
X109623800Y-79355000D01*
X108490000Y-79855000D02*
X109465300Y-79855000D01*
X117261600Y-96941600D02*
X121920000Y-101600000D01*
X117261600Y-87651300D02*
X117261600Y-96941600D01*
X109465300Y-79855000D02*
X117261600Y-87651300D01*
X121944800Y-72885100D02*
X124369100Y-72885100D01*
X95151100Y-46091400D02*
X121944800Y-72885100D01*
X92221200Y-46091400D02*
X95151100Y-46091400D01*
X106680000Y-111854700D02*
X106680000Y-106680000D01*
X91440000Y-127094700D02*
X106680000Y-111854700D01*
X91440000Y-128270000D02*
X91440000Y-127094700D01*
X105390000Y-82455000D02*
X105390000Y-83430300D01*
X106680000Y-106680000D02*
X106680000Y-105504700D01*
X57150000Y-78740000D02*
X57150000Y-79915300D01*
X77913900Y-100358300D02*
X77913900Y-100765100D01*
X60011000Y-82455400D02*
X77913900Y-100358300D01*
X59200600Y-82455400D02*
X60011000Y-82455400D01*
X58325300Y-81580100D02*
X59200600Y-82455400D01*
X58325300Y-80723200D02*
X58325300Y-81580100D01*
X57517400Y-79915300D02*
X58325300Y-80723200D01*
X57150000Y-79915300D02*
X57517400Y-79915300D01*
X105390000Y-83768300D02*
X105390000Y-83430300D01*
X105515100Y-83893400D02*
X105390000Y-83768300D01*
X105515100Y-104339800D02*
X105515100Y-83893400D01*
X106680000Y-105504700D02*
X105515100Y-104339800D01*
X104140000Y-67390000D02*
X103867400Y-67390000D01*
X103890000Y-73755000D02*
X103890000Y-72779700D01*
X102575400Y-66098000D02*
X103867400Y-67390000D01*
X102575400Y-63747600D02*
X102575400Y-66098000D01*
X98423100Y-59595300D02*
X102575400Y-63747600D01*
X98059100Y-59595300D02*
X98423100Y-59595300D01*
X97695300Y-59231500D02*
X98059100Y-59595300D01*
X97695300Y-58420000D02*
X97695300Y-59231500D01*
X96520000Y-58420000D02*
X97695300Y-58420000D01*
X103807300Y-72697000D02*
X103890000Y-72779700D01*
X103807300Y-67450100D02*
X103807300Y-72697000D01*
X103867400Y-67390000D02*
X103807300Y-67450100D01*
X99060000Y-58420000D02*
X99060000Y-59595300D01*
X106680000Y-67390000D02*
X105704700Y-67390000D01*
X104390000Y-73755000D02*
X104390000Y-72779700D01*
X103025700Y-63561000D02*
X99060000Y-59595300D01*
X103025700Y-65454000D02*
X103025700Y-63561000D01*
X103502400Y-65930700D02*
X103025700Y-65454000D01*
X104611100Y-65930700D02*
X103502400Y-65930700D01*
X105704700Y-67024300D02*
X104611100Y-65930700D01*
X105704700Y-67390000D02*
X105704700Y-67024300D01*
X104390000Y-71691000D02*
X104390000Y-72779700D01*
X104257600Y-71558600D02*
X104390000Y-71691000D01*
X104257600Y-71040600D02*
X104257600Y-71558600D01*
X105704700Y-69593500D02*
X104257600Y-71040600D01*
X105704700Y-67390000D02*
X105704700Y-69593500D01*
X108490000Y-78855000D02*
X109465300Y-78855000D01*
X121920000Y-96520000D02*
X121920000Y-95344700D01*
X121112000Y-95344700D02*
X121920000Y-95344700D01*
X118162200Y-92394900D02*
X121112000Y-95344700D01*
X118162200Y-87256500D02*
X118162200Y-92394900D01*
X109760700Y-78855000D02*
X118162200Y-87256500D01*
X109465300Y-78855000D02*
X109760700Y-78855000D01*
X122571300Y-72224400D02*
X123886500Y-72224400D01*
X95343100Y-44996200D02*
X122571300Y-72224400D01*
X95343100Y-43894900D02*
X95343100Y-44996200D01*
X96152700Y-43085300D02*
X95343100Y-43894900D01*
X96520000Y-43085300D02*
X96152700Y-43085300D01*
X96520000Y-41910000D02*
X96520000Y-43085300D01*
X105890000Y-73755000D02*
X105890000Y-74730300D01*
X137160000Y-99060000D02*
X137160000Y-97884700D01*
X137968100Y-97884700D02*
X137160000Y-97884700D01*
X138335300Y-97517500D02*
X137968100Y-97884700D01*
X138335300Y-95425300D02*
X138335300Y-97517500D01*
X138065400Y-95155400D02*
X138335300Y-95425300D01*
X136175200Y-95155400D02*
X138065400Y-95155400D01*
X114305200Y-73285400D02*
X136175200Y-95155400D01*
X110761700Y-73285400D02*
X114305200Y-73285400D01*
X109316800Y-74730300D02*
X110761700Y-73285400D01*
X105890000Y-74730300D02*
X109316800Y-74730300D01*
X132080000Y-71120000D02*
X132080000Y-69944700D01*
X130282800Y-64882700D02*
X130282800Y-68147500D01*
X133145800Y-62019700D02*
X130282800Y-64882700D01*
X134450000Y-62019700D02*
X133145800Y-62019700D01*
X132080000Y-69944700D02*
X130282800Y-68147500D01*
X134450000Y-62970000D02*
X134450000Y-62019700D01*
X128297100Y-70133200D02*
X130282800Y-68147500D01*
X128297100Y-71214600D02*
X128297100Y-70133200D01*
X124981400Y-74530300D02*
X128297100Y-71214600D01*
X118121800Y-74530300D02*
X124981400Y-74530300D01*
X115065100Y-71473600D02*
X118121800Y-74530300D01*
X105738400Y-71473600D02*
X115065100Y-71473600D01*
X104890000Y-72322000D02*
X105738400Y-71473600D01*
X104890000Y-73755000D02*
X104890000Y-72322000D01*
X121920000Y-55880000D02*
X123095300Y-55880000D01*
X124085300Y-56870000D02*
X130450000Y-56870000D01*
X123095300Y-55880000D02*
X124085300Y-56870000D01*
X111029400Y-78355000D02*
X108490000Y-78355000D01*
X112493800Y-79819400D02*
X111029400Y-78355000D01*
X130450000Y-56870000D02*
X131400300Y-56870000D01*
X131400300Y-60396800D02*
X131400300Y-56870000D01*
X127846700Y-63950400D02*
X131400300Y-60396800D01*
X127846700Y-71028000D02*
X127846700Y-63950400D01*
X124794800Y-74079900D02*
X127846700Y-71028000D01*
X118866100Y-74079900D02*
X124794800Y-74079900D01*
X118549700Y-73763500D02*
X118866100Y-74079900D01*
X121920000Y-58420000D02*
X121920000Y-59595300D01*
X123645300Y-57870000D02*
X123095300Y-58420000D01*
X130450000Y-57870000D02*
X123645300Y-57870000D01*
X121920000Y-58420000D02*
X123095300Y-58420000D01*
X113352800Y-79794000D02*
X113352800Y-80065500D01*
X111413800Y-77855000D02*
X113352800Y-79794000D01*
X108490000Y-77855000D02*
X111413800Y-77855000D01*
X121112000Y-59595300D02*
X121920000Y-59595300D01*
X120744600Y-59962700D02*
X121112000Y-59595300D01*
X120744600Y-65073600D02*
X120744600Y-59962700D01*
X125434400Y-69763400D02*
X120744600Y-65073600D01*
X125434400Y-72769700D02*
X125434400Y-69763400D01*
X124679200Y-73524900D02*
X125434400Y-72769700D01*
X120093000Y-73524900D02*
X124679200Y-73524900D01*
X120013700Y-73445600D02*
X120093000Y-73524900D01*
X106390000Y-73755000D02*
X106390000Y-72779700D01*
X130715300Y-71928100D02*
X130715300Y-71120000D01*
X131082500Y-72295300D02*
X130715300Y-71928100D01*
X133068500Y-72295300D02*
X131082500Y-72295300D01*
X133345300Y-72018500D02*
X133068500Y-72295300D01*
X133345300Y-64025000D02*
X133345300Y-72018500D01*
X133450000Y-63920300D02*
X133345300Y-64025000D01*
X133450000Y-62970000D02*
X133450000Y-63920300D01*
X129540000Y-71120000D02*
X130715300Y-71120000D01*
X125667500Y-74992500D02*
X129540000Y-71120000D01*
X117942300Y-74992500D02*
X125667500Y-74992500D01*
X114873700Y-71923900D02*
X117942300Y-74992500D01*
X107245800Y-71923900D02*
X114873700Y-71923900D01*
X106390000Y-72779700D02*
X107245800Y-71923900D01*
X135450000Y-69114700D02*
X134620000Y-69944700D01*
X135450000Y-62970000D02*
X135450000Y-69114700D01*
X134620000Y-71120000D02*
X134620000Y-69944700D01*
X145172900Y-69551800D02*
X144780000Y-69944700D01*
X145172900Y-61473200D02*
X145172900Y-69551800D01*
X144145000Y-60445300D02*
X145172900Y-61473200D01*
X144145000Y-59370000D02*
X144145000Y-60445300D01*
X144780000Y-71120000D02*
X144780000Y-69944700D01*
X101600000Y-67390000D02*
X102575300Y-67390000D01*
X102575300Y-69389500D02*
X102575300Y-67390000D01*
X103357000Y-70171200D02*
X102575300Y-69389500D01*
X103357000Y-73722000D02*
X103357000Y-70171200D01*
X103390000Y-73755000D02*
X103357000Y-73722000D01*
X90251800Y-89877100D02*
X90464700Y-90090000D01*
X84703000Y-89877100D02*
X90251800Y-89877100D01*
X91440000Y-90090000D02*
X90464700Y-90090000D01*
X85477100Y-82053300D02*
X83919400Y-83611000D01*
X85477100Y-82053200D02*
X85477100Y-82053300D01*
X96259000Y-82053200D02*
X85477100Y-82053200D01*
X98457200Y-79855000D02*
X96259000Y-82053200D01*
X99790000Y-79855000D02*
X98457200Y-79855000D01*
X83820000Y-59784700D02*
X83820000Y-44450000D01*
X76200000Y-67404700D02*
X83820000Y-59784700D01*
X76200000Y-68580000D02*
X76200000Y-67404700D01*
X111854700Y-128270000D02*
X116934700Y-123190000D01*
X109220000Y-128270000D02*
X111854700Y-128270000D01*
X118110000Y-123190000D02*
X116934700Y-123190000D01*
X135636700Y-93980000D02*
X137160000Y-93980000D01*
X114481300Y-72824600D02*
X135636700Y-93980000D01*
X109349700Y-72824600D02*
X114481300Y-72824600D01*
X108325200Y-73849100D02*
X109349700Y-72824600D01*
X106984100Y-73849100D02*
X108325200Y-73849100D01*
X106890000Y-73755000D02*
X106984100Y-73849100D01*
X137160000Y-96520000D02*
X135984700Y-96520000D01*
X108490000Y-76355000D02*
X109465300Y-76355000D01*
X109511200Y-76400900D02*
X109465300Y-76355000D01*
X115865600Y-76400900D02*
X109511200Y-76400900D01*
X135984700Y-96520000D02*
X115865600Y-76400900D01*
X60770600Y-90075300D02*
X66040000Y-95344700D01*
X59133200Y-90075300D02*
X60770600Y-90075300D01*
X58325300Y-89267400D02*
X59133200Y-90075300D01*
X58325300Y-88900000D02*
X58325300Y-89267400D01*
X57150000Y-88900000D02*
X58325300Y-88900000D01*
X66040000Y-96520000D02*
X66040000Y-95344700D01*
X125635300Y-51005600D02*
X129499700Y-54870000D01*
X125635300Y-50800000D02*
X125635300Y-51005600D01*
X130450000Y-54870000D02*
X129499700Y-54870000D01*
X124460000Y-50800000D02*
X125635300Y-50800000D01*
X144780000Y-54909700D02*
X144780000Y-48260000D01*
X144145000Y-55544700D02*
X144780000Y-54909700D01*
X144145000Y-56620000D02*
X144145000Y-55544700D01*
X137450000Y-67694700D02*
X139700000Y-69944700D01*
X137450000Y-62970000D02*
X137450000Y-67694700D01*
X139700000Y-71120000D02*
X139700000Y-69944700D01*
X136450000Y-69234700D02*
X137160000Y-69944700D01*
X136450000Y-62970000D02*
X136450000Y-69234700D01*
X137160000Y-71120000D02*
X137160000Y-69944700D01*
X99790000Y-78355000D02*
X100765300Y-78355000D01*
X100990500Y-78580200D02*
X101129200Y-78580200D01*
X100765300Y-78355000D02*
X100990500Y-78580200D01*
X108377900Y-72374200D02*
X107528500Y-73223600D01*
X114678600Y-72374200D02*
X108377900Y-72374200D01*
X133744400Y-91440000D02*
X114678600Y-72374200D01*
X137160000Y-91440000D02*
X133744400Y-91440000D01*
X121920000Y-93980000D02*
X121920000Y-92804700D01*
X111550700Y-77355000D02*
X108490000Y-77355000D01*
X120744700Y-86549000D02*
X111550700Y-77355000D01*
X120744700Y-92437500D02*
X120744700Y-86549000D01*
X121111900Y-92804700D02*
X120744700Y-92437500D01*
X121920000Y-92804700D02*
X121111900Y-92804700D01*
X108490000Y-76855000D02*
X109465300Y-76855000D01*
X111687600Y-76855000D02*
X109465300Y-76855000D01*
X121920000Y-87087400D02*
X111687600Y-76855000D01*
X121920000Y-91440000D02*
X121920000Y-87087400D01*
D28*
G36*
X137033000Y-61796038D02*
X136950000Y-61851497D01*
X136807809Y-61756488D01*
X136450000Y-61685315D01*
X136092191Y-61756488D01*
X135950000Y-61851497D01*
X135807809Y-61756488D01*
X135450000Y-61685315D01*
X135155152Y-61743964D01*
X135152148Y-61728861D01*
X134987401Y-61482299D01*
X134740839Y-61317552D01*
X134450000Y-61259700D01*
X133145800Y-61259700D01*
X132903214Y-61307954D01*
X132854960Y-61317552D01*
X132608399Y-61482299D01*
X129745399Y-64345299D01*
X129580652Y-64591861D01*
X129522800Y-64882700D01*
X129522800Y-67832698D01*
X128606700Y-68748798D01*
X128606700Y-64265202D01*
X131937701Y-60934201D01*
X132102448Y-60687640D01*
X132160300Y-60396800D01*
X132160300Y-56870000D01*
X132102448Y-56579161D01*
X131937701Y-56332599D01*
X131691139Y-56167852D01*
X131659872Y-56161632D01*
X131670063Y-56140347D01*
X131540790Y-55997000D01*
X131111378Y-55997000D01*
X130799685Y-55935000D01*
X130100315Y-55935000D01*
X129788622Y-55997000D01*
X129359210Y-55997000D01*
X129257304Y-56110000D01*
X124400102Y-56110000D01*
X123632701Y-55342599D01*
X123417440Y-55198767D01*
X123417440Y-55030000D01*
X123373162Y-54794683D01*
X123234090Y-54578559D01*
X123021890Y-54433569D01*
X122770000Y-54382560D01*
X121070000Y-54382560D01*
X120834683Y-54426838D01*
X120618559Y-54565910D01*
X120473569Y-54778110D01*
X120422560Y-55030000D01*
X120422560Y-56730000D01*
X120466838Y-56965317D01*
X120587015Y-57152077D01*
X120473569Y-57318110D01*
X120422560Y-57570000D01*
X120422560Y-59209938D01*
X120207199Y-59425299D01*
X120042452Y-59671861D01*
X119984600Y-59962700D01*
X119984600Y-64963398D01*
X100995300Y-45974098D01*
X100995300Y-43893200D01*
X100937448Y-43602361D01*
X100772701Y-43355799D01*
X100228613Y-42811711D01*
X100431961Y-42507378D01*
X100545000Y-41939093D01*
X100545000Y-41880907D01*
X100431961Y-41312622D01*
X100110054Y-40830853D01*
X99628285Y-40508946D01*
X99060000Y-40395907D01*
X98491715Y-40508946D01*
X98009946Y-40830853D01*
X97790000Y-41160026D01*
X97570054Y-40830853D01*
X97088285Y-40508946D01*
X96520000Y-40395907D01*
X95951715Y-40508946D01*
X95469946Y-40830853D01*
X95250000Y-41160026D01*
X95030054Y-40830853D01*
X94548285Y-40508946D01*
X93980000Y-40395907D01*
X93411715Y-40508946D01*
X92929946Y-40830853D01*
X92710000Y-41160026D01*
X92490054Y-40830853D01*
X92008285Y-40508946D01*
X91440000Y-40395907D01*
X90930000Y-40497352D01*
X90930000Y-39735000D01*
X108542760Y-39735000D01*
X120422560Y-51614799D01*
X120422560Y-51650000D01*
X120466838Y-51885317D01*
X120605910Y-52101441D01*
X120818110Y-52246431D01*
X121070000Y-52297440D01*
X121274702Y-52297440D01*
X121294312Y-52310543D01*
X121920000Y-52435000D01*
X122545688Y-52310543D01*
X122565298Y-52297440D01*
X122770000Y-52297440D01*
X123005317Y-52253162D01*
X123221441Y-52114090D01*
X123366431Y-51901890D01*
X123380086Y-51834459D01*
X123409946Y-51879147D01*
X123891715Y-52201054D01*
X124460000Y-52314093D01*
X125028285Y-52201054D01*
X125464490Y-51909592D01*
X128962299Y-55407401D01*
X129208861Y-55572148D01*
X129240128Y-55578368D01*
X129229937Y-55599653D01*
X129359210Y-55743000D01*
X129788622Y-55743000D01*
X130100315Y-55805000D01*
X130799685Y-55805000D01*
X131111378Y-55743000D01*
X131540790Y-55743000D01*
X131670063Y-55599653D01*
X131563612Y-55377321D01*
X131663512Y-55227809D01*
X131734685Y-54870000D01*
X131663512Y-54512191D01*
X131460830Y-54208855D01*
X131157494Y-54006173D01*
X130799685Y-53935000D01*
X130100315Y-53935000D01*
X129742506Y-54006173D01*
X129723425Y-54018923D01*
X126368185Y-50663683D01*
X126337448Y-50509161D01*
X126172701Y-50262599D01*
X125926139Y-50097852D01*
X125736790Y-50060188D01*
X125510054Y-49720853D01*
X125028285Y-49398946D01*
X124460000Y-49285907D01*
X123891715Y-49398946D01*
X123409946Y-49720853D01*
X123382150Y-49762452D01*
X123373162Y-49714683D01*
X123234090Y-49498559D01*
X123021890Y-49353569D01*
X122770000Y-49302560D01*
X122734799Y-49302560D01*
X119437990Y-46005750D01*
X133135000Y-46005750D01*
X133135000Y-46696310D01*
X133231673Y-46929699D01*
X133410302Y-47108327D01*
X133643691Y-47205000D01*
X134334250Y-47205000D01*
X134493000Y-47046250D01*
X134493000Y-45847000D01*
X134747000Y-45847000D01*
X134747000Y-47046250D01*
X134905750Y-47205000D01*
X135596309Y-47205000D01*
X135829698Y-47108327D01*
X136008327Y-46929699D01*
X136105000Y-46696310D01*
X136105000Y-46005750D01*
X135946250Y-45847000D01*
X134747000Y-45847000D01*
X134493000Y-45847000D01*
X133293750Y-45847000D01*
X133135000Y-46005750D01*
X119437990Y-46005750D01*
X118175930Y-44743690D01*
X133135000Y-44743690D01*
X133135000Y-45434250D01*
X133293750Y-45593000D01*
X134493000Y-45593000D01*
X134493000Y-44393750D01*
X134747000Y-44393750D01*
X134747000Y-45593000D01*
X135946250Y-45593000D01*
X136105000Y-45434250D01*
X136105000Y-44743690D01*
X136008327Y-44510301D01*
X135829698Y-44331673D01*
X135596309Y-44235000D01*
X134905750Y-44235000D01*
X134747000Y-44393750D01*
X134493000Y-44393750D01*
X134334250Y-44235000D01*
X133643691Y-44235000D01*
X133410302Y-44331673D01*
X133231673Y-44510301D01*
X133135000Y-44743690D01*
X118175930Y-44743690D01*
X110376120Y-36943880D01*
X109845688Y-36589457D01*
X109220000Y-36464999D01*
X109219995Y-36465000D01*
X74930005Y-36465000D01*
X74930000Y-36464999D01*
X74304312Y-36589457D01*
X74039096Y-36766669D01*
X73773880Y-36943880D01*
X73773878Y-36943883D01*
X55231880Y-55485880D01*
X52183880Y-58533880D01*
X51829457Y-59064312D01*
X51704999Y-59690000D01*
X51705000Y-59690005D01*
X51705000Y-107949995D01*
X51704999Y-107950000D01*
X51829457Y-108575688D01*
X52183880Y-109106120D01*
X57263880Y-114186120D01*
X57794312Y-114540543D01*
X58420000Y-114665001D01*
X58420005Y-114665000D01*
X67902760Y-114665000D01*
X68693878Y-115456117D01*
X68693880Y-115456120D01*
X69011851Y-115668581D01*
X69224312Y-115810543D01*
X69850000Y-115935000D01*
X72025000Y-115935000D01*
X72025000Y-129539995D01*
X72024999Y-129540000D01*
X72149457Y-130165688D01*
X72503880Y-130696120D01*
X75043878Y-133236117D01*
X75043880Y-133236120D01*
X75574313Y-133590543D01*
X76200000Y-133715000D01*
X111759995Y-133715000D01*
X111760000Y-133715001D01*
X112385688Y-133590543D01*
X112916120Y-133236120D01*
X118787240Y-127365000D01*
X125052760Y-127365000D01*
X130923880Y-133236120D01*
X131454312Y-133590543D01*
X132080000Y-133715000D01*
X138429995Y-133715000D01*
X138430000Y-133715001D01*
X139055688Y-133590543D01*
X139586120Y-133236120D01*
X147206117Y-125616122D01*
X147206120Y-125616120D01*
X147560543Y-125085687D01*
X147685000Y-124460000D01*
X147685000Y-106680005D01*
X147685001Y-106680000D01*
X147560543Y-106054312D01*
X147206120Y-105523880D01*
X142126120Y-100443880D01*
X141595688Y-100089457D01*
X140970000Y-99964999D01*
X140969995Y-99965000D01*
X138646302Y-99965000D01*
X138657440Y-99910000D01*
X138657440Y-98270162D01*
X138872701Y-98054901D01*
X139037448Y-97808340D01*
X139095300Y-97517500D01*
X139095300Y-95425300D01*
X139073300Y-95314700D01*
X139037448Y-95134460D01*
X138872701Y-94887899D01*
X138657440Y-94672638D01*
X138657440Y-93130000D01*
X138613162Y-92894683D01*
X138492985Y-92707923D01*
X138606431Y-92541890D01*
X138657440Y-92290000D01*
X138657440Y-90590000D01*
X138613162Y-90354683D01*
X138474090Y-90138559D01*
X138261890Y-89993569D01*
X138010000Y-89942560D01*
X136310000Y-89942560D01*
X136074683Y-89986838D01*
X135858559Y-90125910D01*
X135713569Y-90338110D01*
X135662560Y-90590000D01*
X135662560Y-90680000D01*
X134059202Y-90680000D01*
X119131702Y-75752500D01*
X125667500Y-75752500D01*
X125958339Y-75694648D01*
X126204901Y-75529901D01*
X129117362Y-72617440D01*
X130329838Y-72617440D01*
X130545099Y-72832701D01*
X130791660Y-72997448D01*
X131082500Y-73055300D01*
X133068500Y-73055300D01*
X133359339Y-72997448D01*
X133605901Y-72832701D01*
X133821162Y-72617440D01*
X135470000Y-72617440D01*
X135705317Y-72573162D01*
X135892077Y-72452985D01*
X136058110Y-72566431D01*
X136310000Y-72617440D01*
X138010000Y-72617440D01*
X138245317Y-72573162D01*
X138432077Y-72452985D01*
X138598110Y-72566431D01*
X138850000Y-72617440D01*
X140550000Y-72617440D01*
X140785317Y-72573162D01*
X141001441Y-72434090D01*
X141146431Y-72221890D01*
X141197440Y-71970000D01*
X141197440Y-70270000D01*
X141153162Y-70034683D01*
X141014090Y-69818559D01*
X140801890Y-69673569D01*
X140550000Y-69622560D01*
X140381233Y-69622560D01*
X140237401Y-69407299D01*
X138267102Y-67437000D01*
X144412900Y-67437000D01*
X144412900Y-69236998D01*
X144242599Y-69407299D01*
X144098767Y-69622560D01*
X143930000Y-69622560D01*
X143694683Y-69666838D01*
X143478559Y-69805910D01*
X143333569Y-70018110D01*
X143282560Y-70270000D01*
X143282560Y-71970000D01*
X143326838Y-72205317D01*
X143465910Y-72421441D01*
X143678110Y-72566431D01*
X143930000Y-72617440D01*
X145630000Y-72617440D01*
X145865317Y-72573162D01*
X146081441Y-72434090D01*
X146226431Y-72221890D01*
X146277440Y-71970000D01*
X146277440Y-70270000D01*
X146233162Y-70034683D01*
X146094090Y-69818559D01*
X145905473Y-69689683D01*
X145932900Y-69551800D01*
X145932900Y-67437000D01*
X149150000Y-67437000D01*
X149150000Y-133910000D01*
X51510000Y-133910000D01*
X51510000Y-127285750D01*
X62015000Y-127285750D01*
X62015000Y-127976310D01*
X62111673Y-128209699D01*
X62290302Y-128388327D01*
X62523691Y-128485000D01*
X63214250Y-128485000D01*
X63373000Y-128326250D01*
X63373000Y-127127000D01*
X63627000Y-127127000D01*
X63627000Y-128326250D01*
X63785750Y-128485000D01*
X64476309Y-128485000D01*
X64709698Y-128388327D01*
X64888327Y-128209699D01*
X64985000Y-127976310D01*
X64985000Y-127285750D01*
X64826250Y-127127000D01*
X63627000Y-127127000D01*
X63373000Y-127127000D01*
X62173750Y-127127000D01*
X62015000Y-127285750D01*
X51510000Y-127285750D01*
X51510000Y-126023690D01*
X62015000Y-126023690D01*
X62015000Y-126714250D01*
X62173750Y-126873000D01*
X63373000Y-126873000D01*
X63373000Y-125673750D01*
X63627000Y-125673750D01*
X63627000Y-126873000D01*
X64826250Y-126873000D01*
X64985000Y-126714250D01*
X64985000Y-126023690D01*
X64888327Y-125790301D01*
X64709698Y-125611673D01*
X64476309Y-125515000D01*
X63785750Y-125515000D01*
X63627000Y-125673750D01*
X63373000Y-125673750D01*
X63214250Y-125515000D01*
X62523691Y-125515000D01*
X62290302Y-125611673D01*
X62111673Y-125790301D01*
X62015000Y-126023690D01*
X51510000Y-126023690D01*
X51510000Y-36270000D01*
X137033000Y-36270000D01*
X137033000Y-61796038D01*
X137033000Y-61796038D01*
G37*
X137033000Y-61796038D02*
X136950000Y-61851497D01*
X136807809Y-61756488D01*
X136450000Y-61685315D01*
X136092191Y-61756488D01*
X135950000Y-61851497D01*
X135807809Y-61756488D01*
X135450000Y-61685315D01*
X135155152Y-61743964D01*
X135152148Y-61728861D01*
X134987401Y-61482299D01*
X134740839Y-61317552D01*
X134450000Y-61259700D01*
X133145800Y-61259700D01*
X132903214Y-61307954D01*
X132854960Y-61317552D01*
X132608399Y-61482299D01*
X129745399Y-64345299D01*
X129580652Y-64591861D01*
X129522800Y-64882700D01*
X129522800Y-67832698D01*
X128606700Y-68748798D01*
X128606700Y-64265202D01*
X131937701Y-60934201D01*
X132102448Y-60687640D01*
X132160300Y-60396800D01*
X132160300Y-56870000D01*
X132102448Y-56579161D01*
X131937701Y-56332599D01*
X131691139Y-56167852D01*
X131659872Y-56161632D01*
X131670063Y-56140347D01*
X131540790Y-55997000D01*
X131111378Y-55997000D01*
X130799685Y-55935000D01*
X130100315Y-55935000D01*
X129788622Y-55997000D01*
X129359210Y-55997000D01*
X129257304Y-56110000D01*
X124400102Y-56110000D01*
X123632701Y-55342599D01*
X123417440Y-55198767D01*
X123417440Y-55030000D01*
X123373162Y-54794683D01*
X123234090Y-54578559D01*
X123021890Y-54433569D01*
X122770000Y-54382560D01*
X121070000Y-54382560D01*
X120834683Y-54426838D01*
X120618559Y-54565910D01*
X120473569Y-54778110D01*
X120422560Y-55030000D01*
X120422560Y-56730000D01*
X120466838Y-56965317D01*
X120587015Y-57152077D01*
X120473569Y-57318110D01*
X120422560Y-57570000D01*
X120422560Y-59209938D01*
X120207199Y-59425299D01*
X120042452Y-59671861D01*
X119984600Y-59962700D01*
X119984600Y-64963398D01*
X100995300Y-45974098D01*
X100995300Y-43893200D01*
X100937448Y-43602361D01*
X100772701Y-43355799D01*
X100228613Y-42811711D01*
X100431961Y-42507378D01*
X100545000Y-41939093D01*
X100545000Y-41880907D01*
X100431961Y-41312622D01*
X100110054Y-40830853D01*
X99628285Y-40508946D01*
X99060000Y-40395907D01*
X98491715Y-40508946D01*
X98009946Y-40830853D01*
X97790000Y-41160026D01*
X97570054Y-40830853D01*
X97088285Y-40508946D01*
X96520000Y-40395907D01*
X95951715Y-40508946D01*
X95469946Y-40830853D01*
X95250000Y-41160026D01*
X95030054Y-40830853D01*
X94548285Y-40508946D01*
X93980000Y-40395907D01*
X93411715Y-40508946D01*
X92929946Y-40830853D01*
X92710000Y-41160026D01*
X92490054Y-40830853D01*
X92008285Y-40508946D01*
X91440000Y-40395907D01*
X90930000Y-40497352D01*
X90930000Y-39735000D01*
X108542760Y-39735000D01*
X120422560Y-51614799D01*
X120422560Y-51650000D01*
X120466838Y-51885317D01*
X120605910Y-52101441D01*
X120818110Y-52246431D01*
X121070000Y-52297440D01*
X121274702Y-52297440D01*
X121294312Y-52310543D01*
X121920000Y-52435000D01*
X122545688Y-52310543D01*
X122565298Y-52297440D01*
X122770000Y-52297440D01*
X123005317Y-52253162D01*
X123221441Y-52114090D01*
X123366431Y-51901890D01*
X123380086Y-51834459D01*
X123409946Y-51879147D01*
X123891715Y-52201054D01*
X124460000Y-52314093D01*
X125028285Y-52201054D01*
X125464490Y-51909592D01*
X128962299Y-55407401D01*
X129208861Y-55572148D01*
X129240128Y-55578368D01*
X129229937Y-55599653D01*
X129359210Y-55743000D01*
X129788622Y-55743000D01*
X130100315Y-55805000D01*
X130799685Y-55805000D01*
X131111378Y-55743000D01*
X131540790Y-55743000D01*
X131670063Y-55599653D01*
X131563612Y-55377321D01*
X131663512Y-55227809D01*
X131734685Y-54870000D01*
X131663512Y-54512191D01*
X131460830Y-54208855D01*
X131157494Y-54006173D01*
X130799685Y-53935000D01*
X130100315Y-53935000D01*
X129742506Y-54006173D01*
X129723425Y-54018923D01*
X126368185Y-50663683D01*
X126337448Y-50509161D01*
X126172701Y-50262599D01*
X125926139Y-50097852D01*
X125736790Y-50060188D01*
X125510054Y-49720853D01*
X125028285Y-49398946D01*
X124460000Y-49285907D01*
X123891715Y-49398946D01*
X123409946Y-49720853D01*
X123382150Y-49762452D01*
X123373162Y-49714683D01*
X123234090Y-49498559D01*
X123021890Y-49353569D01*
X122770000Y-49302560D01*
X122734799Y-49302560D01*
X119437990Y-46005750D01*
X133135000Y-46005750D01*
X133135000Y-46696310D01*
X133231673Y-46929699D01*
X133410302Y-47108327D01*
X133643691Y-47205000D01*
X134334250Y-47205000D01*
X134493000Y-47046250D01*
X134493000Y-45847000D01*
X134747000Y-45847000D01*
X134747000Y-47046250D01*
X134905750Y-47205000D01*
X135596309Y-47205000D01*
X135829698Y-47108327D01*
X136008327Y-46929699D01*
X136105000Y-46696310D01*
X136105000Y-46005750D01*
X135946250Y-45847000D01*
X134747000Y-45847000D01*
X134493000Y-45847000D01*
X133293750Y-45847000D01*
X133135000Y-46005750D01*
X119437990Y-46005750D01*
X118175930Y-44743690D01*
X133135000Y-44743690D01*
X133135000Y-45434250D01*
X133293750Y-45593000D01*
X134493000Y-45593000D01*
X134493000Y-44393750D01*
X134747000Y-44393750D01*
X134747000Y-45593000D01*
X135946250Y-45593000D01*
X136105000Y-45434250D01*
X136105000Y-44743690D01*
X136008327Y-44510301D01*
X135829698Y-44331673D01*
X135596309Y-44235000D01*
X134905750Y-44235000D01*
X134747000Y-44393750D01*
X134493000Y-44393750D01*
X134334250Y-44235000D01*
X133643691Y-44235000D01*
X133410302Y-44331673D01*
X133231673Y-44510301D01*
X133135000Y-44743690D01*
X118175930Y-44743690D01*
X110376120Y-36943880D01*
X109845688Y-36589457D01*
X109220000Y-36464999D01*
X109219995Y-36465000D01*
X74930005Y-36465000D01*
X74930000Y-36464999D01*
X74304312Y-36589457D01*
X74039096Y-36766669D01*
X73773880Y-36943880D01*
X73773878Y-36943883D01*
X55231880Y-55485880D01*
X52183880Y-58533880D01*
X51829457Y-59064312D01*
X51704999Y-59690000D01*
X51705000Y-59690005D01*
X51705000Y-107949995D01*
X51704999Y-107950000D01*
X51829457Y-108575688D01*
X52183880Y-109106120D01*
X57263880Y-114186120D01*
X57794312Y-114540543D01*
X58420000Y-114665001D01*
X58420005Y-114665000D01*
X67902760Y-114665000D01*
X68693878Y-115456117D01*
X68693880Y-115456120D01*
X69011851Y-115668581D01*
X69224312Y-115810543D01*
X69850000Y-115935000D01*
X72025000Y-115935000D01*
X72025000Y-129539995D01*
X72024999Y-129540000D01*
X72149457Y-130165688D01*
X72503880Y-130696120D01*
X75043878Y-133236117D01*
X75043880Y-133236120D01*
X75574313Y-133590543D01*
X76200000Y-133715000D01*
X111759995Y-133715000D01*
X111760000Y-133715001D01*
X112385688Y-133590543D01*
X112916120Y-133236120D01*
X118787240Y-127365000D01*
X125052760Y-127365000D01*
X130923880Y-133236120D01*
X131454312Y-133590543D01*
X132080000Y-133715000D01*
X138429995Y-133715000D01*
X138430000Y-133715001D01*
X139055688Y-133590543D01*
X139586120Y-133236120D01*
X147206117Y-125616122D01*
X147206120Y-125616120D01*
X147560543Y-125085687D01*
X147685000Y-124460000D01*
X147685000Y-106680005D01*
X147685001Y-106680000D01*
X147560543Y-106054312D01*
X147206120Y-105523880D01*
X142126120Y-100443880D01*
X141595688Y-100089457D01*
X140970000Y-99964999D01*
X140969995Y-99965000D01*
X138646302Y-99965000D01*
X138657440Y-99910000D01*
X138657440Y-98270162D01*
X138872701Y-98054901D01*
X139037448Y-97808340D01*
X139095300Y-97517500D01*
X139095300Y-95425300D01*
X139073300Y-95314700D01*
X139037448Y-95134460D01*
X138872701Y-94887899D01*
X138657440Y-94672638D01*
X138657440Y-93130000D01*
X138613162Y-92894683D01*
X138492985Y-92707923D01*
X138606431Y-92541890D01*
X138657440Y-92290000D01*
X138657440Y-90590000D01*
X138613162Y-90354683D01*
X138474090Y-90138559D01*
X138261890Y-89993569D01*
X138010000Y-89942560D01*
X136310000Y-89942560D01*
X136074683Y-89986838D01*
X135858559Y-90125910D01*
X135713569Y-90338110D01*
X135662560Y-90590000D01*
X135662560Y-90680000D01*
X134059202Y-90680000D01*
X119131702Y-75752500D01*
X125667500Y-75752500D01*
X125958339Y-75694648D01*
X126204901Y-75529901D01*
X129117362Y-72617440D01*
X130329838Y-72617440D01*
X130545099Y-72832701D01*
X130791660Y-72997448D01*
X131082500Y-73055300D01*
X133068500Y-73055300D01*
X133359339Y-72997448D01*
X133605901Y-72832701D01*
X133821162Y-72617440D01*
X135470000Y-72617440D01*
X135705317Y-72573162D01*
X135892077Y-72452985D01*
X136058110Y-72566431D01*
X136310000Y-72617440D01*
X138010000Y-72617440D01*
X138245317Y-72573162D01*
X138432077Y-72452985D01*
X138598110Y-72566431D01*
X138850000Y-72617440D01*
X140550000Y-72617440D01*
X140785317Y-72573162D01*
X141001441Y-72434090D01*
X141146431Y-72221890D01*
X141197440Y-71970000D01*
X141197440Y-70270000D01*
X141153162Y-70034683D01*
X141014090Y-69818559D01*
X140801890Y-69673569D01*
X140550000Y-69622560D01*
X140381233Y-69622560D01*
X140237401Y-69407299D01*
X138267102Y-67437000D01*
X144412900Y-67437000D01*
X144412900Y-69236998D01*
X144242599Y-69407299D01*
X144098767Y-69622560D01*
X143930000Y-69622560D01*
X143694683Y-69666838D01*
X143478559Y-69805910D01*
X143333569Y-70018110D01*
X143282560Y-70270000D01*
X143282560Y-71970000D01*
X143326838Y-72205317D01*
X143465910Y-72421441D01*
X143678110Y-72566431D01*
X143930000Y-72617440D01*
X145630000Y-72617440D01*
X145865317Y-72573162D01*
X146081441Y-72434090D01*
X146226431Y-72221890D01*
X146277440Y-71970000D01*
X146277440Y-70270000D01*
X146233162Y-70034683D01*
X146094090Y-69818559D01*
X145905473Y-69689683D01*
X145932900Y-69551800D01*
X145932900Y-67437000D01*
X149150000Y-67437000D01*
X149150000Y-133910000D01*
X51510000Y-133910000D01*
X51510000Y-127285750D01*
X62015000Y-127285750D01*
X62015000Y-127976310D01*
X62111673Y-128209699D01*
X62290302Y-128388327D01*
X62523691Y-128485000D01*
X63214250Y-128485000D01*
X63373000Y-128326250D01*
X63373000Y-127127000D01*
X63627000Y-127127000D01*
X63627000Y-128326250D01*
X63785750Y-128485000D01*
X64476309Y-128485000D01*
X64709698Y-128388327D01*
X64888327Y-128209699D01*
X64985000Y-127976310D01*
X64985000Y-127285750D01*
X64826250Y-127127000D01*
X63627000Y-127127000D01*
X63373000Y-127127000D01*
X62173750Y-127127000D01*
X62015000Y-127285750D01*
X51510000Y-127285750D01*
X51510000Y-126023690D01*
X62015000Y-126023690D01*
X62015000Y-126714250D01*
X62173750Y-126873000D01*
X63373000Y-126873000D01*
X63373000Y-125673750D01*
X63627000Y-125673750D01*
X63627000Y-126873000D01*
X64826250Y-126873000D01*
X64985000Y-126714250D01*
X64985000Y-126023690D01*
X64888327Y-125790301D01*
X64709698Y-125611673D01*
X64476309Y-125515000D01*
X63785750Y-125515000D01*
X63627000Y-125673750D01*
X63373000Y-125673750D01*
X63214250Y-125515000D01*
X62523691Y-125515000D01*
X62290302Y-125611673D01*
X62111673Y-125790301D01*
X62015000Y-126023690D01*
X51510000Y-126023690D01*
X51510000Y-36270000D01*
X137033000Y-36270000D01*
X137033000Y-61796038D01*
G36*
X135447299Y-97057401D02*
X135662560Y-97201233D01*
X135662560Y-97370000D01*
X135706838Y-97605317D01*
X135827015Y-97792077D01*
X135713569Y-97958110D01*
X135662560Y-98210000D01*
X135662560Y-99910000D01*
X135706838Y-100145317D01*
X135827015Y-100332077D01*
X135713569Y-100498110D01*
X135662560Y-100750000D01*
X135662560Y-100954703D01*
X135649457Y-100974313D01*
X135525000Y-101600000D01*
X135649457Y-102225687D01*
X135662560Y-102245297D01*
X135662560Y-102450000D01*
X135706838Y-102685317D01*
X135828143Y-102873831D01*
X135771673Y-102930301D01*
X135675000Y-103163690D01*
X135675000Y-103854250D01*
X135833750Y-104013000D01*
X137033000Y-104013000D01*
X137033000Y-103993000D01*
X137287000Y-103993000D01*
X137287000Y-104013000D01*
X138486250Y-104013000D01*
X138645000Y-103854250D01*
X138645000Y-103235000D01*
X140292760Y-103235000D01*
X144415000Y-107357240D01*
X144415000Y-123782761D01*
X137752760Y-130445000D01*
X132757240Y-130445000D01*
X126886120Y-124573880D01*
X126355688Y-124219457D01*
X125730000Y-124094999D01*
X125729995Y-124095000D01*
X119596302Y-124095000D01*
X119607440Y-124040000D01*
X119607440Y-122340000D01*
X119582180Y-122205750D01*
X135675000Y-122205750D01*
X135675000Y-122896310D01*
X135771673Y-123129699D01*
X135950302Y-123308327D01*
X136183691Y-123405000D01*
X136874250Y-123405000D01*
X137033000Y-123246250D01*
X137033000Y-122047000D01*
X137287000Y-122047000D01*
X137287000Y-123246250D01*
X137445750Y-123405000D01*
X138136309Y-123405000D01*
X138369698Y-123308327D01*
X138548327Y-123129699D01*
X138645000Y-122896310D01*
X138645000Y-122205750D01*
X138486250Y-122047000D01*
X137287000Y-122047000D01*
X137033000Y-122047000D01*
X135833750Y-122047000D01*
X135675000Y-122205750D01*
X119582180Y-122205750D01*
X119563162Y-122104683D01*
X119424090Y-121888559D01*
X119211890Y-121743569D01*
X118960000Y-121692560D01*
X117260000Y-121692560D01*
X117024683Y-121736838D01*
X116808559Y-121875910D01*
X116663569Y-122088110D01*
X116612560Y-122340000D01*
X116612560Y-122508767D01*
X116397299Y-122652599D01*
X111539898Y-127510000D01*
X110483301Y-127510000D01*
X110270054Y-127190853D01*
X109788285Y-126868946D01*
X109220000Y-126755907D01*
X108651715Y-126868946D01*
X108169946Y-127190853D01*
X107942298Y-127531553D01*
X107875183Y-127388642D01*
X107446924Y-126998355D01*
X107036890Y-126828524D01*
X106807000Y-126949845D01*
X106807000Y-128143000D01*
X106827000Y-128143000D01*
X106827000Y-128397000D01*
X106807000Y-128397000D01*
X106807000Y-129590155D01*
X107036890Y-129711476D01*
X107446924Y-129541645D01*
X107875183Y-129151358D01*
X107942298Y-129008447D01*
X108169946Y-129349147D01*
X108651715Y-129671054D01*
X109220000Y-129784093D01*
X109788285Y-129671054D01*
X110270054Y-129349147D01*
X110483301Y-129030000D01*
X111854700Y-129030000D01*
X112145539Y-128972148D01*
X112392101Y-128807401D01*
X116761514Y-124437988D01*
X116795910Y-124491441D01*
X116938733Y-124589027D01*
X111082760Y-130445000D01*
X76877239Y-130445000D01*
X75295000Y-128862760D01*
X75295000Y-114300000D01*
X75170543Y-113674313D01*
X74827204Y-113160469D01*
X74961441Y-113074090D01*
X75106431Y-112861890D01*
X75157440Y-112610000D01*
X75157440Y-112405297D01*
X75170543Y-112385687D01*
X75295000Y-111760000D01*
X75295000Y-109897240D01*
X83706117Y-101486122D01*
X83706120Y-101486120D01*
X84060543Y-100955687D01*
X84075598Y-100880000D01*
X84185001Y-100330000D01*
X84185000Y-100329995D01*
X84185000Y-91725750D01*
X84825000Y-91725750D01*
X84825000Y-92466310D01*
X84921673Y-92699699D01*
X85100302Y-92878327D01*
X85333691Y-92975000D01*
X86074250Y-92975000D01*
X86233000Y-92816250D01*
X86233000Y-91567000D01*
X84983750Y-91567000D01*
X84825000Y-91725750D01*
X84185000Y-91725750D01*
X84185000Y-90674411D01*
X84516201Y-90811938D01*
X84825000Y-90812207D01*
X84825000Y-91154250D01*
X84983750Y-91313000D01*
X86233000Y-91313000D01*
X86233000Y-91293000D01*
X86487000Y-91293000D01*
X86487000Y-91313000D01*
X86507000Y-91313000D01*
X86507000Y-91567000D01*
X86487000Y-91567000D01*
X86487000Y-92816250D01*
X86645750Y-92975000D01*
X87386309Y-92975000D01*
X87619698Y-92878327D01*
X87798327Y-92699699D01*
X87854119Y-92565006D01*
X88029357Y-92740551D01*
X88593330Y-92974733D01*
X89203991Y-92975265D01*
X89314713Y-92929515D01*
X89712599Y-93327401D01*
X89959160Y-93492148D01*
X90142560Y-93528629D01*
X90142560Y-93540000D01*
X90186838Y-93775317D01*
X90325910Y-93991441D01*
X90538110Y-94136431D01*
X90790000Y-94187440D01*
X92090000Y-94187440D01*
X92325317Y-94143162D01*
X92541441Y-94004090D01*
X92686431Y-93791890D01*
X92737440Y-93540000D01*
X92737440Y-92040000D01*
X92693162Y-91804683D01*
X92554090Y-91588559D01*
X92341890Y-91443569D01*
X92328803Y-91440919D01*
X92541441Y-91304090D01*
X92686431Y-91091890D01*
X92737440Y-90840000D01*
X92737440Y-89340000D01*
X92693162Y-89104683D01*
X92676087Y-89078147D01*
X92766338Y-88860799D01*
X92766662Y-88488833D01*
X92624617Y-88145057D01*
X92361827Y-87881808D01*
X92018299Y-87739162D01*
X91646333Y-87738838D01*
X91302557Y-87880883D01*
X91269382Y-87914000D01*
X85848239Y-87914000D01*
X87037239Y-86725000D01*
X96520000Y-86725000D01*
X97145687Y-86600543D01*
X97676120Y-86246120D01*
X98030543Y-85715687D01*
X98104892Y-85341910D01*
X100617560Y-82829242D01*
X100617560Y-83105000D01*
X100630000Y-83171113D01*
X100630000Y-90159898D01*
X85822599Y-104967299D01*
X85678767Y-105182560D01*
X85510000Y-105182560D01*
X85274683Y-105226838D01*
X85058559Y-105365910D01*
X84913569Y-105578110D01*
X84862560Y-105830000D01*
X84862560Y-107530000D01*
X84906838Y-107765317D01*
X85045910Y-107981441D01*
X85258110Y-108126431D01*
X85510000Y-108177440D01*
X87210000Y-108177440D01*
X87445317Y-108133162D01*
X87632077Y-108012985D01*
X87798110Y-108126431D01*
X88050000Y-108177440D01*
X89750000Y-108177440D01*
X89985317Y-108133162D01*
X90172077Y-108012985D01*
X90338110Y-108126431D01*
X90590000Y-108177440D01*
X92290000Y-108177440D01*
X92525317Y-108133162D01*
X92712077Y-108012985D01*
X92878110Y-108126431D01*
X93130000Y-108177440D01*
X94830000Y-108177440D01*
X95065317Y-108133162D01*
X95252077Y-108012985D01*
X95418110Y-108126431D01*
X95670000Y-108177440D01*
X97370000Y-108177440D01*
X97605317Y-108133162D01*
X97792077Y-108012985D01*
X97958110Y-108126431D01*
X98210000Y-108177440D01*
X99910000Y-108177440D01*
X100145317Y-108133162D01*
X100332077Y-108012985D01*
X100498110Y-108126431D01*
X100750000Y-108177440D01*
X102450000Y-108177440D01*
X102685317Y-108133162D01*
X102872077Y-108012985D01*
X103038110Y-108126431D01*
X103290000Y-108177440D01*
X104990000Y-108177440D01*
X105225317Y-108133162D01*
X105412077Y-108012985D01*
X105578110Y-108126431D01*
X105830000Y-108177440D01*
X105920000Y-108177440D01*
X105920000Y-111539898D01*
X90902599Y-126557299D01*
X90737852Y-126803861D01*
X90702402Y-126982077D01*
X90389946Y-127190853D01*
X90362150Y-127232452D01*
X90353162Y-127184683D01*
X90214090Y-126968559D01*
X90001890Y-126823569D01*
X89750000Y-126772560D01*
X88050000Y-126772560D01*
X87814683Y-126816838D01*
X87598559Y-126955910D01*
X87453569Y-127168110D01*
X87402560Y-127420000D01*
X87402560Y-129120000D01*
X87446838Y-129355317D01*
X87585910Y-129571441D01*
X87798110Y-129716431D01*
X88050000Y-129767440D01*
X89750000Y-129767440D01*
X89985317Y-129723162D01*
X90046798Y-129683600D01*
X90378699Y-130015501D01*
X90625261Y-130180248D01*
X90916100Y-130238100D01*
X91963100Y-130238100D01*
X92253939Y-130180248D01*
X92500501Y-130015501D01*
X93071963Y-129444039D01*
X93411715Y-129671054D01*
X93980000Y-129784093D01*
X94548285Y-129671054D01*
X95030054Y-129349147D01*
X95250000Y-129019974D01*
X95469946Y-129349147D01*
X95951715Y-129671054D01*
X96520000Y-129784093D01*
X97088285Y-129671054D01*
X97570054Y-129349147D01*
X97790000Y-129019974D01*
X98009946Y-129349147D01*
X98491715Y-129671054D01*
X99060000Y-129784093D01*
X99628285Y-129671054D01*
X100110054Y-129349147D01*
X100330000Y-129019974D01*
X100549946Y-129349147D01*
X101031715Y-129671054D01*
X101600000Y-129784093D01*
X102168285Y-129671054D01*
X102650054Y-129349147D01*
X102870000Y-129019974D01*
X103089946Y-129349147D01*
X103571715Y-129671054D01*
X104140000Y-129784093D01*
X104708285Y-129671054D01*
X105190054Y-129349147D01*
X105417702Y-129008447D01*
X105484817Y-129151358D01*
X105913076Y-129541645D01*
X106323110Y-129711476D01*
X106553000Y-129590155D01*
X106553000Y-128397000D01*
X106533000Y-128397000D01*
X106533000Y-128143000D01*
X106553000Y-128143000D01*
X106553000Y-126949845D01*
X106323110Y-126828524D01*
X105913076Y-126998355D01*
X105484817Y-127388642D01*
X105417702Y-127531553D01*
X105190054Y-127190853D01*
X104708285Y-126868946D01*
X104140000Y-126755907D01*
X103571715Y-126868946D01*
X103089946Y-127190853D01*
X102870000Y-127520026D01*
X102650054Y-127190853D01*
X102168285Y-126868946D01*
X101600000Y-126755907D01*
X101031715Y-126868946D01*
X100549946Y-127190853D01*
X100330000Y-127520026D01*
X100110054Y-127190853D01*
X99628285Y-126868946D01*
X99060000Y-126755907D01*
X98491715Y-126868946D01*
X98009946Y-127190853D01*
X97790000Y-127520026D01*
X97570054Y-127190853D01*
X97088285Y-126868946D01*
X96520000Y-126755907D01*
X95951715Y-126868946D01*
X95469946Y-127190853D01*
X95250000Y-127520026D01*
X95030054Y-127190853D01*
X94655091Y-126940311D01*
X100651712Y-120943690D01*
X135675000Y-120943690D01*
X135675000Y-121634250D01*
X135833750Y-121793000D01*
X137033000Y-121793000D01*
X137033000Y-120593750D01*
X137287000Y-120593750D01*
X137287000Y-121793000D01*
X138486250Y-121793000D01*
X138645000Y-121634250D01*
X138645000Y-120943690D01*
X138548327Y-120710301D01*
X138369698Y-120531673D01*
X138136309Y-120435000D01*
X137445750Y-120435000D01*
X137287000Y-120593750D01*
X137033000Y-120593750D01*
X136874250Y-120435000D01*
X136183691Y-120435000D01*
X135950302Y-120531673D01*
X135771673Y-120710301D01*
X135675000Y-120943690D01*
X100651712Y-120943690D01*
X107045202Y-114550200D01*
X117038600Y-114550200D01*
X117329439Y-114492348D01*
X117576001Y-114327601D01*
X123632701Y-108270901D01*
X123797448Y-108024340D01*
X123855300Y-107733500D01*
X123855300Y-104425750D01*
X135675000Y-104425750D01*
X135675000Y-105116310D01*
X135771673Y-105349699D01*
X135950302Y-105528327D01*
X136183691Y-105625000D01*
X136874250Y-105625000D01*
X137033000Y-105466250D01*
X137033000Y-104267000D01*
X137287000Y-104267000D01*
X137287000Y-105466250D01*
X137445750Y-105625000D01*
X138136309Y-105625000D01*
X138369698Y-105528327D01*
X138548327Y-105349699D01*
X138645000Y-105116310D01*
X138645000Y-104425750D01*
X138486250Y-104267000D01*
X137287000Y-104267000D01*
X137033000Y-104267000D01*
X135833750Y-104267000D01*
X135675000Y-104425750D01*
X123855300Y-104425750D01*
X123855300Y-100602500D01*
X123797448Y-100311661D01*
X123797448Y-100311660D01*
X123632701Y-100065099D01*
X123417440Y-99849838D01*
X123417440Y-98210000D01*
X123373162Y-97974683D01*
X123252985Y-97787923D01*
X123366431Y-97621890D01*
X123417440Y-97370000D01*
X123417440Y-95670000D01*
X123373162Y-95434683D01*
X123252985Y-95247923D01*
X123366431Y-95081890D01*
X123417440Y-94830000D01*
X123417440Y-93130000D01*
X123373162Y-92894683D01*
X123252985Y-92707923D01*
X123366431Y-92541890D01*
X123417440Y-92290000D01*
X123417440Y-90590000D01*
X123373162Y-90354683D01*
X123234090Y-90138559D01*
X123021890Y-89993569D01*
X122770000Y-89942560D01*
X122680000Y-89942560D01*
X122680000Y-87087400D01*
X122622148Y-86796561D01*
X122457401Y-86549999D01*
X113068302Y-77160900D01*
X115550798Y-77160900D01*
X135447299Y-97057401D01*
X135447299Y-97057401D01*
G37*
X135447299Y-97057401D02*
X135662560Y-97201233D01*
X135662560Y-97370000D01*
X135706838Y-97605317D01*
X135827015Y-97792077D01*
X135713569Y-97958110D01*
X135662560Y-98210000D01*
X135662560Y-99910000D01*
X135706838Y-100145317D01*
X135827015Y-100332077D01*
X135713569Y-100498110D01*
X135662560Y-100750000D01*
X135662560Y-100954703D01*
X135649457Y-100974313D01*
X135525000Y-101600000D01*
X135649457Y-102225687D01*
X135662560Y-102245297D01*
X135662560Y-102450000D01*
X135706838Y-102685317D01*
X135828143Y-102873831D01*
X135771673Y-102930301D01*
X135675000Y-103163690D01*
X135675000Y-103854250D01*
X135833750Y-104013000D01*
X137033000Y-104013000D01*
X137033000Y-103993000D01*
X137287000Y-103993000D01*
X137287000Y-104013000D01*
X138486250Y-104013000D01*
X138645000Y-103854250D01*
X138645000Y-103235000D01*
X140292760Y-103235000D01*
X144415000Y-107357240D01*
X144415000Y-123782761D01*
X137752760Y-130445000D01*
X132757240Y-130445000D01*
X126886120Y-124573880D01*
X126355688Y-124219457D01*
X125730000Y-124094999D01*
X125729995Y-124095000D01*
X119596302Y-124095000D01*
X119607440Y-124040000D01*
X119607440Y-122340000D01*
X119582180Y-122205750D01*
X135675000Y-122205750D01*
X135675000Y-122896310D01*
X135771673Y-123129699D01*
X135950302Y-123308327D01*
X136183691Y-123405000D01*
X136874250Y-123405000D01*
X137033000Y-123246250D01*
X137033000Y-122047000D01*
X137287000Y-122047000D01*
X137287000Y-123246250D01*
X137445750Y-123405000D01*
X138136309Y-123405000D01*
X138369698Y-123308327D01*
X138548327Y-123129699D01*
X138645000Y-122896310D01*
X138645000Y-122205750D01*
X138486250Y-122047000D01*
X137287000Y-122047000D01*
X137033000Y-122047000D01*
X135833750Y-122047000D01*
X135675000Y-122205750D01*
X119582180Y-122205750D01*
X119563162Y-122104683D01*
X119424090Y-121888559D01*
X119211890Y-121743569D01*
X118960000Y-121692560D01*
X117260000Y-121692560D01*
X117024683Y-121736838D01*
X116808559Y-121875910D01*
X116663569Y-122088110D01*
X116612560Y-122340000D01*
X116612560Y-122508767D01*
X116397299Y-122652599D01*
X111539898Y-127510000D01*
X110483301Y-127510000D01*
X110270054Y-127190853D01*
X109788285Y-126868946D01*
X109220000Y-126755907D01*
X108651715Y-126868946D01*
X108169946Y-127190853D01*
X107942298Y-127531553D01*
X107875183Y-127388642D01*
X107446924Y-126998355D01*
X107036890Y-126828524D01*
X106807000Y-126949845D01*
X106807000Y-128143000D01*
X106827000Y-128143000D01*
X106827000Y-128397000D01*
X106807000Y-128397000D01*
X106807000Y-129590155D01*
X107036890Y-129711476D01*
X107446924Y-129541645D01*
X107875183Y-129151358D01*
X107942298Y-129008447D01*
X108169946Y-129349147D01*
X108651715Y-129671054D01*
X109220000Y-129784093D01*
X109788285Y-129671054D01*
X110270054Y-129349147D01*
X110483301Y-129030000D01*
X111854700Y-129030000D01*
X112145539Y-128972148D01*
X112392101Y-128807401D01*
X116761514Y-124437988D01*
X116795910Y-124491441D01*
X116938733Y-124589027D01*
X111082760Y-130445000D01*
X76877239Y-130445000D01*
X75295000Y-128862760D01*
X75295000Y-114300000D01*
X75170543Y-113674313D01*
X74827204Y-113160469D01*
X74961441Y-113074090D01*
X75106431Y-112861890D01*
X75157440Y-112610000D01*
X75157440Y-112405297D01*
X75170543Y-112385687D01*
X75295000Y-111760000D01*
X75295000Y-109897240D01*
X83706117Y-101486122D01*
X83706120Y-101486120D01*
X84060543Y-100955687D01*
X84075598Y-100880000D01*
X84185001Y-100330000D01*
X84185000Y-100329995D01*
X84185000Y-91725750D01*
X84825000Y-91725750D01*
X84825000Y-92466310D01*
X84921673Y-92699699D01*
X85100302Y-92878327D01*
X85333691Y-92975000D01*
X86074250Y-92975000D01*
X86233000Y-92816250D01*
X86233000Y-91567000D01*
X84983750Y-91567000D01*
X84825000Y-91725750D01*
X84185000Y-91725750D01*
X84185000Y-90674411D01*
X84516201Y-90811938D01*
X84825000Y-90812207D01*
X84825000Y-91154250D01*
X84983750Y-91313000D01*
X86233000Y-91313000D01*
X86233000Y-91293000D01*
X86487000Y-91293000D01*
X86487000Y-91313000D01*
X86507000Y-91313000D01*
X86507000Y-91567000D01*
X86487000Y-91567000D01*
X86487000Y-92816250D01*
X86645750Y-92975000D01*
X87386309Y-92975000D01*
X87619698Y-92878327D01*
X87798327Y-92699699D01*
X87854119Y-92565006D01*
X88029357Y-92740551D01*
X88593330Y-92974733D01*
X89203991Y-92975265D01*
X89314713Y-92929515D01*
X89712599Y-93327401D01*
X89959160Y-93492148D01*
X90142560Y-93528629D01*
X90142560Y-93540000D01*
X90186838Y-93775317D01*
X90325910Y-93991441D01*
X90538110Y-94136431D01*
X90790000Y-94187440D01*
X92090000Y-94187440D01*
X92325317Y-94143162D01*
X92541441Y-94004090D01*
X92686431Y-93791890D01*
X92737440Y-93540000D01*
X92737440Y-92040000D01*
X92693162Y-91804683D01*
X92554090Y-91588559D01*
X92341890Y-91443569D01*
X92328803Y-91440919D01*
X92541441Y-91304090D01*
X92686431Y-91091890D01*
X92737440Y-90840000D01*
X92737440Y-89340000D01*
X92693162Y-89104683D01*
X92676087Y-89078147D01*
X92766338Y-88860799D01*
X92766662Y-88488833D01*
X92624617Y-88145057D01*
X92361827Y-87881808D01*
X92018299Y-87739162D01*
X91646333Y-87738838D01*
X91302557Y-87880883D01*
X91269382Y-87914000D01*
X85848239Y-87914000D01*
X87037239Y-86725000D01*
X96520000Y-86725000D01*
X97145687Y-86600543D01*
X97676120Y-86246120D01*
X98030543Y-85715687D01*
X98104892Y-85341910D01*
X100617560Y-82829242D01*
X100617560Y-83105000D01*
X100630000Y-83171113D01*
X100630000Y-90159898D01*
X85822599Y-104967299D01*
X85678767Y-105182560D01*
X85510000Y-105182560D01*
X85274683Y-105226838D01*
X85058559Y-105365910D01*
X84913569Y-105578110D01*
X84862560Y-105830000D01*
X84862560Y-107530000D01*
X84906838Y-107765317D01*
X85045910Y-107981441D01*
X85258110Y-108126431D01*
X85510000Y-108177440D01*
X87210000Y-108177440D01*
X87445317Y-108133162D01*
X87632077Y-108012985D01*
X87798110Y-108126431D01*
X88050000Y-108177440D01*
X89750000Y-108177440D01*
X89985317Y-108133162D01*
X90172077Y-108012985D01*
X90338110Y-108126431D01*
X90590000Y-108177440D01*
X92290000Y-108177440D01*
X92525317Y-108133162D01*
X92712077Y-108012985D01*
X92878110Y-108126431D01*
X93130000Y-108177440D01*
X94830000Y-108177440D01*
X95065317Y-108133162D01*
X95252077Y-108012985D01*
X95418110Y-108126431D01*
X95670000Y-108177440D01*
X97370000Y-108177440D01*
X97605317Y-108133162D01*
X97792077Y-108012985D01*
X97958110Y-108126431D01*
X98210000Y-108177440D01*
X99910000Y-108177440D01*
X100145317Y-108133162D01*
X100332077Y-108012985D01*
X100498110Y-108126431D01*
X100750000Y-108177440D01*
X102450000Y-108177440D01*
X102685317Y-108133162D01*
X102872077Y-108012985D01*
X103038110Y-108126431D01*
X103290000Y-108177440D01*
X104990000Y-108177440D01*
X105225317Y-108133162D01*
X105412077Y-108012985D01*
X105578110Y-108126431D01*
X105830000Y-108177440D01*
X105920000Y-108177440D01*
X105920000Y-111539898D01*
X90902599Y-126557299D01*
X90737852Y-126803861D01*
X90702402Y-126982077D01*
X90389946Y-127190853D01*
X90362150Y-127232452D01*
X90353162Y-127184683D01*
X90214090Y-126968559D01*
X90001890Y-126823569D01*
X89750000Y-126772560D01*
X88050000Y-126772560D01*
X87814683Y-126816838D01*
X87598559Y-126955910D01*
X87453569Y-127168110D01*
X87402560Y-127420000D01*
X87402560Y-129120000D01*
X87446838Y-129355317D01*
X87585910Y-129571441D01*
X87798110Y-129716431D01*
X88050000Y-129767440D01*
X89750000Y-129767440D01*
X89985317Y-129723162D01*
X90046798Y-129683600D01*
X90378699Y-130015501D01*
X90625261Y-130180248D01*
X90916100Y-130238100D01*
X91963100Y-130238100D01*
X92253939Y-130180248D01*
X92500501Y-130015501D01*
X93071963Y-129444039D01*
X93411715Y-129671054D01*
X93980000Y-129784093D01*
X94548285Y-129671054D01*
X95030054Y-129349147D01*
X95250000Y-129019974D01*
X95469946Y-129349147D01*
X95951715Y-129671054D01*
X96520000Y-129784093D01*
X97088285Y-129671054D01*
X97570054Y-129349147D01*
X97790000Y-129019974D01*
X98009946Y-129349147D01*
X98491715Y-129671054D01*
X99060000Y-129784093D01*
X99628285Y-129671054D01*
X100110054Y-129349147D01*
X100330000Y-129019974D01*
X100549946Y-129349147D01*
X101031715Y-129671054D01*
X101600000Y-129784093D01*
X102168285Y-129671054D01*
X102650054Y-129349147D01*
X102870000Y-129019974D01*
X103089946Y-129349147D01*
X103571715Y-129671054D01*
X104140000Y-129784093D01*
X104708285Y-129671054D01*
X105190054Y-129349147D01*
X105417702Y-129008447D01*
X105484817Y-129151358D01*
X105913076Y-129541645D01*
X106323110Y-129711476D01*
X106553000Y-129590155D01*
X106553000Y-128397000D01*
X106533000Y-128397000D01*
X106533000Y-128143000D01*
X106553000Y-128143000D01*
X106553000Y-126949845D01*
X106323110Y-126828524D01*
X105913076Y-126998355D01*
X105484817Y-127388642D01*
X105417702Y-127531553D01*
X105190054Y-127190853D01*
X104708285Y-126868946D01*
X104140000Y-126755907D01*
X103571715Y-126868946D01*
X103089946Y-127190853D01*
X102870000Y-127520026D01*
X102650054Y-127190853D01*
X102168285Y-126868946D01*
X101600000Y-126755907D01*
X101031715Y-126868946D01*
X100549946Y-127190853D01*
X100330000Y-127520026D01*
X100110054Y-127190853D01*
X99628285Y-126868946D01*
X99060000Y-126755907D01*
X98491715Y-126868946D01*
X98009946Y-127190853D01*
X97790000Y-127520026D01*
X97570054Y-127190853D01*
X97088285Y-126868946D01*
X96520000Y-126755907D01*
X95951715Y-126868946D01*
X95469946Y-127190853D01*
X95250000Y-127520026D01*
X95030054Y-127190853D01*
X94655091Y-126940311D01*
X100651712Y-120943690D01*
X135675000Y-120943690D01*
X135675000Y-121634250D01*
X135833750Y-121793000D01*
X137033000Y-121793000D01*
X137033000Y-120593750D01*
X137287000Y-120593750D01*
X137287000Y-121793000D01*
X138486250Y-121793000D01*
X138645000Y-121634250D01*
X138645000Y-120943690D01*
X138548327Y-120710301D01*
X138369698Y-120531673D01*
X138136309Y-120435000D01*
X137445750Y-120435000D01*
X137287000Y-120593750D01*
X137033000Y-120593750D01*
X136874250Y-120435000D01*
X136183691Y-120435000D01*
X135950302Y-120531673D01*
X135771673Y-120710301D01*
X135675000Y-120943690D01*
X100651712Y-120943690D01*
X107045202Y-114550200D01*
X117038600Y-114550200D01*
X117329439Y-114492348D01*
X117576001Y-114327601D01*
X123632701Y-108270901D01*
X123797448Y-108024340D01*
X123855300Y-107733500D01*
X123855300Y-104425750D01*
X135675000Y-104425750D01*
X135675000Y-105116310D01*
X135771673Y-105349699D01*
X135950302Y-105528327D01*
X136183691Y-105625000D01*
X136874250Y-105625000D01*
X137033000Y-105466250D01*
X137033000Y-104267000D01*
X137287000Y-104267000D01*
X137287000Y-105466250D01*
X137445750Y-105625000D01*
X138136309Y-105625000D01*
X138369698Y-105528327D01*
X138548327Y-105349699D01*
X138645000Y-105116310D01*
X138645000Y-104425750D01*
X138486250Y-104267000D01*
X137287000Y-104267000D01*
X137033000Y-104267000D01*
X135833750Y-104267000D01*
X135675000Y-104425750D01*
X123855300Y-104425750D01*
X123855300Y-100602500D01*
X123797448Y-100311661D01*
X123797448Y-100311660D01*
X123632701Y-100065099D01*
X123417440Y-99849838D01*
X123417440Y-98210000D01*
X123373162Y-97974683D01*
X123252985Y-97787923D01*
X123366431Y-97621890D01*
X123417440Y-97370000D01*
X123417440Y-95670000D01*
X123373162Y-95434683D01*
X123252985Y-95247923D01*
X123366431Y-95081890D01*
X123417440Y-94830000D01*
X123417440Y-93130000D01*
X123373162Y-92894683D01*
X123252985Y-92707923D01*
X123366431Y-92541890D01*
X123417440Y-92290000D01*
X123417440Y-90590000D01*
X123373162Y-90354683D01*
X123234090Y-90138559D01*
X123021890Y-89993569D01*
X122770000Y-89942560D01*
X122680000Y-89942560D01*
X122680000Y-87087400D01*
X122622148Y-86796561D01*
X122457401Y-86549999D01*
X113068302Y-77160900D01*
X115550798Y-77160900D01*
X135447299Y-97057401D01*
G36*
X107840000Y-81627440D02*
X108187638Y-81627440D01*
X114065200Y-87505002D01*
X114065200Y-99217900D01*
X114123052Y-99508739D01*
X114287799Y-99755301D01*
X120422560Y-105890062D01*
X120422560Y-107530000D01*
X120466838Y-107765317D01*
X120605910Y-107981441D01*
X120818110Y-108126431D01*
X121070000Y-108177440D01*
X121576558Y-108177440D01*
X116723798Y-113030200D01*
X106730400Y-113030200D01*
X106541784Y-113067718D01*
X107217401Y-112392101D01*
X107382148Y-112145539D01*
X107440000Y-111854700D01*
X107440000Y-108177440D01*
X107530000Y-108177440D01*
X107765317Y-108133162D01*
X107952077Y-108012985D01*
X108118110Y-108126431D01*
X108370000Y-108177440D01*
X110070000Y-108177440D01*
X110305317Y-108133162D01*
X110521441Y-107994090D01*
X110666431Y-107781890D01*
X110717440Y-107530000D01*
X110717440Y-105830000D01*
X110673162Y-105594683D01*
X110534090Y-105378559D01*
X110321890Y-105233569D01*
X110070000Y-105182560D01*
X109901233Y-105182560D01*
X109757401Y-104967299D01*
X106725600Y-101935498D01*
X106725600Y-88403750D01*
X106944000Y-88403750D01*
X106944000Y-88994309D01*
X107040673Y-89227698D01*
X107219301Y-89406327D01*
X107452690Y-89503000D01*
X107918250Y-89503000D01*
X108077000Y-89344250D01*
X108077000Y-88245000D01*
X108331000Y-88245000D01*
X108331000Y-89344250D01*
X108489750Y-89503000D01*
X108955310Y-89503000D01*
X109188699Y-89406327D01*
X109367327Y-89227698D01*
X109464000Y-88994309D01*
X109464000Y-88403750D01*
X109305250Y-88245000D01*
X108331000Y-88245000D01*
X108077000Y-88245000D01*
X107102750Y-88245000D01*
X106944000Y-88403750D01*
X106725600Y-88403750D01*
X106725600Y-83744461D01*
X106765000Y-83752440D01*
X107015000Y-83752440D01*
X107250317Y-83708162D01*
X107263121Y-83699923D01*
X107444000Y-83880802D01*
X107444000Y-84245962D01*
X107343683Y-84264838D01*
X107127559Y-84403910D01*
X106982569Y-84616110D01*
X106931560Y-84868000D01*
X106931560Y-86368000D01*
X106975838Y-86603317D01*
X107114910Y-86819441D01*
X107183006Y-86865969D01*
X107040673Y-87008302D01*
X106944000Y-87241691D01*
X106944000Y-87832250D01*
X107102750Y-87991000D01*
X108077000Y-87991000D01*
X108077000Y-87971000D01*
X108331000Y-87971000D01*
X108331000Y-87991000D01*
X109305250Y-87991000D01*
X109464000Y-87832250D01*
X109464000Y-87241691D01*
X109367327Y-87008302D01*
X109226090Y-86867064D01*
X109280441Y-86832090D01*
X109425431Y-86619890D01*
X109476440Y-86368000D01*
X109476440Y-84868000D01*
X109432162Y-84632683D01*
X109293090Y-84416559D01*
X109080890Y-84271569D01*
X108964000Y-84247898D01*
X108964000Y-83566000D01*
X108946388Y-83477461D01*
X108906148Y-83275160D01*
X108741401Y-83028599D01*
X107662440Y-81949638D01*
X107662440Y-81805000D01*
X107650000Y-81738887D01*
X107650000Y-81588964D01*
X107840000Y-81627440D01*
X107840000Y-81627440D01*
G37*
X107840000Y-81627440D02*
X108187638Y-81627440D01*
X114065200Y-87505002D01*
X114065200Y-99217900D01*
X114123052Y-99508739D01*
X114287799Y-99755301D01*
X120422560Y-105890062D01*
X120422560Y-107530000D01*
X120466838Y-107765317D01*
X120605910Y-107981441D01*
X120818110Y-108126431D01*
X121070000Y-108177440D01*
X121576558Y-108177440D01*
X116723798Y-113030200D01*
X106730400Y-113030200D01*
X106541784Y-113067718D01*
X107217401Y-112392101D01*
X107382148Y-112145539D01*
X107440000Y-111854700D01*
X107440000Y-108177440D01*
X107530000Y-108177440D01*
X107765317Y-108133162D01*
X107952077Y-108012985D01*
X108118110Y-108126431D01*
X108370000Y-108177440D01*
X110070000Y-108177440D01*
X110305317Y-108133162D01*
X110521441Y-107994090D01*
X110666431Y-107781890D01*
X110717440Y-107530000D01*
X110717440Y-105830000D01*
X110673162Y-105594683D01*
X110534090Y-105378559D01*
X110321890Y-105233569D01*
X110070000Y-105182560D01*
X109901233Y-105182560D01*
X109757401Y-104967299D01*
X106725600Y-101935498D01*
X106725600Y-88403750D01*
X106944000Y-88403750D01*
X106944000Y-88994309D01*
X107040673Y-89227698D01*
X107219301Y-89406327D01*
X107452690Y-89503000D01*
X107918250Y-89503000D01*
X108077000Y-89344250D01*
X108077000Y-88245000D01*
X108331000Y-88245000D01*
X108331000Y-89344250D01*
X108489750Y-89503000D01*
X108955310Y-89503000D01*
X109188699Y-89406327D01*
X109367327Y-89227698D01*
X109464000Y-88994309D01*
X109464000Y-88403750D01*
X109305250Y-88245000D01*
X108331000Y-88245000D01*
X108077000Y-88245000D01*
X107102750Y-88245000D01*
X106944000Y-88403750D01*
X106725600Y-88403750D01*
X106725600Y-83744461D01*
X106765000Y-83752440D01*
X107015000Y-83752440D01*
X107250317Y-83708162D01*
X107263121Y-83699923D01*
X107444000Y-83880802D01*
X107444000Y-84245962D01*
X107343683Y-84264838D01*
X107127559Y-84403910D01*
X106982569Y-84616110D01*
X106931560Y-84868000D01*
X106931560Y-86368000D01*
X106975838Y-86603317D01*
X107114910Y-86819441D01*
X107183006Y-86865969D01*
X107040673Y-87008302D01*
X106944000Y-87241691D01*
X106944000Y-87832250D01*
X107102750Y-87991000D01*
X108077000Y-87991000D01*
X108077000Y-87971000D01*
X108331000Y-87971000D01*
X108331000Y-87991000D01*
X109305250Y-87991000D01*
X109464000Y-87832250D01*
X109464000Y-87241691D01*
X109367327Y-87008302D01*
X109226090Y-86867064D01*
X109280441Y-86832090D01*
X109425431Y-86619890D01*
X109476440Y-86368000D01*
X109476440Y-84868000D01*
X109432162Y-84632683D01*
X109293090Y-84416559D01*
X109080890Y-84271569D01*
X108964000Y-84247898D01*
X108964000Y-83566000D01*
X108946388Y-83477461D01*
X108906148Y-83275160D01*
X108741401Y-83028599D01*
X107662440Y-81949638D01*
X107662440Y-81805000D01*
X107650000Y-81738887D01*
X107650000Y-81588964D01*
X107840000Y-81627440D01*
G36*
X87849946Y-45529147D02*
X88331715Y-45851054D01*
X88900000Y-45964093D01*
X89410000Y-45862648D01*
X89410000Y-46080100D01*
X89467852Y-46370939D01*
X89632599Y-46617501D01*
X99475400Y-56460302D01*
X99475400Y-56922560D01*
X98210000Y-56922560D01*
X97974683Y-56966838D01*
X97787923Y-57087015D01*
X97621890Y-56973569D01*
X97370000Y-56922560D01*
X95670000Y-56922560D01*
X95434683Y-56966838D01*
X95247923Y-57087015D01*
X95081890Y-56973569D01*
X94830000Y-56922560D01*
X93130000Y-56922560D01*
X92894683Y-56966838D01*
X92707923Y-57087015D01*
X92541890Y-56973569D01*
X92290000Y-56922560D01*
X90590000Y-56922560D01*
X90354683Y-56966838D01*
X90138559Y-57105910D01*
X89993569Y-57318110D01*
X89942560Y-57570000D01*
X89942560Y-59270000D01*
X89986838Y-59505317D01*
X90125910Y-59721441D01*
X90338110Y-59866431D01*
X90590000Y-59917440D01*
X90758767Y-59917440D01*
X90902599Y-60132701D01*
X91149161Y-60297448D01*
X91316790Y-60330792D01*
X98454998Y-67469000D01*
X98308690Y-67469000D01*
X98075301Y-67565673D01*
X97896673Y-67744302D01*
X97800000Y-67977691D01*
X97800000Y-68568250D01*
X97958750Y-68727000D01*
X98933000Y-68727000D01*
X98933000Y-68707000D01*
X99187000Y-68707000D01*
X99187000Y-68727000D01*
X99207000Y-68727000D01*
X99207000Y-68981000D01*
X99187000Y-68981000D01*
X99187000Y-69001000D01*
X98933000Y-69001000D01*
X98933000Y-68981000D01*
X97958750Y-68981000D01*
X97800000Y-69139750D01*
X97800000Y-69730309D01*
X97896673Y-69963698D01*
X98037910Y-70104936D01*
X97983559Y-70139910D01*
X97838569Y-70352110D01*
X97789585Y-70594000D01*
X97342802Y-70594000D01*
X97030440Y-70281638D01*
X97030440Y-69334000D01*
X96986162Y-69098683D01*
X96847090Y-68882559D01*
X96778994Y-68836031D01*
X96921327Y-68693698D01*
X97018000Y-68460309D01*
X97018000Y-67869750D01*
X96859250Y-67711000D01*
X95885000Y-67711000D01*
X95885000Y-67731000D01*
X95631000Y-67731000D01*
X95631000Y-67711000D01*
X94656750Y-67711000D01*
X94498000Y-67869750D01*
X94498000Y-68460309D01*
X94594673Y-68693698D01*
X94735910Y-68834936D01*
X94681559Y-68869910D01*
X94536569Y-69082110D01*
X94485560Y-69334000D01*
X94485560Y-70834000D01*
X94529838Y-71069317D01*
X94668910Y-71285441D01*
X94881110Y-71430431D01*
X95133000Y-71481440D01*
X96080638Y-71481440D01*
X96284598Y-71685400D01*
X86209900Y-71685400D01*
X85919061Y-71743252D01*
X85672499Y-71907999D01*
X77548486Y-80032012D01*
X77514090Y-79978559D01*
X77301890Y-79833569D01*
X77050000Y-79782560D01*
X75350000Y-79782560D01*
X75114683Y-79826838D01*
X74898559Y-79965910D01*
X74753569Y-80178110D01*
X74702560Y-80430000D01*
X74702560Y-82130000D01*
X74746838Y-82365317D01*
X74867015Y-82552077D01*
X74753569Y-82718110D01*
X74702560Y-82970000D01*
X74702560Y-84670000D01*
X74746838Y-84905317D01*
X74867015Y-85092077D01*
X74753569Y-85258110D01*
X74702560Y-85510000D01*
X74702560Y-85837658D01*
X61116282Y-72251380D01*
X61136431Y-72221890D01*
X61187440Y-71970000D01*
X61187440Y-70270000D01*
X61143162Y-70034683D01*
X61004090Y-69818559D01*
X60791890Y-69673569D01*
X60540000Y-69622560D01*
X58840000Y-69622560D01*
X58604683Y-69666838D01*
X58388559Y-69805910D01*
X58243569Y-70018110D01*
X58232159Y-70074454D01*
X58229147Y-70069946D01*
X57747378Y-69748039D01*
X57179093Y-69635000D01*
X57120907Y-69635000D01*
X56552622Y-69748039D01*
X56070853Y-70069946D01*
X55748946Y-70551715D01*
X55635907Y-71120000D01*
X55748946Y-71688285D01*
X56070853Y-72170054D01*
X56400026Y-72390000D01*
X56070853Y-72609946D01*
X55748946Y-73091715D01*
X55635907Y-73660000D01*
X55748946Y-74228285D01*
X55975640Y-74567558D01*
X55418599Y-75124599D01*
X55253852Y-75371161D01*
X55196000Y-75662000D01*
X55196000Y-81760800D01*
X55253852Y-82051639D01*
X55418599Y-82298201D01*
X55998551Y-82878153D01*
X55748946Y-83251715D01*
X55635907Y-83820000D01*
X55748946Y-84388285D01*
X56070853Y-84870054D01*
X56400026Y-85090000D01*
X56070853Y-85309946D01*
X55748946Y-85791715D01*
X55635907Y-86360000D01*
X55748946Y-86928285D01*
X56070853Y-87410054D01*
X56400026Y-87630000D01*
X56070853Y-87849946D01*
X55748946Y-88331715D01*
X55635907Y-88900000D01*
X55748946Y-89468285D01*
X56070853Y-89950054D01*
X56411553Y-90177702D01*
X56268642Y-90244817D01*
X55878355Y-90673076D01*
X55708524Y-91083110D01*
X55829845Y-91313000D01*
X57023000Y-91313000D01*
X57023000Y-91293000D01*
X57277000Y-91293000D01*
X57277000Y-91313000D01*
X57297000Y-91313000D01*
X57297000Y-91567000D01*
X57277000Y-91567000D01*
X57277000Y-91587000D01*
X57023000Y-91587000D01*
X57023000Y-91567000D01*
X55829845Y-91567000D01*
X55708524Y-91796890D01*
X55878355Y-92206924D01*
X56268642Y-92635183D01*
X56411553Y-92702298D01*
X56070853Y-92929946D01*
X55748946Y-93411715D01*
X55635907Y-93980000D01*
X55748946Y-94548285D01*
X56070853Y-95030054D01*
X56552622Y-95351961D01*
X57120907Y-95465000D01*
X57179093Y-95465000D01*
X57747378Y-95351961D01*
X58229147Y-95030054D01*
X58420000Y-94744422D01*
X58610853Y-95030054D01*
X59092622Y-95351961D01*
X59660907Y-95465000D01*
X59719093Y-95465000D01*
X60287378Y-95351961D01*
X60769147Y-95030054D01*
X61091054Y-94548285D01*
X61204093Y-93980000D01*
X61091054Y-93411715D01*
X60769147Y-92929946D01*
X60439974Y-92710000D01*
X60769147Y-92490054D01*
X61091054Y-92008285D01*
X61180269Y-91559771D01*
X65032750Y-95412252D01*
X64989946Y-95440853D01*
X64668039Y-95922622D01*
X64555000Y-96490907D01*
X64555000Y-96549093D01*
X64668039Y-97117378D01*
X64989946Y-97599147D01*
X65471715Y-97921054D01*
X66040000Y-98034093D01*
X66608285Y-97921054D01*
X66945000Y-97696069D01*
X66945000Y-111395000D01*
X59097240Y-111395000D01*
X54975000Y-107272760D01*
X54975000Y-60367240D01*
X56769000Y-58573240D01*
X70471880Y-72276120D01*
X71002312Y-72630543D01*
X71628000Y-72755001D01*
X71628005Y-72755000D01*
X76200000Y-72755000D01*
X76825687Y-72630543D01*
X76845297Y-72617440D01*
X77050000Y-72617440D01*
X77285317Y-72573162D01*
X77501441Y-72434090D01*
X77646431Y-72221890D01*
X77697440Y-71970000D01*
X77697440Y-71765297D01*
X77710543Y-71745687D01*
X77835000Y-71120000D01*
X77710543Y-70494313D01*
X77697440Y-70474703D01*
X77697440Y-70270000D01*
X77653162Y-70034683D01*
X77514090Y-69818559D01*
X77301890Y-69673569D01*
X77234459Y-69659914D01*
X77279147Y-69630054D01*
X77601054Y-69148285D01*
X77714093Y-68580000D01*
X77601054Y-68011715D01*
X77279147Y-67529946D01*
X77201463Y-67478039D01*
X77971811Y-66707691D01*
X94498000Y-66707691D01*
X94498000Y-67298250D01*
X94656750Y-67457000D01*
X95631000Y-67457000D01*
X95631000Y-66357750D01*
X95885000Y-66357750D01*
X95885000Y-67457000D01*
X96859250Y-67457000D01*
X97018000Y-67298250D01*
X97018000Y-66707691D01*
X96921327Y-66474302D01*
X96742699Y-66295673D01*
X96509310Y-66199000D01*
X96043750Y-66199000D01*
X95885000Y-66357750D01*
X95631000Y-66357750D01*
X95472250Y-66199000D01*
X95006690Y-66199000D01*
X94773301Y-66295673D01*
X94594673Y-66474302D01*
X94498000Y-66707691D01*
X77971811Y-66707691D01*
X84357401Y-60322101D01*
X84522148Y-60075540D01*
X84580000Y-59784700D01*
X84580000Y-45722954D01*
X84870054Y-45529147D01*
X85090000Y-45199974D01*
X85309946Y-45529147D01*
X85791715Y-45851054D01*
X86360000Y-45964093D01*
X86928285Y-45851054D01*
X87410054Y-45529147D01*
X87630000Y-45199974D01*
X87849946Y-45529147D01*
X87849946Y-45529147D01*
G37*
X87849946Y-45529147D02*
X88331715Y-45851054D01*
X88900000Y-45964093D01*
X89410000Y-45862648D01*
X89410000Y-46080100D01*
X89467852Y-46370939D01*
X89632599Y-46617501D01*
X99475400Y-56460302D01*
X99475400Y-56922560D01*
X98210000Y-56922560D01*
X97974683Y-56966838D01*
X97787923Y-57087015D01*
X97621890Y-56973569D01*
X97370000Y-56922560D01*
X95670000Y-56922560D01*
X95434683Y-56966838D01*
X95247923Y-57087015D01*
X95081890Y-56973569D01*
X94830000Y-56922560D01*
X93130000Y-56922560D01*
X92894683Y-56966838D01*
X92707923Y-57087015D01*
X92541890Y-56973569D01*
X92290000Y-56922560D01*
X90590000Y-56922560D01*
X90354683Y-56966838D01*
X90138559Y-57105910D01*
X89993569Y-57318110D01*
X89942560Y-57570000D01*
X89942560Y-59270000D01*
X89986838Y-59505317D01*
X90125910Y-59721441D01*
X90338110Y-59866431D01*
X90590000Y-59917440D01*
X90758767Y-59917440D01*
X90902599Y-60132701D01*
X91149161Y-60297448D01*
X91316790Y-60330792D01*
X98454998Y-67469000D01*
X98308690Y-67469000D01*
X98075301Y-67565673D01*
X97896673Y-67744302D01*
X97800000Y-67977691D01*
X97800000Y-68568250D01*
X97958750Y-68727000D01*
X98933000Y-68727000D01*
X98933000Y-68707000D01*
X99187000Y-68707000D01*
X99187000Y-68727000D01*
X99207000Y-68727000D01*
X99207000Y-68981000D01*
X99187000Y-68981000D01*
X99187000Y-69001000D01*
X98933000Y-69001000D01*
X98933000Y-68981000D01*
X97958750Y-68981000D01*
X97800000Y-69139750D01*
X97800000Y-69730309D01*
X97896673Y-69963698D01*
X98037910Y-70104936D01*
X97983559Y-70139910D01*
X97838569Y-70352110D01*
X97789585Y-70594000D01*
X97342802Y-70594000D01*
X97030440Y-70281638D01*
X97030440Y-69334000D01*
X96986162Y-69098683D01*
X96847090Y-68882559D01*
X96778994Y-68836031D01*
X96921327Y-68693698D01*
X97018000Y-68460309D01*
X97018000Y-67869750D01*
X96859250Y-67711000D01*
X95885000Y-67711000D01*
X95885000Y-67731000D01*
X95631000Y-67731000D01*
X95631000Y-67711000D01*
X94656750Y-67711000D01*
X94498000Y-67869750D01*
X94498000Y-68460309D01*
X94594673Y-68693698D01*
X94735910Y-68834936D01*
X94681559Y-68869910D01*
X94536569Y-69082110D01*
X94485560Y-69334000D01*
X94485560Y-70834000D01*
X94529838Y-71069317D01*
X94668910Y-71285441D01*
X94881110Y-71430431D01*
X95133000Y-71481440D01*
X96080638Y-71481440D01*
X96284598Y-71685400D01*
X86209900Y-71685400D01*
X85919061Y-71743252D01*
X85672499Y-71907999D01*
X77548486Y-80032012D01*
X77514090Y-79978559D01*
X77301890Y-79833569D01*
X77050000Y-79782560D01*
X75350000Y-79782560D01*
X75114683Y-79826838D01*
X74898559Y-79965910D01*
X74753569Y-80178110D01*
X74702560Y-80430000D01*
X74702560Y-82130000D01*
X74746838Y-82365317D01*
X74867015Y-82552077D01*
X74753569Y-82718110D01*
X74702560Y-82970000D01*
X74702560Y-84670000D01*
X74746838Y-84905317D01*
X74867015Y-85092077D01*
X74753569Y-85258110D01*
X74702560Y-85510000D01*
X74702560Y-85837658D01*
X61116282Y-72251380D01*
X61136431Y-72221890D01*
X61187440Y-71970000D01*
X61187440Y-70270000D01*
X61143162Y-70034683D01*
X61004090Y-69818559D01*
X60791890Y-69673569D01*
X60540000Y-69622560D01*
X58840000Y-69622560D01*
X58604683Y-69666838D01*
X58388559Y-69805910D01*
X58243569Y-70018110D01*
X58232159Y-70074454D01*
X58229147Y-70069946D01*
X57747378Y-69748039D01*
X57179093Y-69635000D01*
X57120907Y-69635000D01*
X56552622Y-69748039D01*
X56070853Y-70069946D01*
X55748946Y-70551715D01*
X55635907Y-71120000D01*
X55748946Y-71688285D01*
X56070853Y-72170054D01*
X56400026Y-72390000D01*
X56070853Y-72609946D01*
X55748946Y-73091715D01*
X55635907Y-73660000D01*
X55748946Y-74228285D01*
X55975640Y-74567558D01*
X55418599Y-75124599D01*
X55253852Y-75371161D01*
X55196000Y-75662000D01*
X55196000Y-81760800D01*
X55253852Y-82051639D01*
X55418599Y-82298201D01*
X55998551Y-82878153D01*
X55748946Y-83251715D01*
X55635907Y-83820000D01*
X55748946Y-84388285D01*
X56070853Y-84870054D01*
X56400026Y-85090000D01*
X56070853Y-85309946D01*
X55748946Y-85791715D01*
X55635907Y-86360000D01*
X55748946Y-86928285D01*
X56070853Y-87410054D01*
X56400026Y-87630000D01*
X56070853Y-87849946D01*
X55748946Y-88331715D01*
X55635907Y-88900000D01*
X55748946Y-89468285D01*
X56070853Y-89950054D01*
X56411553Y-90177702D01*
X56268642Y-90244817D01*
X55878355Y-90673076D01*
X55708524Y-91083110D01*
X55829845Y-91313000D01*
X57023000Y-91313000D01*
X57023000Y-91293000D01*
X57277000Y-91293000D01*
X57277000Y-91313000D01*
X57297000Y-91313000D01*
X57297000Y-91567000D01*
X57277000Y-91567000D01*
X57277000Y-91587000D01*
X57023000Y-91587000D01*
X57023000Y-91567000D01*
X55829845Y-91567000D01*
X55708524Y-91796890D01*
X55878355Y-92206924D01*
X56268642Y-92635183D01*
X56411553Y-92702298D01*
X56070853Y-92929946D01*
X55748946Y-93411715D01*
X55635907Y-93980000D01*
X55748946Y-94548285D01*
X56070853Y-95030054D01*
X56552622Y-95351961D01*
X57120907Y-95465000D01*
X57179093Y-95465000D01*
X57747378Y-95351961D01*
X58229147Y-95030054D01*
X58420000Y-94744422D01*
X58610853Y-95030054D01*
X59092622Y-95351961D01*
X59660907Y-95465000D01*
X59719093Y-95465000D01*
X60287378Y-95351961D01*
X60769147Y-95030054D01*
X61091054Y-94548285D01*
X61204093Y-93980000D01*
X61091054Y-93411715D01*
X60769147Y-92929946D01*
X60439974Y-92710000D01*
X60769147Y-92490054D01*
X61091054Y-92008285D01*
X61180269Y-91559771D01*
X65032750Y-95412252D01*
X64989946Y-95440853D01*
X64668039Y-95922622D01*
X64555000Y-96490907D01*
X64555000Y-96549093D01*
X64668039Y-97117378D01*
X64989946Y-97599147D01*
X65471715Y-97921054D01*
X66040000Y-98034093D01*
X66608285Y-97921054D01*
X66945000Y-97696069D01*
X66945000Y-111395000D01*
X59097240Y-111395000D01*
X54975000Y-107272760D01*
X54975000Y-60367240D01*
X56769000Y-58573240D01*
X70471880Y-72276120D01*
X71002312Y-72630543D01*
X71628000Y-72755001D01*
X71628005Y-72755000D01*
X76200000Y-72755000D01*
X76825687Y-72630543D01*
X76845297Y-72617440D01*
X77050000Y-72617440D01*
X77285317Y-72573162D01*
X77501441Y-72434090D01*
X77646431Y-72221890D01*
X77697440Y-71970000D01*
X77697440Y-71765297D01*
X77710543Y-71745687D01*
X77835000Y-71120000D01*
X77710543Y-70494313D01*
X77697440Y-70474703D01*
X77697440Y-70270000D01*
X77653162Y-70034683D01*
X77514090Y-69818559D01*
X77301890Y-69673569D01*
X77234459Y-69659914D01*
X77279147Y-69630054D01*
X77601054Y-69148285D01*
X77714093Y-68580000D01*
X77601054Y-68011715D01*
X77279147Y-67529946D01*
X77201463Y-67478039D01*
X77971811Y-66707691D01*
X94498000Y-66707691D01*
X94498000Y-67298250D01*
X94656750Y-67457000D01*
X95631000Y-67457000D01*
X95631000Y-66357750D01*
X95885000Y-66357750D01*
X95885000Y-67457000D01*
X96859250Y-67457000D01*
X97018000Y-67298250D01*
X97018000Y-66707691D01*
X96921327Y-66474302D01*
X96742699Y-66295673D01*
X96509310Y-66199000D01*
X96043750Y-66199000D01*
X95885000Y-66357750D01*
X95631000Y-66357750D01*
X95472250Y-66199000D01*
X95006690Y-66199000D01*
X94773301Y-66295673D01*
X94594673Y-66474302D01*
X94498000Y-66707691D01*
X77971811Y-66707691D01*
X84357401Y-60322101D01*
X84522148Y-60075540D01*
X84580000Y-59784700D01*
X84580000Y-45722954D01*
X84870054Y-45529147D01*
X85090000Y-45199974D01*
X85309946Y-45529147D01*
X85791715Y-45851054D01*
X86360000Y-45964093D01*
X86928285Y-45851054D01*
X87410054Y-45529147D01*
X87630000Y-45199974D01*
X87849946Y-45529147D01*
G36*
X92869000Y-78750690D02*
X92869000Y-79216250D01*
X93027750Y-79375000D01*
X94127000Y-79375000D01*
X94127000Y-79355000D01*
X94381000Y-79355000D01*
X94381000Y-79375000D01*
X94401000Y-79375000D01*
X94401000Y-79629000D01*
X94381000Y-79629000D01*
X94381000Y-80603250D01*
X94539750Y-80762000D01*
X95130309Y-80762000D01*
X95363698Y-80665327D01*
X95504936Y-80524090D01*
X95539910Y-80578441D01*
X95752110Y-80723431D01*
X96004000Y-80774440D01*
X96462958Y-80774440D01*
X95944198Y-81293200D01*
X85477100Y-81293200D01*
X85186261Y-81351052D01*
X84939699Y-81515799D01*
X84939498Y-81516100D01*
X83779720Y-82675878D01*
X83734233Y-82675838D01*
X83390457Y-82817883D01*
X83127208Y-83080673D01*
X82984562Y-83424201D01*
X82984238Y-83796167D01*
X83126283Y-84139943D01*
X83324846Y-84338852D01*
X80698998Y-86964700D01*
X77811981Y-86964700D01*
X77912701Y-86897401D01*
X85022352Y-79787750D01*
X92869000Y-79787750D01*
X92869000Y-80253310D01*
X92965673Y-80486699D01*
X93144302Y-80665327D01*
X93377691Y-80762000D01*
X93968250Y-80762000D01*
X94127000Y-80603250D01*
X94127000Y-79629000D01*
X93027750Y-79629000D01*
X92869000Y-79787750D01*
X85022352Y-79787750D01*
X86195102Y-78615000D01*
X92925205Y-78615000D01*
X92869000Y-78750690D01*
X92869000Y-78750690D01*
G37*
X92869000Y-78750690D02*
X92869000Y-79216250D01*
X93027750Y-79375000D01*
X94127000Y-79375000D01*
X94127000Y-79355000D01*
X94381000Y-79355000D01*
X94381000Y-79375000D01*
X94401000Y-79375000D01*
X94401000Y-79629000D01*
X94381000Y-79629000D01*
X94381000Y-80603250D01*
X94539750Y-80762000D01*
X95130309Y-80762000D01*
X95363698Y-80665327D01*
X95504936Y-80524090D01*
X95539910Y-80578441D01*
X95752110Y-80723431D01*
X96004000Y-80774440D01*
X96462958Y-80774440D01*
X95944198Y-81293200D01*
X85477100Y-81293200D01*
X85186261Y-81351052D01*
X84939699Y-81515799D01*
X84939498Y-81516100D01*
X83779720Y-82675878D01*
X83734233Y-82675838D01*
X83390457Y-82817883D01*
X83127208Y-83080673D01*
X82984562Y-83424201D01*
X82984238Y-83796167D01*
X83126283Y-84139943D01*
X83324846Y-84338852D01*
X80698998Y-86964700D01*
X77811981Y-86964700D01*
X77912701Y-86897401D01*
X85022352Y-79787750D01*
X92869000Y-79787750D01*
X92869000Y-80253310D01*
X92965673Y-80486699D01*
X93144302Y-80665327D01*
X93377691Y-80762000D01*
X93968250Y-80762000D01*
X94127000Y-80603250D01*
X94127000Y-79629000D01*
X93027750Y-79629000D01*
X92869000Y-79787750D01*
X85022352Y-79787750D01*
X86195102Y-78615000D01*
X92925205Y-78615000D01*
X92869000Y-78750690D01*
G36*
X88709750Y-73279000D02*
X89809000Y-73279000D01*
X89809000Y-73259000D01*
X90063000Y-73259000D01*
X90063000Y-73279000D01*
X90083000Y-73279000D01*
X90083000Y-73533000D01*
X90063000Y-73533000D01*
X90063000Y-74507250D01*
X90221750Y-74666000D01*
X90812309Y-74666000D01*
X91045698Y-74569327D01*
X91186936Y-74428090D01*
X91221910Y-74482441D01*
X91434110Y-74627431D01*
X91673509Y-74675910D01*
X91450683Y-74717838D01*
X91234559Y-74856910D01*
X91188031Y-74925006D01*
X91045698Y-74782673D01*
X90812309Y-74686000D01*
X90221750Y-74686000D01*
X90063000Y-74844750D01*
X90063000Y-75819000D01*
X90083000Y-75819000D01*
X90083000Y-76073000D01*
X90063000Y-76073000D01*
X90063000Y-76093000D01*
X89809000Y-76093000D01*
X89809000Y-76073000D01*
X88709750Y-76073000D01*
X88551000Y-76231750D01*
X88551000Y-76595000D01*
X83840300Y-76595000D01*
X83549461Y-76652852D01*
X83302899Y-76817599D01*
X77548486Y-82572012D01*
X77532985Y-82547923D01*
X77646431Y-82381890D01*
X77697440Y-82130000D01*
X77697440Y-81961233D01*
X77912701Y-81817401D01*
X84535412Y-75194690D01*
X88551000Y-75194690D01*
X88551000Y-75660250D01*
X88709750Y-75819000D01*
X89809000Y-75819000D01*
X89809000Y-74844750D01*
X89650250Y-74686000D01*
X89059691Y-74686000D01*
X88826302Y-74782673D01*
X88647673Y-74961301D01*
X88551000Y-75194690D01*
X84535412Y-75194690D01*
X86038352Y-73691750D01*
X88551000Y-73691750D01*
X88551000Y-74157310D01*
X88647673Y-74390699D01*
X88826302Y-74569327D01*
X89059691Y-74666000D01*
X89650250Y-74666000D01*
X89809000Y-74507250D01*
X89809000Y-73533000D01*
X88709750Y-73533000D01*
X88551000Y-73691750D01*
X86038352Y-73691750D01*
X86524702Y-73205400D01*
X88636150Y-73205400D01*
X88709750Y-73279000D01*
X88709750Y-73279000D01*
G37*
X88709750Y-73279000D02*
X89809000Y-73279000D01*
X89809000Y-73259000D01*
X90063000Y-73259000D01*
X90063000Y-73279000D01*
X90083000Y-73279000D01*
X90083000Y-73533000D01*
X90063000Y-73533000D01*
X90063000Y-74507250D01*
X90221750Y-74666000D01*
X90812309Y-74666000D01*
X91045698Y-74569327D01*
X91186936Y-74428090D01*
X91221910Y-74482441D01*
X91434110Y-74627431D01*
X91673509Y-74675910D01*
X91450683Y-74717838D01*
X91234559Y-74856910D01*
X91188031Y-74925006D01*
X91045698Y-74782673D01*
X90812309Y-74686000D01*
X90221750Y-74686000D01*
X90063000Y-74844750D01*
X90063000Y-75819000D01*
X90083000Y-75819000D01*
X90083000Y-76073000D01*
X90063000Y-76073000D01*
X90063000Y-76093000D01*
X89809000Y-76093000D01*
X89809000Y-76073000D01*
X88709750Y-76073000D01*
X88551000Y-76231750D01*
X88551000Y-76595000D01*
X83840300Y-76595000D01*
X83549461Y-76652852D01*
X83302899Y-76817599D01*
X77548486Y-82572012D01*
X77532985Y-82547923D01*
X77646431Y-82381890D01*
X77697440Y-82130000D01*
X77697440Y-81961233D01*
X77912701Y-81817401D01*
X84535412Y-75194690D01*
X88551000Y-75194690D01*
X88551000Y-75660250D01*
X88709750Y-75819000D01*
X89809000Y-75819000D01*
X89809000Y-74844750D01*
X89650250Y-74686000D01*
X89059691Y-74686000D01*
X88826302Y-74782673D01*
X88647673Y-74961301D01*
X88551000Y-75194690D01*
X84535412Y-75194690D01*
X86038352Y-73691750D01*
X88551000Y-73691750D01*
X88551000Y-74157310D01*
X88647673Y-74390699D01*
X88826302Y-74569327D01*
X89059691Y-74666000D01*
X89650250Y-74666000D01*
X89809000Y-74507250D01*
X89809000Y-73533000D01*
X88709750Y-73533000D01*
X88551000Y-73691750D01*
X86038352Y-73691750D01*
X86524702Y-73205400D01*
X88636150Y-73205400D01*
X88709750Y-73279000D01*
G36*
X114217374Y-74272376D02*
X114153000Y-74336750D01*
X114153000Y-75311000D01*
X114173000Y-75311000D01*
X114173000Y-75565000D01*
X114153000Y-75565000D01*
X114153000Y-75585000D01*
X113899000Y-75585000D01*
X113899000Y-75565000D01*
X113879000Y-75565000D01*
X113879000Y-75311000D01*
X113899000Y-75311000D01*
X113899000Y-74336750D01*
X113740250Y-74178000D01*
X113149691Y-74178000D01*
X112916302Y-74274673D01*
X112775064Y-74415910D01*
X112740090Y-74361559D01*
X112527890Y-74216569D01*
X112276000Y-74165560D01*
X110956342Y-74165560D01*
X111076502Y-74045400D01*
X113990398Y-74045400D01*
X114217374Y-74272376D01*
X114217374Y-74272376D01*
G37*
X114217374Y-74272376D02*
X114153000Y-74336750D01*
X114153000Y-75311000D01*
X114173000Y-75311000D01*
X114173000Y-75565000D01*
X114153000Y-75565000D01*
X114153000Y-75585000D01*
X113899000Y-75585000D01*
X113899000Y-75565000D01*
X113879000Y-75565000D01*
X113879000Y-75311000D01*
X113899000Y-75311000D01*
X113899000Y-74336750D01*
X113740250Y-74178000D01*
X113149691Y-74178000D01*
X112916302Y-74274673D01*
X112775064Y-74415910D01*
X112740090Y-74361559D01*
X112527890Y-74216569D01*
X112276000Y-74165560D01*
X110956342Y-74165560D01*
X111076502Y-74045400D01*
X113990398Y-74045400D01*
X114217374Y-74272376D01*
G36*
X89410000Y-40497352D02*
X88900000Y-40395907D01*
X88331715Y-40508946D01*
X87849946Y-40830853D01*
X87630000Y-41160026D01*
X87410054Y-40830853D01*
X86928285Y-40508946D01*
X86360000Y-40395907D01*
X85791715Y-40508946D01*
X85309946Y-40830853D01*
X85280597Y-40874777D01*
X85208327Y-40700302D01*
X85029699Y-40521673D01*
X84796310Y-40425000D01*
X84105750Y-40425000D01*
X83947000Y-40583750D01*
X83947000Y-41783000D01*
X83967000Y-41783000D01*
X83967000Y-42037000D01*
X83947000Y-42037000D01*
X83947000Y-42057000D01*
X83693000Y-42057000D01*
X83693000Y-42037000D01*
X82493750Y-42037000D01*
X82335000Y-42195750D01*
X82335000Y-42886309D01*
X82431673Y-43119698D01*
X82610301Y-43298327D01*
X82775858Y-43366903D01*
X82769946Y-43370853D01*
X82448039Y-43852622D01*
X82335000Y-44420907D01*
X82335000Y-44479093D01*
X82448039Y-45047378D01*
X82769946Y-45529147D01*
X83060000Y-45722954D01*
X83060000Y-59469898D01*
X75662599Y-66867299D01*
X75497852Y-67113861D01*
X75460188Y-67303210D01*
X75120853Y-67529946D01*
X74798946Y-68011715D01*
X74685907Y-68580000D01*
X74798946Y-69148285D01*
X75023931Y-69485000D01*
X72305240Y-69485000D01*
X59081240Y-56261000D01*
X74408548Y-40933691D01*
X82335000Y-40933691D01*
X82335000Y-41624250D01*
X82493750Y-41783000D01*
X83693000Y-41783000D01*
X83693000Y-40583750D01*
X83534250Y-40425000D01*
X82843690Y-40425000D01*
X82610301Y-40521673D01*
X82431673Y-40700302D01*
X82335000Y-40933691D01*
X74408548Y-40933691D01*
X75607239Y-39735000D01*
X89410000Y-39735000D01*
X89410000Y-40497352D01*
X89410000Y-40497352D01*
G37*
X89410000Y-40497352D02*
X88900000Y-40395907D01*
X88331715Y-40508946D01*
X87849946Y-40830853D01*
X87630000Y-41160026D01*
X87410054Y-40830853D01*
X86928285Y-40508946D01*
X86360000Y-40395907D01*
X85791715Y-40508946D01*
X85309946Y-40830853D01*
X85280597Y-40874777D01*
X85208327Y-40700302D01*
X85029699Y-40521673D01*
X84796310Y-40425000D01*
X84105750Y-40425000D01*
X83947000Y-40583750D01*
X83947000Y-41783000D01*
X83967000Y-41783000D01*
X83967000Y-42037000D01*
X83947000Y-42037000D01*
X83947000Y-42057000D01*
X83693000Y-42057000D01*
X83693000Y-42037000D01*
X82493750Y-42037000D01*
X82335000Y-42195750D01*
X82335000Y-42886309D01*
X82431673Y-43119698D01*
X82610301Y-43298327D01*
X82775858Y-43366903D01*
X82769946Y-43370853D01*
X82448039Y-43852622D01*
X82335000Y-44420907D01*
X82335000Y-44479093D01*
X82448039Y-45047378D01*
X82769946Y-45529147D01*
X83060000Y-45722954D01*
X83060000Y-59469898D01*
X75662599Y-66867299D01*
X75497852Y-67113861D01*
X75460188Y-67303210D01*
X75120853Y-67529946D01*
X74798946Y-68011715D01*
X74685907Y-68580000D01*
X74798946Y-69148285D01*
X75023931Y-69485000D01*
X72305240Y-69485000D01*
X59081240Y-56261000D01*
X74408548Y-40933691D01*
X82335000Y-40933691D01*
X82335000Y-41624250D01*
X82493750Y-41783000D01*
X83693000Y-41783000D01*
X83693000Y-40583750D01*
X83534250Y-40425000D01*
X82843690Y-40425000D01*
X82610301Y-40521673D01*
X82431673Y-40700302D01*
X82335000Y-40933691D01*
X74408548Y-40933691D01*
X75607239Y-39735000D01*
X89410000Y-39735000D01*
X89410000Y-40497352D01*
G36*
X95418110Y-59866431D02*
X95670000Y-59917440D01*
X97306438Y-59917440D01*
X97521699Y-60132701D01*
X97768261Y-60297448D01*
X98059100Y-60355300D01*
X98108298Y-60355300D01*
X101057998Y-63305000D01*
X100823690Y-63305000D01*
X100590301Y-63401673D01*
X100411673Y-63580302D01*
X100315000Y-63813691D01*
X100315000Y-64404250D01*
X100473750Y-64563000D01*
X101473000Y-64563000D01*
X101473000Y-64543000D01*
X101727000Y-64543000D01*
X101727000Y-64563000D01*
X101747000Y-64563000D01*
X101747000Y-64817000D01*
X101727000Y-64817000D01*
X101727000Y-64837000D01*
X101473000Y-64837000D01*
X101473000Y-64817000D01*
X100473750Y-64817000D01*
X100315000Y-64975750D01*
X100315000Y-65566309D01*
X100411673Y-65799698D01*
X100590301Y-65978327D01*
X100726287Y-66034654D01*
X100714683Y-66036838D01*
X100498559Y-66175910D01*
X100353569Y-66388110D01*
X100302560Y-66640000D01*
X100302560Y-67166958D01*
X93033500Y-59897898D01*
X93130000Y-59917440D01*
X94830000Y-59917440D01*
X95065317Y-59873162D01*
X95252077Y-59752985D01*
X95418110Y-59866431D01*
X95418110Y-59866431D01*
G37*
X95418110Y-59866431D02*
X95670000Y-59917440D01*
X97306438Y-59917440D01*
X97521699Y-60132701D01*
X97768261Y-60297448D01*
X98059100Y-60355300D01*
X98108298Y-60355300D01*
X101057998Y-63305000D01*
X100823690Y-63305000D01*
X100590301Y-63401673D01*
X100411673Y-63580302D01*
X100315000Y-63813691D01*
X100315000Y-64404250D01*
X100473750Y-64563000D01*
X101473000Y-64563000D01*
X101473000Y-64543000D01*
X101727000Y-64543000D01*
X101727000Y-64563000D01*
X101747000Y-64563000D01*
X101747000Y-64817000D01*
X101727000Y-64817000D01*
X101727000Y-64837000D01*
X101473000Y-64837000D01*
X101473000Y-64817000D01*
X100473750Y-64817000D01*
X100315000Y-64975750D01*
X100315000Y-65566309D01*
X100411673Y-65799698D01*
X100590301Y-65978327D01*
X100726287Y-66034654D01*
X100714683Y-66036838D01*
X100498559Y-66175910D01*
X100353569Y-66388110D01*
X100302560Y-66640000D01*
X100302560Y-67166958D01*
X93033500Y-59897898D01*
X93130000Y-59917440D01*
X94830000Y-59917440D01*
X95065317Y-59873162D01*
X95252077Y-59752985D01*
X95418110Y-59866431D01*
M02*
