G04 #@! TF.FileFunction,Legend,Top*
%FSLAX46Y46*%
G04 Gerber Fmt 4.6, Leading zero omitted, Abs format (unit mm)*
G04 Created by KiCad (PCBNEW 4.0.6) date Sun Jun 18 22:19:01 2017*
%MOMM*%
%LPD*%
G01*
G04 APERTURE LIST*
%ADD10C,0.100000*%
%ADD11C,0.300000*%
%ADD12C,0.120000*%
%ADD13C,0.150000*%
%ADD14C,0.010000*%
G04 APERTURE END LIST*
D10*
D11*
X124362287Y-133266571D02*
X124219429Y-133195143D01*
X124148001Y-133123714D01*
X124076572Y-132980857D01*
X124076572Y-132552286D01*
X124148001Y-132409429D01*
X124219429Y-132338000D01*
X124362287Y-132266571D01*
X124576572Y-132266571D01*
X124719429Y-132338000D01*
X124790858Y-132409429D01*
X124862287Y-132552286D01*
X124862287Y-132980857D01*
X124790858Y-133123714D01*
X124719429Y-133195143D01*
X124576572Y-133266571D01*
X124362287Y-133266571D01*
X125505144Y-132266571D02*
X125505144Y-133766571D01*
X125505144Y-132338000D02*
X125648001Y-132266571D01*
X125933715Y-132266571D01*
X126076572Y-132338000D01*
X126148001Y-132409429D01*
X126219430Y-132552286D01*
X126219430Y-132980857D01*
X126148001Y-133123714D01*
X126076572Y-133195143D01*
X125933715Y-133266571D01*
X125648001Y-133266571D01*
X125505144Y-133195143D01*
X127433715Y-133195143D02*
X127290858Y-133266571D01*
X127005144Y-133266571D01*
X126862287Y-133195143D01*
X126790858Y-133052286D01*
X126790858Y-132480857D01*
X126862287Y-132338000D01*
X127005144Y-132266571D01*
X127290858Y-132266571D01*
X127433715Y-132338000D01*
X127505144Y-132480857D01*
X127505144Y-132623714D01*
X126790858Y-132766571D01*
X128148001Y-132266571D02*
X128148001Y-133266571D01*
X128148001Y-132409429D02*
X128219429Y-132338000D01*
X128362287Y-132266571D01*
X128576572Y-132266571D01*
X128719429Y-132338000D01*
X128790858Y-132480857D01*
X128790858Y-133266571D01*
X130576572Y-133195143D02*
X130719429Y-133266571D01*
X131005144Y-133266571D01*
X131148001Y-133195143D01*
X131219429Y-133052286D01*
X131219429Y-132980857D01*
X131148001Y-132838000D01*
X131005144Y-132766571D01*
X130790858Y-132766571D01*
X130648001Y-132695143D01*
X130576572Y-132552286D01*
X130576572Y-132480857D01*
X130648001Y-132338000D01*
X130790858Y-132266571D01*
X131005144Y-132266571D01*
X131148001Y-132338000D01*
X132076573Y-133266571D02*
X131933715Y-133195143D01*
X131862287Y-133123714D01*
X131790858Y-132980857D01*
X131790858Y-132552286D01*
X131862287Y-132409429D01*
X131933715Y-132338000D01*
X132076573Y-132266571D01*
X132290858Y-132266571D01*
X132433715Y-132338000D01*
X132505144Y-132409429D01*
X132576573Y-132552286D01*
X132576573Y-132980857D01*
X132505144Y-133123714D01*
X132433715Y-133195143D01*
X132290858Y-133266571D01*
X132076573Y-133266571D01*
X133862287Y-132266571D02*
X133862287Y-133266571D01*
X133219430Y-132266571D02*
X133219430Y-133052286D01*
X133290858Y-133195143D01*
X133433716Y-133266571D01*
X133648001Y-133266571D01*
X133790858Y-133195143D01*
X133862287Y-133123714D01*
X134576573Y-133266571D02*
X134576573Y-132266571D01*
X134576573Y-132552286D02*
X134648001Y-132409429D01*
X134719430Y-132338000D01*
X134862287Y-132266571D01*
X135005144Y-132266571D01*
X136148001Y-133195143D02*
X136005144Y-133266571D01*
X135719430Y-133266571D01*
X135576572Y-133195143D01*
X135505144Y-133123714D01*
X135433715Y-132980857D01*
X135433715Y-132552286D01*
X135505144Y-132409429D01*
X135576572Y-132338000D01*
X135719430Y-132266571D01*
X136005144Y-132266571D01*
X136148001Y-132338000D01*
X137362286Y-133195143D02*
X137219429Y-133266571D01*
X136933715Y-133266571D01*
X136790858Y-133195143D01*
X136719429Y-133052286D01*
X136719429Y-132480857D01*
X136790858Y-132338000D01*
X136933715Y-132266571D01*
X137219429Y-132266571D01*
X137362286Y-132338000D01*
X137433715Y-132480857D01*
X137433715Y-132623714D01*
X136719429Y-132766571D01*
X139219429Y-133266571D02*
X139219429Y-131766571D01*
X139862286Y-133266571D02*
X139862286Y-132480857D01*
X139790857Y-132338000D01*
X139648000Y-132266571D01*
X139433715Y-132266571D01*
X139290857Y-132338000D01*
X139219429Y-132409429D01*
X141219429Y-133266571D02*
X141219429Y-132480857D01*
X141148000Y-132338000D01*
X141005143Y-132266571D01*
X140719429Y-132266571D01*
X140576572Y-132338000D01*
X141219429Y-133195143D02*
X141076572Y-133266571D01*
X140719429Y-133266571D01*
X140576572Y-133195143D01*
X140505143Y-133052286D01*
X140505143Y-132909429D01*
X140576572Y-132766571D01*
X140719429Y-132695143D01*
X141076572Y-132695143D01*
X141219429Y-132623714D01*
X141933715Y-133266571D02*
X141933715Y-132266571D01*
X141933715Y-132552286D02*
X142005143Y-132409429D01*
X142076572Y-132338000D01*
X142219429Y-132266571D01*
X142362286Y-132266571D01*
X143505143Y-133266571D02*
X143505143Y-131766571D01*
X143505143Y-133195143D02*
X143362286Y-133266571D01*
X143076572Y-133266571D01*
X142933714Y-133195143D01*
X142862286Y-133123714D01*
X142790857Y-132980857D01*
X142790857Y-132552286D01*
X142862286Y-132409429D01*
X142933714Y-132338000D01*
X143076572Y-132266571D01*
X143362286Y-132266571D01*
X143505143Y-132338000D01*
X144076572Y-132266571D02*
X144362286Y-133266571D01*
X144648000Y-132552286D01*
X144933715Y-133266571D01*
X145219429Y-132266571D01*
X146433715Y-133266571D02*
X146433715Y-132480857D01*
X146362286Y-132338000D01*
X146219429Y-132266571D01*
X145933715Y-132266571D01*
X145790858Y-132338000D01*
X146433715Y-133195143D02*
X146290858Y-133266571D01*
X145933715Y-133266571D01*
X145790858Y-133195143D01*
X145719429Y-133052286D01*
X145719429Y-132909429D01*
X145790858Y-132766571D01*
X145933715Y-132695143D01*
X146290858Y-132695143D01*
X146433715Y-132623714D01*
X147148001Y-133266571D02*
X147148001Y-132266571D01*
X147148001Y-132552286D02*
X147219429Y-132409429D01*
X147290858Y-132338000D01*
X147433715Y-132266571D01*
X147576572Y-132266571D01*
X148648000Y-133195143D02*
X148505143Y-133266571D01*
X148219429Y-133266571D01*
X148076572Y-133195143D01*
X148005143Y-133052286D01*
X148005143Y-132480857D01*
X148076572Y-132338000D01*
X148219429Y-132266571D01*
X148505143Y-132266571D01*
X148648000Y-132338000D01*
X148719429Y-132480857D01*
X148719429Y-132623714D01*
X148005143Y-132766571D01*
X117076000Y-112870143D02*
X116933143Y-112941571D01*
X116647429Y-112941571D01*
X116504572Y-112870143D01*
X116433143Y-112727286D01*
X116433143Y-112155857D01*
X116504572Y-112013000D01*
X116647429Y-111941571D01*
X116933143Y-111941571D01*
X117076000Y-112013000D01*
X117147429Y-112155857D01*
X117147429Y-112298714D01*
X116433143Y-112441571D01*
X117790286Y-112370143D02*
X118933143Y-112370143D01*
X119647429Y-111941571D02*
X119647429Y-113441571D01*
X119647429Y-112013000D02*
X119790286Y-111941571D01*
X120076000Y-111941571D01*
X120218857Y-112013000D01*
X120290286Y-112084429D01*
X120361715Y-112227286D01*
X120361715Y-112655857D01*
X120290286Y-112798714D01*
X120218857Y-112870143D01*
X120076000Y-112941571D01*
X119790286Y-112941571D01*
X119647429Y-112870143D01*
X121647429Y-112941571D02*
X121647429Y-112155857D01*
X121576000Y-112013000D01*
X121433143Y-111941571D01*
X121147429Y-111941571D01*
X121004572Y-112013000D01*
X121647429Y-112870143D02*
X121504572Y-112941571D01*
X121147429Y-112941571D01*
X121004572Y-112870143D01*
X120933143Y-112727286D01*
X120933143Y-112584429D01*
X121004572Y-112441571D01*
X121147429Y-112370143D01*
X121504572Y-112370143D01*
X121647429Y-112298714D01*
X122361715Y-111941571D02*
X122361715Y-113441571D01*
X122361715Y-112013000D02*
X122504572Y-111941571D01*
X122790286Y-111941571D01*
X122933143Y-112013000D01*
X123004572Y-112084429D01*
X123076001Y-112227286D01*
X123076001Y-112655857D01*
X123004572Y-112798714D01*
X122933143Y-112870143D01*
X122790286Y-112941571D01*
X122504572Y-112941571D01*
X122361715Y-112870143D01*
X124290286Y-112870143D02*
X124147429Y-112941571D01*
X123861715Y-112941571D01*
X123718858Y-112870143D01*
X123647429Y-112727286D01*
X123647429Y-112155857D01*
X123718858Y-112013000D01*
X123861715Y-111941571D01*
X124147429Y-111941571D01*
X124290286Y-112013000D01*
X124361715Y-112155857D01*
X124361715Y-112298714D01*
X123647429Y-112441571D01*
X125004572Y-112941571D02*
X125004572Y-111941571D01*
X125004572Y-112227286D02*
X125076000Y-112084429D01*
X125147429Y-112013000D01*
X125290286Y-111941571D01*
X125433143Y-111941571D01*
X127718857Y-112941571D02*
X127718857Y-111441571D01*
X127718857Y-112870143D02*
X127576000Y-112941571D01*
X127290286Y-112941571D01*
X127147428Y-112870143D01*
X127076000Y-112798714D01*
X127004571Y-112655857D01*
X127004571Y-112227286D01*
X127076000Y-112084429D01*
X127147428Y-112013000D01*
X127290286Y-111941571D01*
X127576000Y-111941571D01*
X127718857Y-112013000D01*
X128433143Y-112941571D02*
X128433143Y-111941571D01*
X128433143Y-111441571D02*
X128361714Y-111513000D01*
X128433143Y-111584429D01*
X128504571Y-111513000D01*
X128433143Y-111441571D01*
X128433143Y-111584429D01*
X129076000Y-112870143D02*
X129218857Y-112941571D01*
X129504572Y-112941571D01*
X129647429Y-112870143D01*
X129718857Y-112727286D01*
X129718857Y-112655857D01*
X129647429Y-112513000D01*
X129504572Y-112441571D01*
X129290286Y-112441571D01*
X129147429Y-112370143D01*
X129076000Y-112227286D01*
X129076000Y-112155857D01*
X129147429Y-112013000D01*
X129290286Y-111941571D01*
X129504572Y-111941571D01*
X129647429Y-112013000D01*
X130361715Y-111941571D02*
X130361715Y-113441571D01*
X130361715Y-112013000D02*
X130504572Y-111941571D01*
X130790286Y-111941571D01*
X130933143Y-112013000D01*
X131004572Y-112084429D01*
X131076001Y-112227286D01*
X131076001Y-112655857D01*
X131004572Y-112798714D01*
X130933143Y-112870143D01*
X130790286Y-112941571D01*
X130504572Y-112941571D01*
X130361715Y-112870143D01*
X131933144Y-112941571D02*
X131790286Y-112870143D01*
X131718858Y-112727286D01*
X131718858Y-111441571D01*
X133147429Y-112941571D02*
X133147429Y-112155857D01*
X133076000Y-112013000D01*
X132933143Y-111941571D01*
X132647429Y-111941571D01*
X132504572Y-112013000D01*
X133147429Y-112870143D02*
X133004572Y-112941571D01*
X132647429Y-112941571D01*
X132504572Y-112870143D01*
X132433143Y-112727286D01*
X132433143Y-112584429D01*
X132504572Y-112441571D01*
X132647429Y-112370143D01*
X133004572Y-112370143D01*
X133147429Y-112298714D01*
X133718858Y-111941571D02*
X134076001Y-112941571D01*
X134433143Y-111941571D02*
X134076001Y-112941571D01*
X133933143Y-113298714D01*
X133861715Y-113370143D01*
X133718858Y-113441571D01*
X135933143Y-111941571D02*
X136504572Y-111941571D01*
X136147429Y-111441571D02*
X136147429Y-112727286D01*
X136218857Y-112870143D01*
X136361715Y-112941571D01*
X136504572Y-112941571D01*
X137576000Y-112870143D02*
X137433143Y-112941571D01*
X137147429Y-112941571D01*
X137004572Y-112870143D01*
X136933143Y-112727286D01*
X136933143Y-112155857D01*
X137004572Y-112013000D01*
X137147429Y-111941571D01*
X137433143Y-111941571D01*
X137576000Y-112013000D01*
X137647429Y-112155857D01*
X137647429Y-112298714D01*
X136933143Y-112441571D01*
X138218857Y-112870143D02*
X138361714Y-112941571D01*
X138647429Y-112941571D01*
X138790286Y-112870143D01*
X138861714Y-112727286D01*
X138861714Y-112655857D01*
X138790286Y-112513000D01*
X138647429Y-112441571D01*
X138433143Y-112441571D01*
X138290286Y-112370143D01*
X138218857Y-112227286D01*
X138218857Y-112155857D01*
X138290286Y-112013000D01*
X138433143Y-111941571D01*
X138647429Y-111941571D01*
X138790286Y-112013000D01*
X139290286Y-111941571D02*
X139861715Y-111941571D01*
X139504572Y-111441571D02*
X139504572Y-112727286D01*
X139576000Y-112870143D01*
X139718858Y-112941571D01*
X139861715Y-112941571D01*
X141504572Y-112941571D02*
X141504572Y-111441571D01*
X141504572Y-112013000D02*
X141647429Y-111941571D01*
X141933143Y-111941571D01*
X142076000Y-112013000D01*
X142147429Y-112084429D01*
X142218858Y-112227286D01*
X142218858Y-112655857D01*
X142147429Y-112798714D01*
X142076000Y-112870143D01*
X141933143Y-112941571D01*
X141647429Y-112941571D01*
X141504572Y-112870143D01*
X143076001Y-112941571D02*
X142933143Y-112870143D01*
X142861715Y-112798714D01*
X142790286Y-112655857D01*
X142790286Y-112227286D01*
X142861715Y-112084429D01*
X142933143Y-112013000D01*
X143076001Y-111941571D01*
X143290286Y-111941571D01*
X143433143Y-112013000D01*
X143504572Y-112084429D01*
X143576001Y-112227286D01*
X143576001Y-112655857D01*
X143504572Y-112798714D01*
X143433143Y-112870143D01*
X143290286Y-112941571D01*
X143076001Y-112941571D01*
X144861715Y-112941571D02*
X144861715Y-112155857D01*
X144790286Y-112013000D01*
X144647429Y-111941571D01*
X144361715Y-111941571D01*
X144218858Y-112013000D01*
X144861715Y-112870143D02*
X144718858Y-112941571D01*
X144361715Y-112941571D01*
X144218858Y-112870143D01*
X144147429Y-112727286D01*
X144147429Y-112584429D01*
X144218858Y-112441571D01*
X144361715Y-112370143D01*
X144718858Y-112370143D01*
X144861715Y-112298714D01*
X145576001Y-112941571D02*
X145576001Y-111941571D01*
X145576001Y-112227286D02*
X145647429Y-112084429D01*
X145718858Y-112013000D01*
X145861715Y-111941571D01*
X146004572Y-111941571D01*
X147147429Y-112941571D02*
X147147429Y-111441571D01*
X147147429Y-112870143D02*
X147004572Y-112941571D01*
X146718858Y-112941571D01*
X146576000Y-112870143D01*
X146504572Y-112798714D01*
X146433143Y-112655857D01*
X146433143Y-112227286D01*
X146504572Y-112084429D01*
X146576000Y-112013000D01*
X146718858Y-111941571D01*
X147004572Y-111941571D01*
X147147429Y-112013000D01*
X117361715Y-115420143D02*
X117218858Y-115491571D01*
X116933144Y-115491571D01*
X116790286Y-115420143D01*
X116718858Y-115348714D01*
X116647429Y-115205857D01*
X116647429Y-114777286D01*
X116718858Y-114634429D01*
X116790286Y-114563000D01*
X116933144Y-114491571D01*
X117218858Y-114491571D01*
X117361715Y-114563000D01*
X118218858Y-115491571D02*
X118076000Y-115420143D01*
X118004572Y-115348714D01*
X117933143Y-115205857D01*
X117933143Y-114777286D01*
X118004572Y-114634429D01*
X118076000Y-114563000D01*
X118218858Y-114491571D01*
X118433143Y-114491571D01*
X118576000Y-114563000D01*
X118647429Y-114634429D01*
X118718858Y-114777286D01*
X118718858Y-115205857D01*
X118647429Y-115348714D01*
X118576000Y-115420143D01*
X118433143Y-115491571D01*
X118218858Y-115491571D01*
X119361715Y-114491571D02*
X119361715Y-115991571D01*
X119361715Y-114563000D02*
X119504572Y-114491571D01*
X119790286Y-114491571D01*
X119933143Y-114563000D01*
X120004572Y-114634429D01*
X120076001Y-114777286D01*
X120076001Y-115205857D01*
X120004572Y-115348714D01*
X119933143Y-115420143D01*
X119790286Y-115491571D01*
X119504572Y-115491571D01*
X119361715Y-115420143D01*
X120576001Y-114491571D02*
X120933144Y-115491571D01*
X121290286Y-114491571D02*
X120933144Y-115491571D01*
X120790286Y-115848714D01*
X120718858Y-115920143D01*
X120576001Y-115991571D01*
X121861715Y-115491571D02*
X121861715Y-114491571D01*
X121861715Y-114777286D02*
X121933143Y-114634429D01*
X122004572Y-114563000D01*
X122147429Y-114491571D01*
X122290286Y-114491571D01*
X122790286Y-115491571D02*
X122790286Y-114491571D01*
X122790286Y-113991571D02*
X122718857Y-114063000D01*
X122790286Y-114134429D01*
X122861714Y-114063000D01*
X122790286Y-113991571D01*
X122790286Y-114134429D01*
X124147429Y-114491571D02*
X124147429Y-115705857D01*
X124076000Y-115848714D01*
X124004572Y-115920143D01*
X123861715Y-115991571D01*
X123647429Y-115991571D01*
X123504572Y-115920143D01*
X124147429Y-115420143D02*
X124004572Y-115491571D01*
X123718858Y-115491571D01*
X123576000Y-115420143D01*
X123504572Y-115348714D01*
X123433143Y-115205857D01*
X123433143Y-114777286D01*
X123504572Y-114634429D01*
X123576000Y-114563000D01*
X123718858Y-114491571D01*
X124004572Y-114491571D01*
X124147429Y-114563000D01*
X124861715Y-115491571D02*
X124861715Y-113991571D01*
X125504572Y-115491571D02*
X125504572Y-114705857D01*
X125433143Y-114563000D01*
X125290286Y-114491571D01*
X125076001Y-114491571D01*
X124933143Y-114563000D01*
X124861715Y-114634429D01*
X126004572Y-114491571D02*
X126576001Y-114491571D01*
X126218858Y-113991571D02*
X126218858Y-115277286D01*
X126290286Y-115420143D01*
X126433144Y-115491571D01*
X126576001Y-115491571D01*
X128147429Y-114134429D02*
X128218858Y-114063000D01*
X128361715Y-113991571D01*
X128718858Y-113991571D01*
X128861715Y-114063000D01*
X128933144Y-114134429D01*
X129004572Y-114277286D01*
X129004572Y-114420143D01*
X128933144Y-114634429D01*
X128076001Y-115491571D01*
X129004572Y-115491571D01*
X129933143Y-113991571D02*
X130076000Y-113991571D01*
X130218857Y-114063000D01*
X130290286Y-114134429D01*
X130361715Y-114277286D01*
X130433143Y-114563000D01*
X130433143Y-114920143D01*
X130361715Y-115205857D01*
X130290286Y-115348714D01*
X130218857Y-115420143D01*
X130076000Y-115491571D01*
X129933143Y-115491571D01*
X129790286Y-115420143D01*
X129718857Y-115348714D01*
X129647429Y-115205857D01*
X129576000Y-114920143D01*
X129576000Y-114563000D01*
X129647429Y-114277286D01*
X129718857Y-114134429D01*
X129790286Y-114063000D01*
X129933143Y-113991571D01*
X131861714Y-115491571D02*
X131004571Y-115491571D01*
X131433143Y-115491571D02*
X131433143Y-113991571D01*
X131290286Y-114205857D01*
X131147428Y-114348714D01*
X131004571Y-114420143D01*
X132361714Y-113991571D02*
X133361714Y-113991571D01*
X132718857Y-115491571D01*
X135575999Y-114705857D02*
X135075999Y-114705857D01*
X135075999Y-115491571D02*
X135075999Y-113991571D01*
X135790285Y-113991571D01*
X136361713Y-115491571D02*
X136361713Y-114491571D01*
X136361713Y-114777286D02*
X136433141Y-114634429D01*
X136504570Y-114563000D01*
X136647427Y-114491571D01*
X136790284Y-114491571D01*
X137933141Y-115491571D02*
X137933141Y-114705857D01*
X137861712Y-114563000D01*
X137718855Y-114491571D01*
X137433141Y-114491571D01*
X137290284Y-114563000D01*
X137933141Y-115420143D02*
X137790284Y-115491571D01*
X137433141Y-115491571D01*
X137290284Y-115420143D01*
X137218855Y-115277286D01*
X137218855Y-115134429D01*
X137290284Y-114991571D01*
X137433141Y-114920143D01*
X137790284Y-114920143D01*
X137933141Y-114848714D01*
X138647427Y-114491571D02*
X138647427Y-115491571D01*
X138647427Y-114634429D02*
X138718855Y-114563000D01*
X138861713Y-114491571D01*
X139075998Y-114491571D01*
X139218855Y-114563000D01*
X139290284Y-114705857D01*
X139290284Y-115491571D01*
X140004570Y-115491571D02*
X140004570Y-113991571D01*
X140147427Y-114920143D02*
X140575998Y-115491571D01*
X140575998Y-114491571D02*
X140004570Y-115063000D01*
X142861713Y-114705857D02*
X143075999Y-114777286D01*
X143147427Y-114848714D01*
X143218856Y-114991571D01*
X143218856Y-115205857D01*
X143147427Y-115348714D01*
X143075999Y-115420143D01*
X142933141Y-115491571D01*
X142361713Y-115491571D01*
X142361713Y-113991571D01*
X142861713Y-113991571D01*
X143004570Y-114063000D01*
X143075999Y-114134429D01*
X143147427Y-114277286D01*
X143147427Y-114420143D01*
X143075999Y-114563000D01*
X143004570Y-114634429D01*
X142861713Y-114705857D01*
X142361713Y-114705857D01*
X144504570Y-114491571D02*
X144504570Y-115491571D01*
X143861713Y-114491571D02*
X143861713Y-115277286D01*
X143933141Y-115420143D01*
X144075999Y-115491571D01*
X144290284Y-115491571D01*
X144433141Y-115420143D01*
X144504570Y-115348714D01*
X145147427Y-115420143D02*
X145290284Y-115491571D01*
X145575999Y-115491571D01*
X145718856Y-115420143D01*
X145790284Y-115277286D01*
X145790284Y-115205857D01*
X145718856Y-115063000D01*
X145575999Y-114991571D01*
X145361713Y-114991571D01*
X145218856Y-114920143D01*
X145147427Y-114777286D01*
X145147427Y-114705857D01*
X145218856Y-114563000D01*
X145361713Y-114491571D01*
X145575999Y-114491571D01*
X145718856Y-114563000D01*
X146361713Y-115420143D02*
X146504570Y-115491571D01*
X146790285Y-115491571D01*
X146933142Y-115420143D01*
X147004570Y-115277286D01*
X147004570Y-115205857D01*
X146933142Y-115063000D01*
X146790285Y-114991571D01*
X146575999Y-114991571D01*
X146433142Y-114920143D01*
X146361713Y-114777286D01*
X146361713Y-114705857D01*
X146433142Y-114563000D01*
X146575999Y-114491571D01*
X146790285Y-114491571D01*
X146933142Y-114563000D01*
D12*
X90686000Y-74256000D02*
X91686000Y-74256000D01*
X91686000Y-72556000D02*
X90686000Y-72556000D01*
X90686000Y-76796000D02*
X91686000Y-76796000D01*
X91686000Y-75096000D02*
X90686000Y-75096000D01*
X95004000Y-80352000D02*
X96004000Y-80352000D01*
X96004000Y-78652000D02*
X95004000Y-78652000D01*
X113276000Y-74588000D02*
X112276000Y-74588000D01*
X112276000Y-76288000D02*
X113276000Y-76288000D01*
X98210000Y-69604000D02*
X98210000Y-70604000D01*
X99910000Y-70604000D02*
X99910000Y-69604000D01*
X109054000Y-87368000D02*
X109054000Y-86368000D01*
X107354000Y-86368000D02*
X107354000Y-87368000D01*
X94908000Y-68334000D02*
X94908000Y-69334000D01*
X96608000Y-69334000D02*
X96608000Y-68334000D01*
X89302335Y-90361392D02*
G75*
G03X86070000Y-90204484I-1672335J-1078608D01*
G01*
X89302335Y-92518608D02*
G75*
G02X86070000Y-92675516I-1672335J1078608D01*
G01*
X88671130Y-90360163D02*
G75*
G03X86589039Y-90360000I-1041130J-1079837D01*
G01*
X88671130Y-92519837D02*
G75*
G02X86589039Y-92520000I-1041130J1079837D01*
G01*
X86070000Y-90204000D02*
X86070000Y-90360000D01*
X86070000Y-92520000D02*
X86070000Y-92676000D01*
X74870000Y-90170000D02*
X74870000Y-90230000D01*
X74870000Y-90230000D02*
X77530000Y-90230000D01*
X77530000Y-90230000D02*
X77530000Y-90170000D01*
X77530000Y-90170000D02*
X74870000Y-90170000D01*
X74870000Y-88900000D02*
X74870000Y-87570000D01*
X74870000Y-87570000D02*
X76200000Y-87570000D01*
X74870000Y-92710000D02*
X74870000Y-92770000D01*
X74870000Y-92770000D02*
X77530000Y-92770000D01*
X77530000Y-92770000D02*
X77530000Y-92710000D01*
X77530000Y-92710000D02*
X74870000Y-92710000D01*
X74870000Y-91440000D02*
X74870000Y-90110000D01*
X74870000Y-90110000D02*
X76200000Y-90110000D01*
X87570000Y-107950000D02*
X87570000Y-108010000D01*
X87570000Y-108010000D02*
X90230000Y-108010000D01*
X90230000Y-108010000D02*
X90230000Y-107950000D01*
X90230000Y-107950000D02*
X87570000Y-107950000D01*
X87570000Y-106680000D02*
X87570000Y-105350000D01*
X87570000Y-105350000D02*
X88900000Y-105350000D01*
X90110000Y-107950000D02*
X90110000Y-108010000D01*
X90110000Y-108010000D02*
X92770000Y-108010000D01*
X92770000Y-108010000D02*
X92770000Y-107950000D01*
X92770000Y-107950000D02*
X90110000Y-107950000D01*
X90110000Y-106680000D02*
X90110000Y-105350000D01*
X90110000Y-105350000D02*
X91440000Y-105350000D01*
X92650000Y-107950000D02*
X92650000Y-108010000D01*
X92650000Y-108010000D02*
X95310000Y-108010000D01*
X95310000Y-108010000D02*
X95310000Y-107950000D01*
X95310000Y-107950000D02*
X92650000Y-107950000D01*
X92650000Y-106680000D02*
X92650000Y-105350000D01*
X92650000Y-105350000D02*
X93980000Y-105350000D01*
X95190000Y-107950000D02*
X95190000Y-108010000D01*
X95190000Y-108010000D02*
X97850000Y-108010000D01*
X97850000Y-108010000D02*
X97850000Y-107950000D01*
X97850000Y-107950000D02*
X95190000Y-107950000D01*
X95190000Y-106680000D02*
X95190000Y-105350000D01*
X95190000Y-105350000D02*
X96520000Y-105350000D01*
X97730000Y-107950000D02*
X97730000Y-108010000D01*
X97730000Y-108010000D02*
X100390000Y-108010000D01*
X100390000Y-108010000D02*
X100390000Y-107950000D01*
X100390000Y-107950000D02*
X97730000Y-107950000D01*
X97730000Y-106680000D02*
X97730000Y-105350000D01*
X97730000Y-105350000D02*
X99060000Y-105350000D01*
X100270000Y-107950000D02*
X100270000Y-108010000D01*
X100270000Y-108010000D02*
X102930000Y-108010000D01*
X102930000Y-108010000D02*
X102930000Y-107950000D01*
X102930000Y-107950000D02*
X100270000Y-107950000D01*
X100270000Y-106680000D02*
X100270000Y-105350000D01*
X100270000Y-105350000D02*
X101600000Y-105350000D01*
X102810000Y-107950000D02*
X102810000Y-108010000D01*
X102810000Y-108010000D02*
X105470000Y-108010000D01*
X105470000Y-108010000D02*
X105470000Y-107950000D01*
X105470000Y-107950000D02*
X102810000Y-107950000D01*
X102810000Y-106680000D02*
X102810000Y-105350000D01*
X102810000Y-105350000D02*
X104140000Y-105350000D01*
X100270000Y-59690000D02*
X100270000Y-59750000D01*
X100270000Y-59750000D02*
X102930000Y-59750000D01*
X102930000Y-59750000D02*
X102930000Y-59690000D01*
X102930000Y-59690000D02*
X100270000Y-59690000D01*
X100270000Y-58420000D02*
X100270000Y-57090000D01*
X100270000Y-57090000D02*
X101600000Y-57090000D01*
X92650000Y-59690000D02*
X92650000Y-59750000D01*
X92650000Y-59750000D02*
X95310000Y-59750000D01*
X95310000Y-59750000D02*
X95310000Y-59690000D01*
X95310000Y-59690000D02*
X92650000Y-59690000D01*
X92650000Y-58420000D02*
X92650000Y-57090000D01*
X92650000Y-57090000D02*
X93980000Y-57090000D01*
X90110000Y-59690000D02*
X90110000Y-59750000D01*
X90110000Y-59750000D02*
X92770000Y-59750000D01*
X92770000Y-59750000D02*
X92770000Y-59690000D01*
X92770000Y-59690000D02*
X90110000Y-59690000D01*
X90110000Y-58420000D02*
X90110000Y-57090000D01*
X90110000Y-57090000D02*
X91440000Y-57090000D01*
X107890000Y-107950000D02*
X107890000Y-108010000D01*
X107890000Y-108010000D02*
X110550000Y-108010000D01*
X110550000Y-108010000D02*
X110550000Y-107950000D01*
X110550000Y-107950000D02*
X107890000Y-107950000D01*
X107890000Y-106680000D02*
X107890000Y-105350000D01*
X107890000Y-105350000D02*
X109220000Y-105350000D01*
X120590000Y-107950000D02*
X120590000Y-108010000D01*
X120590000Y-108010000D02*
X123250000Y-108010000D01*
X123250000Y-108010000D02*
X123250000Y-107950000D01*
X123250000Y-107950000D02*
X120590000Y-107950000D01*
X120590000Y-106680000D02*
X120590000Y-105350000D01*
X120590000Y-105350000D02*
X121920000Y-105350000D01*
X120590000Y-105410000D02*
X120590000Y-105470000D01*
X120590000Y-105470000D02*
X123250000Y-105470000D01*
X123250000Y-105470000D02*
X123250000Y-105410000D01*
X123250000Y-105410000D02*
X120590000Y-105410000D01*
X120590000Y-104140000D02*
X120590000Y-102810000D01*
X120590000Y-102810000D02*
X121920000Y-102810000D01*
X74870000Y-82550000D02*
X74870000Y-82610000D01*
X74870000Y-82610000D02*
X77530000Y-82610000D01*
X77530000Y-82610000D02*
X77530000Y-82550000D01*
X77530000Y-82550000D02*
X74870000Y-82550000D01*
X74870000Y-81280000D02*
X74870000Y-79950000D01*
X74870000Y-79950000D02*
X76200000Y-79950000D01*
X74870000Y-85090000D02*
X74870000Y-85150000D01*
X74870000Y-85150000D02*
X77530000Y-85150000D01*
X77530000Y-85150000D02*
X77530000Y-85090000D01*
X77530000Y-85090000D02*
X74870000Y-85090000D01*
X74870000Y-83820000D02*
X74870000Y-82490000D01*
X74870000Y-82490000D02*
X76200000Y-82490000D01*
X74870000Y-87630000D02*
X74870000Y-87690000D01*
X74870000Y-87690000D02*
X77530000Y-87690000D01*
X77530000Y-87690000D02*
X77530000Y-87630000D01*
X77530000Y-87630000D02*
X74870000Y-87630000D01*
X74870000Y-86360000D02*
X74870000Y-85030000D01*
X74870000Y-85030000D02*
X76200000Y-85030000D01*
X120590000Y-100330000D02*
X120590000Y-100390000D01*
X120590000Y-100390000D02*
X123250000Y-100390000D01*
X123250000Y-100390000D02*
X123250000Y-100330000D01*
X123250000Y-100330000D02*
X120590000Y-100330000D01*
X120590000Y-99060000D02*
X120590000Y-97730000D01*
X120590000Y-97730000D02*
X121920000Y-97730000D01*
X120590000Y-102870000D02*
X120590000Y-102930000D01*
X120590000Y-102930000D02*
X123250000Y-102930000D01*
X123250000Y-102930000D02*
X123250000Y-102870000D01*
X123250000Y-102870000D02*
X120590000Y-102870000D01*
X120590000Y-101600000D02*
X120590000Y-100270000D01*
X120590000Y-100270000D02*
X121920000Y-100270000D01*
X105350000Y-107950000D02*
X105350000Y-108010000D01*
X105350000Y-108010000D02*
X108010000Y-108010000D01*
X108010000Y-108010000D02*
X108010000Y-107950000D01*
X108010000Y-107950000D02*
X105350000Y-107950000D01*
X105350000Y-106680000D02*
X105350000Y-105350000D01*
X105350000Y-105350000D02*
X106680000Y-105350000D01*
X95190000Y-59690000D02*
X95190000Y-59750000D01*
X95190000Y-59750000D02*
X97850000Y-59750000D01*
X97850000Y-59750000D02*
X97850000Y-59690000D01*
X97850000Y-59690000D02*
X95190000Y-59690000D01*
X95190000Y-58420000D02*
X95190000Y-57090000D01*
X95190000Y-57090000D02*
X96520000Y-57090000D01*
X97730000Y-59690000D02*
X97730000Y-59750000D01*
X97730000Y-59750000D02*
X100390000Y-59750000D01*
X100390000Y-59750000D02*
X100390000Y-59690000D01*
X100390000Y-59690000D02*
X97730000Y-59690000D01*
X97730000Y-58420000D02*
X97730000Y-57090000D01*
X97730000Y-57090000D02*
X99060000Y-57090000D01*
X120590000Y-97790000D02*
X120590000Y-97850000D01*
X120590000Y-97850000D02*
X123250000Y-97850000D01*
X123250000Y-97850000D02*
X123250000Y-97790000D01*
X123250000Y-97790000D02*
X120590000Y-97790000D01*
X120590000Y-96520000D02*
X120590000Y-95190000D01*
X120590000Y-95190000D02*
X121920000Y-95190000D01*
X135830000Y-95250000D02*
X135830000Y-95310000D01*
X135830000Y-95310000D02*
X138490000Y-95310000D01*
X138490000Y-95310000D02*
X138490000Y-95250000D01*
X138490000Y-95250000D02*
X135830000Y-95250000D01*
X135830000Y-93980000D02*
X135830000Y-92650000D01*
X135830000Y-92650000D02*
X137160000Y-92650000D01*
X135830000Y-105410000D02*
X135830000Y-105470000D01*
X135830000Y-105470000D02*
X138490000Y-105470000D01*
X138490000Y-105470000D02*
X138490000Y-105410000D01*
X138490000Y-105410000D02*
X135830000Y-105410000D01*
X135830000Y-104140000D02*
X135830000Y-102810000D01*
X135830000Y-102810000D02*
X137160000Y-102810000D01*
X130750000Y-72390000D02*
X130750000Y-72450000D01*
X130750000Y-72450000D02*
X133410000Y-72450000D01*
X133410000Y-72450000D02*
X133410000Y-72390000D01*
X133410000Y-72390000D02*
X130750000Y-72390000D01*
X130750000Y-71120000D02*
X130750000Y-69790000D01*
X130750000Y-69790000D02*
X132080000Y-69790000D01*
X120590000Y-57150000D02*
X120590000Y-57210000D01*
X120590000Y-57210000D02*
X123250000Y-57210000D01*
X123250000Y-57210000D02*
X123250000Y-57150000D01*
X123250000Y-57150000D02*
X120590000Y-57150000D01*
X120590000Y-55880000D02*
X120590000Y-54550000D01*
X120590000Y-54550000D02*
X121920000Y-54550000D01*
X120590000Y-59690000D02*
X120590000Y-59750000D01*
X120590000Y-59750000D02*
X123250000Y-59750000D01*
X123250000Y-59750000D02*
X123250000Y-59690000D01*
X123250000Y-59690000D02*
X120590000Y-59690000D01*
X120590000Y-58420000D02*
X120590000Y-57090000D01*
X120590000Y-57090000D02*
X121920000Y-57090000D01*
X120590000Y-62230000D02*
X120590000Y-62290000D01*
X120590000Y-62290000D02*
X123250000Y-62290000D01*
X123250000Y-62290000D02*
X123250000Y-62230000D01*
X123250000Y-62230000D02*
X120590000Y-62230000D01*
X120590000Y-60960000D02*
X120590000Y-59630000D01*
X120590000Y-59630000D02*
X121920000Y-59630000D01*
X128210000Y-72390000D02*
X128210000Y-72450000D01*
X128210000Y-72450000D02*
X130870000Y-72450000D01*
X130870000Y-72450000D02*
X130870000Y-72390000D01*
X130870000Y-72390000D02*
X128210000Y-72390000D01*
X128210000Y-71120000D02*
X128210000Y-69790000D01*
X128210000Y-69790000D02*
X129540000Y-69790000D01*
X133290000Y-72390000D02*
X133290000Y-72450000D01*
X133290000Y-72450000D02*
X135950000Y-72450000D01*
X135950000Y-72450000D02*
X135950000Y-72390000D01*
X135950000Y-72390000D02*
X133290000Y-72390000D01*
X133290000Y-71120000D02*
X133290000Y-69790000D01*
X133290000Y-69790000D02*
X134620000Y-69790000D01*
X143450000Y-72390000D02*
X143450000Y-72450000D01*
X143450000Y-72450000D02*
X146110000Y-72450000D01*
X146110000Y-72450000D02*
X146110000Y-72390000D01*
X146110000Y-72390000D02*
X143450000Y-72390000D01*
X143450000Y-71120000D02*
X143450000Y-69790000D01*
X143450000Y-69790000D02*
X144780000Y-69790000D01*
X102480000Y-65440000D02*
X102480000Y-66640000D01*
X100720000Y-66640000D02*
X100720000Y-65440000D01*
X92320000Y-90840000D02*
X92320000Y-92040000D01*
X90560000Y-92040000D02*
X90560000Y-90840000D01*
X107560000Y-65440000D02*
X107560000Y-66640000D01*
X105800000Y-66640000D02*
X105800000Y-65440000D01*
X105020000Y-65440000D02*
X105020000Y-66640000D01*
X103260000Y-66640000D02*
X103260000Y-65440000D01*
D13*
X100515000Y-74480000D02*
X100515000Y-74930000D01*
X107765000Y-74480000D02*
X107765000Y-75005000D01*
X107765000Y-81730000D02*
X107765000Y-81205000D01*
X100515000Y-81730000D02*
X100515000Y-81205000D01*
X100515000Y-74480000D02*
X101040000Y-74480000D01*
X100515000Y-81730000D02*
X101040000Y-81730000D01*
X107765000Y-81730000D02*
X107240000Y-81730000D01*
X107765000Y-74480000D02*
X107240000Y-74480000D01*
X100515000Y-74930000D02*
X99140000Y-74930000D01*
X144500000Y-60370000D02*
X144500000Y-62095000D01*
X130300000Y-60370000D02*
X130300000Y-63120000D01*
X137950000Y-63120000D02*
X142850000Y-63120000D01*
X149100000Y-53720000D02*
X149100000Y-63120000D01*
X130300000Y-63120000D02*
X132950000Y-63120000D01*
X145000000Y-63120000D02*
X149100000Y-63120000D01*
X130300000Y-53720000D02*
X130300000Y-54370000D01*
X130300000Y-53720000D02*
X149100000Y-53720000D01*
X144500000Y-53720000D02*
X144500000Y-55620000D01*
X144500000Y-57620000D02*
X144500000Y-58370000D01*
X96774000Y-72644000D02*
X96774000Y-76708000D01*
X96774000Y-76708000D02*
X94488000Y-76708000D01*
X94488000Y-76708000D02*
X94234000Y-76708000D01*
X94234000Y-76708000D02*
X94234000Y-72644000D01*
X94234000Y-72644000D02*
X96774000Y-72644000D01*
D12*
X143450000Y-49530000D02*
X143450000Y-49590000D01*
X143450000Y-49590000D02*
X146110000Y-49590000D01*
X146110000Y-49590000D02*
X146110000Y-49530000D01*
X146110000Y-49530000D02*
X143450000Y-49530000D01*
X143450000Y-48260000D02*
X143450000Y-46930000D01*
X143450000Y-46930000D02*
X144780000Y-46930000D01*
X138370000Y-72390000D02*
X138370000Y-72450000D01*
X138370000Y-72450000D02*
X141030000Y-72450000D01*
X141030000Y-72450000D02*
X141030000Y-72390000D01*
X141030000Y-72390000D02*
X138370000Y-72390000D01*
X138370000Y-71120000D02*
X138370000Y-69790000D01*
X138370000Y-69790000D02*
X139700000Y-69790000D01*
X135830000Y-72390000D02*
X135830000Y-72450000D01*
X135830000Y-72450000D02*
X138490000Y-72450000D01*
X138490000Y-72450000D02*
X138490000Y-72390000D01*
X138490000Y-72390000D02*
X135830000Y-72390000D01*
X135830000Y-71120000D02*
X135830000Y-69790000D01*
X135830000Y-69790000D02*
X137160000Y-69790000D01*
X116780000Y-124460000D02*
X116780000Y-127060000D01*
X116780000Y-127060000D02*
X119440000Y-127060000D01*
X119440000Y-127060000D02*
X119440000Y-124460000D01*
X119440000Y-124460000D02*
X116780000Y-124460000D01*
X116780000Y-123190000D02*
X116780000Y-121860000D01*
X116780000Y-121860000D02*
X118110000Y-121860000D01*
X90170000Y-129600000D02*
X110550000Y-129600000D01*
X110550000Y-129600000D02*
X110550000Y-126940000D01*
X110550000Y-126940000D02*
X90170000Y-126940000D01*
X90170000Y-126940000D02*
X90170000Y-129600000D01*
X88900000Y-129600000D02*
X87570000Y-129600000D01*
X87570000Y-129600000D02*
X87570000Y-128270000D01*
X77530000Y-69850000D02*
X77530000Y-67250000D01*
X77530000Y-67250000D02*
X74870000Y-67250000D01*
X74870000Y-67250000D02*
X74870000Y-69850000D01*
X74870000Y-69850000D02*
X77530000Y-69850000D01*
X77530000Y-71120000D02*
X77530000Y-72450000D01*
X77530000Y-72450000D02*
X76200000Y-72450000D01*
X135890000Y-95190000D02*
X135830000Y-95190000D01*
X135830000Y-95190000D02*
X135830000Y-97850000D01*
X135830000Y-97850000D02*
X135890000Y-97850000D01*
X135890000Y-97850000D02*
X135890000Y-95190000D01*
X137160000Y-95190000D02*
X138490000Y-95190000D01*
X138490000Y-95190000D02*
X138490000Y-96520000D01*
X135830000Y-100330000D02*
X135830000Y-100390000D01*
X135830000Y-100390000D02*
X138490000Y-100390000D01*
X138490000Y-100390000D02*
X138490000Y-100330000D01*
X138490000Y-100330000D02*
X135830000Y-100330000D01*
X135830000Y-99060000D02*
X135830000Y-97730000D01*
X135830000Y-97730000D02*
X137160000Y-97730000D01*
X135830000Y-102870000D02*
X135830000Y-102930000D01*
X135830000Y-102930000D02*
X138490000Y-102930000D01*
X138490000Y-102930000D02*
X138490000Y-102870000D01*
X138490000Y-102870000D02*
X135830000Y-102870000D01*
X135830000Y-101600000D02*
X135830000Y-100270000D01*
X135830000Y-100270000D02*
X137160000Y-100270000D01*
X135830000Y-123190000D02*
X135830000Y-123250000D01*
X135830000Y-123250000D02*
X138490000Y-123250000D01*
X138490000Y-123250000D02*
X138490000Y-123190000D01*
X138490000Y-123190000D02*
X135830000Y-123190000D01*
X135830000Y-121920000D02*
X135830000Y-120590000D01*
X135830000Y-120590000D02*
X137160000Y-120590000D01*
X74990000Y-125730000D02*
X74990000Y-125670000D01*
X74990000Y-125670000D02*
X72330000Y-125670000D01*
X72330000Y-125670000D02*
X72330000Y-125730000D01*
X72330000Y-125730000D02*
X74990000Y-125730000D01*
X74990000Y-127000000D02*
X74990000Y-128330000D01*
X74990000Y-128330000D02*
X73660000Y-128330000D01*
X62170000Y-128270000D02*
X62170000Y-128330000D01*
X62170000Y-128330000D02*
X64830000Y-128330000D01*
X64830000Y-128330000D02*
X64830000Y-128270000D01*
X64830000Y-128270000D02*
X62170000Y-128270000D01*
X62170000Y-127000000D02*
X62170000Y-125670000D01*
X62170000Y-125670000D02*
X63500000Y-125670000D01*
X133290000Y-46990000D02*
X133290000Y-47050000D01*
X133290000Y-47050000D02*
X135950000Y-47050000D01*
X135950000Y-47050000D02*
X135950000Y-46990000D01*
X135950000Y-46990000D02*
X133290000Y-46990000D01*
X133290000Y-45720000D02*
X133290000Y-44390000D01*
X133290000Y-44390000D02*
X134620000Y-44390000D01*
X67310000Y-95190000D02*
X64710000Y-95190000D01*
X64710000Y-95190000D02*
X64710000Y-97850000D01*
X64710000Y-97850000D02*
X67310000Y-97850000D01*
X67310000Y-97850000D02*
X67310000Y-95190000D01*
X68580000Y-95190000D02*
X69910000Y-95190000D01*
X69910000Y-95190000D02*
X69910000Y-96520000D01*
X72330000Y-113030000D02*
X72330000Y-115630000D01*
X72330000Y-115630000D02*
X74990000Y-115630000D01*
X74990000Y-115630000D02*
X74990000Y-113030000D01*
X74990000Y-113030000D02*
X72330000Y-113030000D01*
X72330000Y-111760000D02*
X72330000Y-110430000D01*
X72330000Y-110430000D02*
X73660000Y-110430000D01*
X120590000Y-64770000D02*
X120590000Y-64830000D01*
X120590000Y-64830000D02*
X123250000Y-64830000D01*
X123250000Y-64830000D02*
X123250000Y-64770000D01*
X123250000Y-64770000D02*
X120590000Y-64770000D01*
X120590000Y-63500000D02*
X120590000Y-62170000D01*
X120590000Y-62170000D02*
X121920000Y-62170000D01*
X123190000Y-52130000D02*
X125790000Y-52130000D01*
X125790000Y-52130000D02*
X125790000Y-49470000D01*
X125790000Y-49470000D02*
X123190000Y-49470000D01*
X123190000Y-49470000D02*
X123190000Y-52130000D01*
X121920000Y-52130000D02*
X120590000Y-52130000D01*
X120590000Y-52130000D02*
X120590000Y-50800000D01*
X135830000Y-92710000D02*
X135830000Y-92770000D01*
X135830000Y-92770000D02*
X138490000Y-92770000D01*
X138490000Y-92770000D02*
X138490000Y-92710000D01*
X138490000Y-92710000D02*
X135830000Y-92710000D01*
X135830000Y-91440000D02*
X135830000Y-90110000D01*
X135830000Y-90110000D02*
X137160000Y-90110000D01*
X85030000Y-107950000D02*
X85030000Y-108010000D01*
X85030000Y-108010000D02*
X87690000Y-108010000D01*
X87690000Y-108010000D02*
X87690000Y-107950000D01*
X87690000Y-107950000D02*
X85030000Y-107950000D01*
X85030000Y-106680000D02*
X85030000Y-105350000D01*
X85030000Y-105350000D02*
X86360000Y-105350000D01*
X120590000Y-95250000D02*
X120590000Y-95310000D01*
X120590000Y-95310000D02*
X123250000Y-95310000D01*
X123250000Y-95310000D02*
X123250000Y-95250000D01*
X123250000Y-95250000D02*
X120590000Y-95250000D01*
X120590000Y-93980000D02*
X120590000Y-92650000D01*
X120590000Y-92650000D02*
X121920000Y-92650000D01*
X120590000Y-92710000D02*
X120590000Y-92770000D01*
X120590000Y-92770000D02*
X123250000Y-92770000D01*
X123250000Y-92770000D02*
X123250000Y-92710000D01*
X123250000Y-92710000D02*
X120590000Y-92710000D01*
X120590000Y-91440000D02*
X120590000Y-90110000D01*
X120590000Y-90110000D02*
X121920000Y-90110000D01*
D14*
G36*
X136874108Y-127871310D02*
X136920042Y-127871706D01*
X136961853Y-127872377D01*
X136997210Y-127873320D01*
X137023785Y-127874534D01*
X137039249Y-127876017D01*
X137041983Y-127876784D01*
X137046436Y-127885922D01*
X137052896Y-127908337D01*
X137061140Y-127942965D01*
X137070946Y-127988741D01*
X137082093Y-128044600D01*
X137094358Y-128109478D01*
X137107520Y-128182310D01*
X137117007Y-128236634D01*
X137123622Y-128269044D01*
X137131425Y-128290523D01*
X137142546Y-128304625D01*
X137159115Y-128314902D01*
X137165705Y-128317873D01*
X137197735Y-128331382D01*
X137234746Y-128346614D01*
X137274333Y-128362625D01*
X137314094Y-128378469D01*
X137351624Y-128393200D01*
X137384521Y-128405871D01*
X137410381Y-128415537D01*
X137426800Y-128421252D01*
X137431291Y-128422399D01*
X137439331Y-128418443D01*
X137457702Y-128407269D01*
X137484802Y-128389919D01*
X137519029Y-128367438D01*
X137558779Y-128340868D01*
X137602450Y-128311252D01*
X137609717Y-128306285D01*
X137654024Y-128276240D01*
X137694839Y-128249082D01*
X137730524Y-128225858D01*
X137759446Y-128207617D01*
X137779969Y-128195404D01*
X137790457Y-128190267D01*
X137791071Y-128190171D01*
X137799048Y-128195141D01*
X137815753Y-128209173D01*
X137839769Y-128230950D01*
X137869677Y-128259155D01*
X137904061Y-128292470D01*
X137941504Y-128329579D01*
X137946479Y-128334570D01*
X137988961Y-128377394D01*
X138022111Y-128411251D01*
X138046957Y-128437340D01*
X138064527Y-128456859D01*
X138075848Y-128471007D01*
X138081948Y-128480984D01*
X138083855Y-128487987D01*
X138082597Y-128493215D01*
X138082557Y-128493291D01*
X138076492Y-128502957D01*
X138063350Y-128522818D01*
X138044308Y-128551130D01*
X138020545Y-128586152D01*
X137993239Y-128626139D01*
X137965789Y-128666119D01*
X137936619Y-128708977D01*
X137910391Y-128748431D01*
X137888194Y-128782768D01*
X137871120Y-128810271D01*
X137860258Y-128829227D01*
X137856686Y-128837741D01*
X137859472Y-128848059D01*
X137867265Y-128869513D01*
X137879216Y-128899960D01*
X137894474Y-128937255D01*
X137912192Y-128979255D01*
X137919075Y-128995267D01*
X137939866Y-129043625D01*
X137956161Y-129080586D01*
X137969652Y-129107881D01*
X137982029Y-129127241D01*
X137994985Y-129140399D01*
X138010210Y-129149086D01*
X138029396Y-129155034D01*
X138054235Y-129159975D01*
X138085286Y-129165435D01*
X138119251Y-129171668D01*
X138161727Y-129179602D01*
X138206978Y-129188162D01*
X138244412Y-129195331D01*
X138280900Y-129202141D01*
X138313376Y-129207780D01*
X138338582Y-129211712D01*
X138353264Y-129213401D01*
X138354280Y-129213428D01*
X138372070Y-129217954D01*
X138385842Y-129226128D01*
X138390383Y-129230235D01*
X138393918Y-129235360D01*
X138396553Y-129243187D01*
X138398392Y-129255401D01*
X138399543Y-129273686D01*
X138400108Y-129299726D01*
X138400195Y-129335206D01*
X138399909Y-129381810D01*
X138399354Y-129441223D01*
X138399346Y-129442028D01*
X138397343Y-129645228D01*
X138361058Y-129654310D01*
X138331248Y-129661150D01*
X138297995Y-129667905D01*
X138284858Y-129670300D01*
X138258020Y-129675041D01*
X138223669Y-129681241D01*
X138188553Y-129687680D01*
X138183258Y-129688662D01*
X138144902Y-129695732D01*
X138102663Y-129703438D01*
X138065427Y-129710160D01*
X138064088Y-129710400D01*
X138030056Y-129717999D01*
X138005577Y-129726625D01*
X137994605Y-129733756D01*
X137988493Y-129744143D01*
X137978089Y-129765915D01*
X137964337Y-129796920D01*
X137948180Y-129835006D01*
X137930563Y-129878022D01*
X137922898Y-129897187D01*
X137903306Y-129946889D01*
X137888725Y-129984977D01*
X137878607Y-130013245D01*
X137872403Y-130033485D01*
X137869565Y-130047492D01*
X137869544Y-130057059D01*
X137871792Y-130063979D01*
X137871856Y-130064101D01*
X137878275Y-130074561D01*
X137891686Y-130095111D01*
X137910844Y-130123891D01*
X137934504Y-130159040D01*
X137961423Y-130198697D01*
X137981497Y-130228083D01*
X138009581Y-130269236D01*
X138034934Y-130306674D01*
X138056393Y-130338655D01*
X138072794Y-130363441D01*
X138082976Y-130379289D01*
X138085817Y-130384222D01*
X138081724Y-130391379D01*
X138068515Y-130407322D01*
X138047450Y-130430689D01*
X138019791Y-130460122D01*
X137986800Y-130494257D01*
X137949737Y-130531736D01*
X137941017Y-130540439D01*
X137897314Y-130583784D01*
X137862603Y-130617742D01*
X137835732Y-130643310D01*
X137815553Y-130661486D01*
X137800914Y-130673268D01*
X137790668Y-130679652D01*
X137783662Y-130681637D01*
X137779422Y-130680623D01*
X137769883Y-130674597D01*
X137750202Y-130661542D01*
X137722181Y-130642673D01*
X137687622Y-130619210D01*
X137648327Y-130592368D01*
X137617350Y-130571109D01*
X137575915Y-130542935D01*
X137537973Y-130517734D01*
X137505287Y-130496632D01*
X137479623Y-130480753D01*
X137462747Y-130471221D01*
X137456892Y-130468914D01*
X137446024Y-130472268D01*
X137425634Y-130481360D01*
X137398806Y-130494735D01*
X137373394Y-130508301D01*
X137340432Y-130525513D01*
X137314923Y-130536979D01*
X137298712Y-130541929D01*
X137294176Y-130541418D01*
X137287062Y-130530929D01*
X137278842Y-130512728D01*
X137276903Y-130507473D01*
X137267810Y-130483008D01*
X137258531Y-130460084D01*
X137257639Y-130458028D01*
X137252465Y-130445845D01*
X137242555Y-130422161D01*
X137228706Y-130388894D01*
X137211715Y-130347960D01*
X137192378Y-130301277D01*
X137171493Y-130250762D01*
X137167177Y-130240314D01*
X137144320Y-130184989D01*
X137121272Y-130129249D01*
X137099186Y-130075879D01*
X137079215Y-130027665D01*
X137062512Y-129987391D01*
X137050561Y-129958636D01*
X137032571Y-129913844D01*
X137020986Y-129881018D01*
X137015558Y-129859222D01*
X137016040Y-129847521D01*
X137020456Y-129844800D01*
X137028479Y-129840731D01*
X137044886Y-129830007D01*
X137066581Y-129814851D01*
X137090466Y-129797485D01*
X137113443Y-129780134D01*
X137132415Y-129765018D01*
X137136818Y-129761290D01*
X137154820Y-129742873D01*
X137176710Y-129716391D01*
X137199071Y-129686321D01*
X137218481Y-129657137D01*
X137225454Y-129645284D01*
X137251630Y-129584815D01*
X137268390Y-129515529D01*
X137274137Y-129462933D01*
X137271909Y-129383239D01*
X137256316Y-129307644D01*
X137228214Y-129237346D01*
X137188461Y-129173545D01*
X137137913Y-129117438D01*
X137077426Y-129070225D01*
X137007857Y-129033103D01*
X136952862Y-129013367D01*
X136911621Y-129005136D01*
X136862084Y-129001065D01*
X136809860Y-129001152D01*
X136760558Y-129005398D01*
X136721253Y-129013367D01*
X136645822Y-129042466D01*
X136579163Y-129082291D01*
X136521933Y-129131536D01*
X136474787Y-129188892D01*
X136438382Y-129253053D01*
X136413375Y-129322712D01*
X136400423Y-129396562D01*
X136400181Y-129473295D01*
X136413307Y-129551604D01*
X136427601Y-129598057D01*
X136447321Y-129641160D01*
X136474891Y-129686255D01*
X136506772Y-129728248D01*
X136539427Y-129762048D01*
X136544626Y-129766469D01*
X136570360Y-129787016D01*
X136596704Y-129807073D01*
X136620890Y-129824648D01*
X136640150Y-129837745D01*
X136651718Y-129844371D01*
X136653311Y-129844800D01*
X136658325Y-129850817D01*
X136659258Y-129857768D01*
X136656398Y-129869380D01*
X136647995Y-129893638D01*
X136634309Y-129929883D01*
X136615602Y-129977460D01*
X136592135Y-130035710D01*
X136564171Y-130103977D01*
X136531970Y-130181603D01*
X136499781Y-130258457D01*
X136480203Y-130305239D01*
X136460472Y-130352794D01*
X136442078Y-130397498D01*
X136426512Y-130435728D01*
X136416134Y-130461657D01*
X136404012Y-130491563D01*
X136393181Y-130516783D01*
X136385111Y-130533973D01*
X136382029Y-130539273D01*
X136374949Y-130541612D01*
X136360685Y-130537927D01*
X136337414Y-130527575D01*
X136312171Y-130514636D01*
X136284501Y-130499744D01*
X136261492Y-130486899D01*
X136246320Y-130477897D01*
X136242335Y-130475120D01*
X136233083Y-130470189D01*
X136220465Y-130470480D01*
X136202868Y-130476736D01*
X136178681Y-130489700D01*
X136146293Y-130510114D01*
X136104093Y-130538719D01*
X136103747Y-130538958D01*
X136054564Y-130572866D01*
X136008752Y-130604235D01*
X135967975Y-130631942D01*
X135933893Y-130654862D01*
X135908169Y-130671873D01*
X135892466Y-130681851D01*
X135891222Y-130682587D01*
X135883714Y-130680233D01*
X135868115Y-130668760D01*
X135844045Y-130647829D01*
X135811122Y-130617101D01*
X135768967Y-130576235D01*
X135740104Y-130547722D01*
X135702665Y-130510353D01*
X135668481Y-130475879D01*
X135638956Y-130445746D01*
X135615494Y-130421398D01*
X135599499Y-130404278D01*
X135592375Y-130395832D01*
X135592282Y-130395673D01*
X135592356Y-130388657D01*
X135597747Y-130375475D01*
X135609107Y-130355038D01*
X135627088Y-130326256D01*
X135652341Y-130288038D01*
X135685519Y-130239294D01*
X135687773Y-130236016D01*
X135716541Y-130193997D01*
X135743032Y-130154941D01*
X135765975Y-130120756D01*
X135784093Y-130093349D01*
X135796112Y-130074627D01*
X135800218Y-130067705D01*
X135803411Y-130060512D01*
X135804834Y-130052565D01*
X135803948Y-130041985D01*
X135800214Y-130026893D01*
X135793094Y-130005410D01*
X135782048Y-129975657D01*
X135766537Y-129935757D01*
X135751302Y-129897163D01*
X135733399Y-129852701D01*
X135716540Y-129812261D01*
X135701668Y-129777996D01*
X135689728Y-129752061D01*
X135681664Y-129736608D01*
X135679655Y-129733756D01*
X135664954Y-129725028D01*
X135638605Y-129716548D01*
X135610027Y-129710400D01*
X135573201Y-129703756D01*
X135530995Y-129696058D01*
X135492293Y-129688928D01*
X135490858Y-129688662D01*
X135456252Y-129682299D01*
X135421319Y-129675977D01*
X135392809Y-129670917D01*
X135389258Y-129670300D01*
X135358001Y-129664326D01*
X135325300Y-129657241D01*
X135313058Y-129654310D01*
X135276772Y-129645228D01*
X135274769Y-129442028D01*
X135274212Y-129382450D01*
X135273921Y-129335701D01*
X135274003Y-129300096D01*
X135274562Y-129273951D01*
X135275705Y-129255583D01*
X135277536Y-129243306D01*
X135280160Y-129235435D01*
X135283684Y-129230288D01*
X135288212Y-129226178D01*
X135288273Y-129226128D01*
X135305840Y-129216427D01*
X135319835Y-129213428D01*
X135332810Y-129212091D01*
X135356760Y-129208436D01*
X135388427Y-129203000D01*
X135424555Y-129196320D01*
X135429703Y-129195331D01*
X135472667Y-129187122D01*
X135517884Y-129178613D01*
X135559620Y-129170876D01*
X135588829Y-129165574D01*
X135629364Y-129158059D01*
X135658539Y-129150854D01*
X135679279Y-129141692D01*
X135694508Y-129128306D01*
X135707150Y-129108429D01*
X135720130Y-129079796D01*
X135729755Y-129056342D01*
X135746077Y-129017015D01*
X135764009Y-128975029D01*
X135780894Y-128936556D01*
X135789626Y-128917270D01*
X135802074Y-128888455D01*
X135811642Y-128862848D01*
X135816875Y-128844500D01*
X135817429Y-128839910D01*
X135813387Y-128827563D01*
X135802349Y-128806404D01*
X135785946Y-128779296D01*
X135765811Y-128749097D01*
X135764815Y-128747671D01*
X135733030Y-128702070D01*
X135701416Y-128656376D01*
X135671387Y-128612666D01*
X135644362Y-128573014D01*
X135621755Y-128539499D01*
X135604985Y-128514195D01*
X135596964Y-128501653D01*
X135583327Y-128479537D01*
X135727353Y-128334854D01*
X135765145Y-128297308D01*
X135800087Y-128263386D01*
X135830760Y-128234404D01*
X135855743Y-128211678D01*
X135873614Y-128196526D01*
X135882954Y-128190264D01*
X135883481Y-128190171D01*
X135892408Y-128194149D01*
X135911597Y-128205383D01*
X135939406Y-128222821D01*
X135974193Y-128245411D01*
X136014319Y-128272102D01*
X136058143Y-128301840D01*
X136064623Y-128306285D01*
X136108673Y-128336333D01*
X136149077Y-128363493D01*
X136184228Y-128386718D01*
X136212521Y-128404960D01*
X136232350Y-128417171D01*
X136242111Y-128422305D01*
X136242611Y-128422400D01*
X136251581Y-128419796D01*
X136271575Y-128412615D01*
X136300195Y-128401800D01*
X136335042Y-128388293D01*
X136373718Y-128373039D01*
X136413824Y-128356980D01*
X136452962Y-128341059D01*
X136488732Y-128326221D01*
X136508410Y-128317873D01*
X136527426Y-128307371D01*
X136540521Y-128295949D01*
X136542071Y-128293597D01*
X136546018Y-128281638D01*
X136551661Y-128258778D01*
X136558217Y-128228417D01*
X136564259Y-128197428D01*
X136579389Y-128116462D01*
X136592269Y-128048925D01*
X136603087Y-127993934D01*
X136612032Y-127950610D01*
X136619291Y-127918073D01*
X136625052Y-127895442D01*
X136629504Y-127881837D01*
X136632778Y-127876411D01*
X136642354Y-127874824D01*
X136664113Y-127873526D01*
X136695724Y-127872516D01*
X136734859Y-127871792D01*
X136779187Y-127871351D01*
X136826380Y-127871191D01*
X136874108Y-127871310D01*
X136874108Y-127871310D01*
G37*
X136874108Y-127871310D02*
X136920042Y-127871706D01*
X136961853Y-127872377D01*
X136997210Y-127873320D01*
X137023785Y-127874534D01*
X137039249Y-127876017D01*
X137041983Y-127876784D01*
X137046436Y-127885922D01*
X137052896Y-127908337D01*
X137061140Y-127942965D01*
X137070946Y-127988741D01*
X137082093Y-128044600D01*
X137094358Y-128109478D01*
X137107520Y-128182310D01*
X137117007Y-128236634D01*
X137123622Y-128269044D01*
X137131425Y-128290523D01*
X137142546Y-128304625D01*
X137159115Y-128314902D01*
X137165705Y-128317873D01*
X137197735Y-128331382D01*
X137234746Y-128346614D01*
X137274333Y-128362625D01*
X137314094Y-128378469D01*
X137351624Y-128393200D01*
X137384521Y-128405871D01*
X137410381Y-128415537D01*
X137426800Y-128421252D01*
X137431291Y-128422399D01*
X137439331Y-128418443D01*
X137457702Y-128407269D01*
X137484802Y-128389919D01*
X137519029Y-128367438D01*
X137558779Y-128340868D01*
X137602450Y-128311252D01*
X137609717Y-128306285D01*
X137654024Y-128276240D01*
X137694839Y-128249082D01*
X137730524Y-128225858D01*
X137759446Y-128207617D01*
X137779969Y-128195404D01*
X137790457Y-128190267D01*
X137791071Y-128190171D01*
X137799048Y-128195141D01*
X137815753Y-128209173D01*
X137839769Y-128230950D01*
X137869677Y-128259155D01*
X137904061Y-128292470D01*
X137941504Y-128329579D01*
X137946479Y-128334570D01*
X137988961Y-128377394D01*
X138022111Y-128411251D01*
X138046957Y-128437340D01*
X138064527Y-128456859D01*
X138075848Y-128471007D01*
X138081948Y-128480984D01*
X138083855Y-128487987D01*
X138082597Y-128493215D01*
X138082557Y-128493291D01*
X138076492Y-128502957D01*
X138063350Y-128522818D01*
X138044308Y-128551130D01*
X138020545Y-128586152D01*
X137993239Y-128626139D01*
X137965789Y-128666119D01*
X137936619Y-128708977D01*
X137910391Y-128748431D01*
X137888194Y-128782768D01*
X137871120Y-128810271D01*
X137860258Y-128829227D01*
X137856686Y-128837741D01*
X137859472Y-128848059D01*
X137867265Y-128869513D01*
X137879216Y-128899960D01*
X137894474Y-128937255D01*
X137912192Y-128979255D01*
X137919075Y-128995267D01*
X137939866Y-129043625D01*
X137956161Y-129080586D01*
X137969652Y-129107881D01*
X137982029Y-129127241D01*
X137994985Y-129140399D01*
X138010210Y-129149086D01*
X138029396Y-129155034D01*
X138054235Y-129159975D01*
X138085286Y-129165435D01*
X138119251Y-129171668D01*
X138161727Y-129179602D01*
X138206978Y-129188162D01*
X138244412Y-129195331D01*
X138280900Y-129202141D01*
X138313376Y-129207780D01*
X138338582Y-129211712D01*
X138353264Y-129213401D01*
X138354280Y-129213428D01*
X138372070Y-129217954D01*
X138385842Y-129226128D01*
X138390383Y-129230235D01*
X138393918Y-129235360D01*
X138396553Y-129243187D01*
X138398392Y-129255401D01*
X138399543Y-129273686D01*
X138400108Y-129299726D01*
X138400195Y-129335206D01*
X138399909Y-129381810D01*
X138399354Y-129441223D01*
X138399346Y-129442028D01*
X138397343Y-129645228D01*
X138361058Y-129654310D01*
X138331248Y-129661150D01*
X138297995Y-129667905D01*
X138284858Y-129670300D01*
X138258020Y-129675041D01*
X138223669Y-129681241D01*
X138188553Y-129687680D01*
X138183258Y-129688662D01*
X138144902Y-129695732D01*
X138102663Y-129703438D01*
X138065427Y-129710160D01*
X138064088Y-129710400D01*
X138030056Y-129717999D01*
X138005577Y-129726625D01*
X137994605Y-129733756D01*
X137988493Y-129744143D01*
X137978089Y-129765915D01*
X137964337Y-129796920D01*
X137948180Y-129835006D01*
X137930563Y-129878022D01*
X137922898Y-129897187D01*
X137903306Y-129946889D01*
X137888725Y-129984977D01*
X137878607Y-130013245D01*
X137872403Y-130033485D01*
X137869565Y-130047492D01*
X137869544Y-130057059D01*
X137871792Y-130063979D01*
X137871856Y-130064101D01*
X137878275Y-130074561D01*
X137891686Y-130095111D01*
X137910844Y-130123891D01*
X137934504Y-130159040D01*
X137961423Y-130198697D01*
X137981497Y-130228083D01*
X138009581Y-130269236D01*
X138034934Y-130306674D01*
X138056393Y-130338655D01*
X138072794Y-130363441D01*
X138082976Y-130379289D01*
X138085817Y-130384222D01*
X138081724Y-130391379D01*
X138068515Y-130407322D01*
X138047450Y-130430689D01*
X138019791Y-130460122D01*
X137986800Y-130494257D01*
X137949737Y-130531736D01*
X137941017Y-130540439D01*
X137897314Y-130583784D01*
X137862603Y-130617742D01*
X137835732Y-130643310D01*
X137815553Y-130661486D01*
X137800914Y-130673268D01*
X137790668Y-130679652D01*
X137783662Y-130681637D01*
X137779422Y-130680623D01*
X137769883Y-130674597D01*
X137750202Y-130661542D01*
X137722181Y-130642673D01*
X137687622Y-130619210D01*
X137648327Y-130592368D01*
X137617350Y-130571109D01*
X137575915Y-130542935D01*
X137537973Y-130517734D01*
X137505287Y-130496632D01*
X137479623Y-130480753D01*
X137462747Y-130471221D01*
X137456892Y-130468914D01*
X137446024Y-130472268D01*
X137425634Y-130481360D01*
X137398806Y-130494735D01*
X137373394Y-130508301D01*
X137340432Y-130525513D01*
X137314923Y-130536979D01*
X137298712Y-130541929D01*
X137294176Y-130541418D01*
X137287062Y-130530929D01*
X137278842Y-130512728D01*
X137276903Y-130507473D01*
X137267810Y-130483008D01*
X137258531Y-130460084D01*
X137257639Y-130458028D01*
X137252465Y-130445845D01*
X137242555Y-130422161D01*
X137228706Y-130388894D01*
X137211715Y-130347960D01*
X137192378Y-130301277D01*
X137171493Y-130250762D01*
X137167177Y-130240314D01*
X137144320Y-130184989D01*
X137121272Y-130129249D01*
X137099186Y-130075879D01*
X137079215Y-130027665D01*
X137062512Y-129987391D01*
X137050561Y-129958636D01*
X137032571Y-129913844D01*
X137020986Y-129881018D01*
X137015558Y-129859222D01*
X137016040Y-129847521D01*
X137020456Y-129844800D01*
X137028479Y-129840731D01*
X137044886Y-129830007D01*
X137066581Y-129814851D01*
X137090466Y-129797485D01*
X137113443Y-129780134D01*
X137132415Y-129765018D01*
X137136818Y-129761290D01*
X137154820Y-129742873D01*
X137176710Y-129716391D01*
X137199071Y-129686321D01*
X137218481Y-129657137D01*
X137225454Y-129645284D01*
X137251630Y-129584815D01*
X137268390Y-129515529D01*
X137274137Y-129462933D01*
X137271909Y-129383239D01*
X137256316Y-129307644D01*
X137228214Y-129237346D01*
X137188461Y-129173545D01*
X137137913Y-129117438D01*
X137077426Y-129070225D01*
X137007857Y-129033103D01*
X136952862Y-129013367D01*
X136911621Y-129005136D01*
X136862084Y-129001065D01*
X136809860Y-129001152D01*
X136760558Y-129005398D01*
X136721253Y-129013367D01*
X136645822Y-129042466D01*
X136579163Y-129082291D01*
X136521933Y-129131536D01*
X136474787Y-129188892D01*
X136438382Y-129253053D01*
X136413375Y-129322712D01*
X136400423Y-129396562D01*
X136400181Y-129473295D01*
X136413307Y-129551604D01*
X136427601Y-129598057D01*
X136447321Y-129641160D01*
X136474891Y-129686255D01*
X136506772Y-129728248D01*
X136539427Y-129762048D01*
X136544626Y-129766469D01*
X136570360Y-129787016D01*
X136596704Y-129807073D01*
X136620890Y-129824648D01*
X136640150Y-129837745D01*
X136651718Y-129844371D01*
X136653311Y-129844800D01*
X136658325Y-129850817D01*
X136659258Y-129857768D01*
X136656398Y-129869380D01*
X136647995Y-129893638D01*
X136634309Y-129929883D01*
X136615602Y-129977460D01*
X136592135Y-130035710D01*
X136564171Y-130103977D01*
X136531970Y-130181603D01*
X136499781Y-130258457D01*
X136480203Y-130305239D01*
X136460472Y-130352794D01*
X136442078Y-130397498D01*
X136426512Y-130435728D01*
X136416134Y-130461657D01*
X136404012Y-130491563D01*
X136393181Y-130516783D01*
X136385111Y-130533973D01*
X136382029Y-130539273D01*
X136374949Y-130541612D01*
X136360685Y-130537927D01*
X136337414Y-130527575D01*
X136312171Y-130514636D01*
X136284501Y-130499744D01*
X136261492Y-130486899D01*
X136246320Y-130477897D01*
X136242335Y-130475120D01*
X136233083Y-130470189D01*
X136220465Y-130470480D01*
X136202868Y-130476736D01*
X136178681Y-130489700D01*
X136146293Y-130510114D01*
X136104093Y-130538719D01*
X136103747Y-130538958D01*
X136054564Y-130572866D01*
X136008752Y-130604235D01*
X135967975Y-130631942D01*
X135933893Y-130654862D01*
X135908169Y-130671873D01*
X135892466Y-130681851D01*
X135891222Y-130682587D01*
X135883714Y-130680233D01*
X135868115Y-130668760D01*
X135844045Y-130647829D01*
X135811122Y-130617101D01*
X135768967Y-130576235D01*
X135740104Y-130547722D01*
X135702665Y-130510353D01*
X135668481Y-130475879D01*
X135638956Y-130445746D01*
X135615494Y-130421398D01*
X135599499Y-130404278D01*
X135592375Y-130395832D01*
X135592282Y-130395673D01*
X135592356Y-130388657D01*
X135597747Y-130375475D01*
X135609107Y-130355038D01*
X135627088Y-130326256D01*
X135652341Y-130288038D01*
X135685519Y-130239294D01*
X135687773Y-130236016D01*
X135716541Y-130193997D01*
X135743032Y-130154941D01*
X135765975Y-130120756D01*
X135784093Y-130093349D01*
X135796112Y-130074627D01*
X135800218Y-130067705D01*
X135803411Y-130060512D01*
X135804834Y-130052565D01*
X135803948Y-130041985D01*
X135800214Y-130026893D01*
X135793094Y-130005410D01*
X135782048Y-129975657D01*
X135766537Y-129935757D01*
X135751302Y-129897163D01*
X135733399Y-129852701D01*
X135716540Y-129812261D01*
X135701668Y-129777996D01*
X135689728Y-129752061D01*
X135681664Y-129736608D01*
X135679655Y-129733756D01*
X135664954Y-129725028D01*
X135638605Y-129716548D01*
X135610027Y-129710400D01*
X135573201Y-129703756D01*
X135530995Y-129696058D01*
X135492293Y-129688928D01*
X135490858Y-129688662D01*
X135456252Y-129682299D01*
X135421319Y-129675977D01*
X135392809Y-129670917D01*
X135389258Y-129670300D01*
X135358001Y-129664326D01*
X135325300Y-129657241D01*
X135313058Y-129654310D01*
X135276772Y-129645228D01*
X135274769Y-129442028D01*
X135274212Y-129382450D01*
X135273921Y-129335701D01*
X135274003Y-129300096D01*
X135274562Y-129273951D01*
X135275705Y-129255583D01*
X135277536Y-129243306D01*
X135280160Y-129235435D01*
X135283684Y-129230288D01*
X135288212Y-129226178D01*
X135288273Y-129226128D01*
X135305840Y-129216427D01*
X135319835Y-129213428D01*
X135332810Y-129212091D01*
X135356760Y-129208436D01*
X135388427Y-129203000D01*
X135424555Y-129196320D01*
X135429703Y-129195331D01*
X135472667Y-129187122D01*
X135517884Y-129178613D01*
X135559620Y-129170876D01*
X135588829Y-129165574D01*
X135629364Y-129158059D01*
X135658539Y-129150854D01*
X135679279Y-129141692D01*
X135694508Y-129128306D01*
X135707150Y-129108429D01*
X135720130Y-129079796D01*
X135729755Y-129056342D01*
X135746077Y-129017015D01*
X135764009Y-128975029D01*
X135780894Y-128936556D01*
X135789626Y-128917270D01*
X135802074Y-128888455D01*
X135811642Y-128862848D01*
X135816875Y-128844500D01*
X135817429Y-128839910D01*
X135813387Y-128827563D01*
X135802349Y-128806404D01*
X135785946Y-128779296D01*
X135765811Y-128749097D01*
X135764815Y-128747671D01*
X135733030Y-128702070D01*
X135701416Y-128656376D01*
X135671387Y-128612666D01*
X135644362Y-128573014D01*
X135621755Y-128539499D01*
X135604985Y-128514195D01*
X135596964Y-128501653D01*
X135583327Y-128479537D01*
X135727353Y-128334854D01*
X135765145Y-128297308D01*
X135800087Y-128263386D01*
X135830760Y-128234404D01*
X135855743Y-128211678D01*
X135873614Y-128196526D01*
X135882954Y-128190264D01*
X135883481Y-128190171D01*
X135892408Y-128194149D01*
X135911597Y-128205383D01*
X135939406Y-128222821D01*
X135974193Y-128245411D01*
X136014319Y-128272102D01*
X136058143Y-128301840D01*
X136064623Y-128306285D01*
X136108673Y-128336333D01*
X136149077Y-128363493D01*
X136184228Y-128386718D01*
X136212521Y-128404960D01*
X136232350Y-128417171D01*
X136242111Y-128422305D01*
X136242611Y-128422400D01*
X136251581Y-128419796D01*
X136271575Y-128412615D01*
X136300195Y-128401800D01*
X136335042Y-128388293D01*
X136373718Y-128373039D01*
X136413824Y-128356980D01*
X136452962Y-128341059D01*
X136488732Y-128326221D01*
X136508410Y-128317873D01*
X136527426Y-128307371D01*
X136540521Y-128295949D01*
X136542071Y-128293597D01*
X136546018Y-128281638D01*
X136551661Y-128258778D01*
X136558217Y-128228417D01*
X136564259Y-128197428D01*
X136579389Y-128116462D01*
X136592269Y-128048925D01*
X136603087Y-127993934D01*
X136612032Y-127950610D01*
X136619291Y-127918073D01*
X136625052Y-127895442D01*
X136629504Y-127881837D01*
X136632778Y-127876411D01*
X136642354Y-127874824D01*
X136664113Y-127873526D01*
X136695724Y-127872516D01*
X136734859Y-127871792D01*
X136779187Y-127871351D01*
X136826380Y-127871191D01*
X136874108Y-127871310D01*
D13*
X87971334Y-71985143D02*
X87923715Y-72032762D01*
X87780858Y-72080381D01*
X87685620Y-72080381D01*
X87542762Y-72032762D01*
X87447524Y-71937524D01*
X87399905Y-71842286D01*
X87352286Y-71651810D01*
X87352286Y-71508952D01*
X87399905Y-71318476D01*
X87447524Y-71223238D01*
X87542762Y-71128000D01*
X87685620Y-71080381D01*
X87780858Y-71080381D01*
X87923715Y-71128000D01*
X87971334Y-71175619D01*
X88923715Y-72080381D02*
X88352286Y-72080381D01*
X88638000Y-72080381D02*
X88638000Y-71080381D01*
X88542762Y-71223238D01*
X88447524Y-71318476D01*
X88352286Y-71366095D01*
X89995524Y-71441714D02*
X89995524Y-72108381D01*
X89995524Y-71536952D02*
X90043143Y-71489333D01*
X90138381Y-71441714D01*
X90281239Y-71441714D01*
X90376477Y-71489333D01*
X90424096Y-71584571D01*
X90424096Y-72108381D01*
X91614572Y-71060762D02*
X90757429Y-72346476D01*
X92376477Y-72108381D02*
X92376477Y-71584571D01*
X92328858Y-71489333D01*
X92233620Y-71441714D01*
X92043143Y-71441714D01*
X91947905Y-71489333D01*
X92376477Y-72060762D02*
X92281239Y-72108381D01*
X92043143Y-72108381D01*
X91947905Y-72060762D01*
X91900286Y-71965524D01*
X91900286Y-71870286D01*
X91947905Y-71775048D01*
X92043143Y-71727429D01*
X92281239Y-71727429D01*
X92376477Y-71679810D01*
X87463334Y-77827143D02*
X87415715Y-77874762D01*
X87272858Y-77922381D01*
X87177620Y-77922381D01*
X87034762Y-77874762D01*
X86939524Y-77779524D01*
X86891905Y-77684286D01*
X86844286Y-77493810D01*
X86844286Y-77350952D01*
X86891905Y-77160476D01*
X86939524Y-77065238D01*
X87034762Y-76970000D01*
X87177620Y-76922381D01*
X87272858Y-76922381D01*
X87415715Y-76970000D01*
X87463334Y-77017619D01*
X87844286Y-77017619D02*
X87891905Y-76970000D01*
X87987143Y-76922381D01*
X88225239Y-76922381D01*
X88320477Y-76970000D01*
X88368096Y-77017619D01*
X88415715Y-77112857D01*
X88415715Y-77208095D01*
X88368096Y-77350952D01*
X87796667Y-77922381D01*
X88415715Y-77922381D01*
X89487524Y-77001714D02*
X89487524Y-77668381D01*
X89487524Y-77096952D02*
X89535143Y-77049333D01*
X89630381Y-77001714D01*
X89773239Y-77001714D01*
X89868477Y-77049333D01*
X89916096Y-77144571D01*
X89916096Y-77668381D01*
X91106572Y-76620762D02*
X90249429Y-77906476D01*
X91868477Y-77668381D02*
X91868477Y-77144571D01*
X91820858Y-77049333D01*
X91725620Y-77001714D01*
X91535143Y-77001714D01*
X91439905Y-77049333D01*
X91868477Y-77620762D02*
X91773239Y-77668381D01*
X91535143Y-77668381D01*
X91439905Y-77620762D01*
X91392286Y-77525524D01*
X91392286Y-77430286D01*
X91439905Y-77335048D01*
X91535143Y-77287429D01*
X91773239Y-77287429D01*
X91868477Y-77239810D01*
X95337334Y-81609143D02*
X95289715Y-81656762D01*
X95146858Y-81704381D01*
X95051620Y-81704381D01*
X94908762Y-81656762D01*
X94813524Y-81561524D01*
X94765905Y-81466286D01*
X94718286Y-81275810D01*
X94718286Y-81132952D01*
X94765905Y-80942476D01*
X94813524Y-80847238D01*
X94908762Y-80752000D01*
X95051620Y-80704381D01*
X95146858Y-80704381D01*
X95289715Y-80752000D01*
X95337334Y-80799619D01*
X95670667Y-80704381D02*
X96289715Y-80704381D01*
X95956381Y-81085333D01*
X96099239Y-81085333D01*
X96194477Y-81132952D01*
X96242096Y-81180571D01*
X96289715Y-81275810D01*
X96289715Y-81513905D01*
X96242096Y-81609143D01*
X96194477Y-81656762D01*
X96099239Y-81704381D01*
X95813524Y-81704381D01*
X95718286Y-81656762D01*
X95670667Y-81609143D01*
X93575429Y-78204381D02*
X93004000Y-78204381D01*
X93289714Y-78204381D02*
X93289714Y-77204381D01*
X93194476Y-77347238D01*
X93099238Y-77442476D01*
X93004000Y-77490095D01*
X94194476Y-77204381D02*
X94289715Y-77204381D01*
X94384953Y-77252000D01*
X94432572Y-77299619D01*
X94480191Y-77394857D01*
X94527810Y-77585333D01*
X94527810Y-77823429D01*
X94480191Y-78013905D01*
X94432572Y-78109143D01*
X94384953Y-78156762D01*
X94289715Y-78204381D01*
X94194476Y-78204381D01*
X94099238Y-78156762D01*
X94051619Y-78109143D01*
X94004000Y-78013905D01*
X93956381Y-77823429D01*
X93956381Y-77585333D01*
X94004000Y-77394857D01*
X94051619Y-77299619D01*
X94099238Y-77252000D01*
X94194476Y-77204381D01*
X95146857Y-77204381D02*
X95242096Y-77204381D01*
X95337334Y-77252000D01*
X95384953Y-77299619D01*
X95432572Y-77394857D01*
X95480191Y-77585333D01*
X95480191Y-77823429D01*
X95432572Y-78013905D01*
X95384953Y-78109143D01*
X95337334Y-78156762D01*
X95242096Y-78204381D01*
X95146857Y-78204381D01*
X95051619Y-78156762D01*
X95004000Y-78109143D01*
X94956381Y-78013905D01*
X94908762Y-77823429D01*
X94908762Y-77585333D01*
X94956381Y-77394857D01*
X95004000Y-77299619D01*
X95051619Y-77252000D01*
X95146857Y-77204381D01*
X96670667Y-77537714D02*
X96670667Y-78204381D01*
X96670667Y-77632952D02*
X96718286Y-77585333D01*
X96813524Y-77537714D01*
X96956382Y-77537714D01*
X97051620Y-77585333D01*
X97099239Y-77680571D01*
X97099239Y-78204381D01*
X97908763Y-77680571D02*
X97575429Y-77680571D01*
X97575429Y-78204381D02*
X97575429Y-77204381D01*
X98051620Y-77204381D01*
X112609334Y-74045143D02*
X112561715Y-74092762D01*
X112418858Y-74140381D01*
X112323620Y-74140381D01*
X112180762Y-74092762D01*
X112085524Y-73997524D01*
X112037905Y-73902286D01*
X111990286Y-73711810D01*
X111990286Y-73568952D01*
X112037905Y-73378476D01*
X112085524Y-73283238D01*
X112180762Y-73188000D01*
X112323620Y-73140381D01*
X112418858Y-73140381D01*
X112561715Y-73188000D01*
X112609334Y-73235619D01*
X113466477Y-73473714D02*
X113466477Y-74140381D01*
X113228381Y-73092762D02*
X112990286Y-73807048D01*
X113609334Y-73807048D01*
X110847429Y-77640381D02*
X110276000Y-77640381D01*
X110561714Y-77640381D02*
X110561714Y-76640381D01*
X110466476Y-76783238D01*
X110371238Y-76878476D01*
X110276000Y-76926095D01*
X111466476Y-76640381D02*
X111561715Y-76640381D01*
X111656953Y-76688000D01*
X111704572Y-76735619D01*
X111752191Y-76830857D01*
X111799810Y-77021333D01*
X111799810Y-77259429D01*
X111752191Y-77449905D01*
X111704572Y-77545143D01*
X111656953Y-77592762D01*
X111561715Y-77640381D01*
X111466476Y-77640381D01*
X111371238Y-77592762D01*
X111323619Y-77545143D01*
X111276000Y-77449905D01*
X111228381Y-77259429D01*
X111228381Y-77021333D01*
X111276000Y-76830857D01*
X111323619Y-76735619D01*
X111371238Y-76688000D01*
X111466476Y-76640381D01*
X112418857Y-76640381D02*
X112514096Y-76640381D01*
X112609334Y-76688000D01*
X112656953Y-76735619D01*
X112704572Y-76830857D01*
X112752191Y-77021333D01*
X112752191Y-77259429D01*
X112704572Y-77449905D01*
X112656953Y-77545143D01*
X112609334Y-77592762D01*
X112514096Y-77640381D01*
X112418857Y-77640381D01*
X112323619Y-77592762D01*
X112276000Y-77545143D01*
X112228381Y-77449905D01*
X112180762Y-77259429D01*
X112180762Y-77021333D01*
X112228381Y-76830857D01*
X112276000Y-76735619D01*
X112323619Y-76688000D01*
X112418857Y-76640381D01*
X113942667Y-76973714D02*
X113942667Y-77640381D01*
X113942667Y-77068952D02*
X113990286Y-77021333D01*
X114085524Y-76973714D01*
X114228382Y-76973714D01*
X114323620Y-77021333D01*
X114371239Y-77116571D01*
X114371239Y-77640381D01*
X115180763Y-77116571D02*
X114847429Y-77116571D01*
X114847429Y-77640381D02*
X114847429Y-76640381D01*
X115323620Y-76640381D01*
X97893143Y-70270666D02*
X97940762Y-70318285D01*
X97988381Y-70461142D01*
X97988381Y-70556380D01*
X97940762Y-70699238D01*
X97845524Y-70794476D01*
X97750286Y-70842095D01*
X97559810Y-70889714D01*
X97416952Y-70889714D01*
X97226476Y-70842095D01*
X97131238Y-70794476D01*
X97036000Y-70699238D01*
X96988381Y-70556380D01*
X96988381Y-70461142D01*
X97036000Y-70318285D01*
X97083619Y-70270666D01*
X96988381Y-69365904D02*
X96988381Y-69842095D01*
X97464571Y-69889714D01*
X97416952Y-69842095D01*
X97369333Y-69746857D01*
X97369333Y-69508761D01*
X97416952Y-69413523D01*
X97464571Y-69365904D01*
X97559810Y-69318285D01*
X97797905Y-69318285D01*
X97893143Y-69365904D01*
X97940762Y-69413523D01*
X97988381Y-69508761D01*
X97988381Y-69746857D01*
X97940762Y-69842095D01*
X97893143Y-69889714D01*
X98750381Y-66952571D02*
X98750381Y-67524000D01*
X98750381Y-67238286D02*
X97750381Y-67238286D01*
X97893238Y-67333524D01*
X97988476Y-67428762D01*
X98036095Y-67524000D01*
X97750381Y-66333524D02*
X97750381Y-66238285D01*
X97798000Y-66143047D01*
X97845619Y-66095428D01*
X97940857Y-66047809D01*
X98131333Y-66000190D01*
X98369429Y-66000190D01*
X98559905Y-66047809D01*
X98655143Y-66095428D01*
X98702762Y-66143047D01*
X98750381Y-66238285D01*
X98750381Y-66333524D01*
X98702762Y-66428762D01*
X98655143Y-66476381D01*
X98559905Y-66524000D01*
X98369429Y-66571619D01*
X98131333Y-66571619D01*
X97940857Y-66524000D01*
X97845619Y-66476381D01*
X97798000Y-66428762D01*
X97750381Y-66333524D01*
X97750381Y-65381143D02*
X97750381Y-65285904D01*
X97798000Y-65190666D01*
X97845619Y-65143047D01*
X97940857Y-65095428D01*
X98131333Y-65047809D01*
X98369429Y-65047809D01*
X98559905Y-65095428D01*
X98655143Y-65143047D01*
X98702762Y-65190666D01*
X98750381Y-65285904D01*
X98750381Y-65381143D01*
X98702762Y-65476381D01*
X98655143Y-65524000D01*
X98559905Y-65571619D01*
X98369429Y-65619238D01*
X98131333Y-65619238D01*
X97940857Y-65571619D01*
X97845619Y-65524000D01*
X97798000Y-65476381D01*
X97750381Y-65381143D01*
X98083714Y-63857333D02*
X98750381Y-63857333D01*
X98178952Y-63857333D02*
X98131333Y-63809714D01*
X98083714Y-63714476D01*
X98083714Y-63571618D01*
X98131333Y-63476380D01*
X98226571Y-63428761D01*
X98750381Y-63428761D01*
X98226571Y-62619237D02*
X98226571Y-62952571D01*
X98750381Y-62952571D02*
X97750381Y-62952571D01*
X97750381Y-62476380D01*
X110311143Y-87034666D02*
X110358762Y-87082285D01*
X110406381Y-87225142D01*
X110406381Y-87320380D01*
X110358762Y-87463238D01*
X110263524Y-87558476D01*
X110168286Y-87606095D01*
X109977810Y-87653714D01*
X109834952Y-87653714D01*
X109644476Y-87606095D01*
X109549238Y-87558476D01*
X109454000Y-87463238D01*
X109406381Y-87320380D01*
X109406381Y-87225142D01*
X109454000Y-87082285D01*
X109501619Y-87034666D01*
X109406381Y-86177523D02*
X109406381Y-86368000D01*
X109454000Y-86463238D01*
X109501619Y-86510857D01*
X109644476Y-86606095D01*
X109834952Y-86653714D01*
X110215905Y-86653714D01*
X110311143Y-86606095D01*
X110358762Y-86558476D01*
X110406381Y-86463238D01*
X110406381Y-86272761D01*
X110358762Y-86177523D01*
X110311143Y-86129904D01*
X110215905Y-86082285D01*
X109977810Y-86082285D01*
X109882571Y-86129904D01*
X109834952Y-86177523D01*
X109787333Y-86272761D01*
X109787333Y-86463238D01*
X109834952Y-86558476D01*
X109882571Y-86606095D01*
X109977810Y-86653714D01*
X106906381Y-88796571D02*
X106906381Y-89368000D01*
X106906381Y-89082286D02*
X105906381Y-89082286D01*
X106049238Y-89177524D01*
X106144476Y-89272762D01*
X106192095Y-89368000D01*
X105906381Y-88177524D02*
X105906381Y-88082285D01*
X105954000Y-87987047D01*
X106001619Y-87939428D01*
X106096857Y-87891809D01*
X106287333Y-87844190D01*
X106525429Y-87844190D01*
X106715905Y-87891809D01*
X106811143Y-87939428D01*
X106858762Y-87987047D01*
X106906381Y-88082285D01*
X106906381Y-88177524D01*
X106858762Y-88272762D01*
X106811143Y-88320381D01*
X106715905Y-88368000D01*
X106525429Y-88415619D01*
X106287333Y-88415619D01*
X106096857Y-88368000D01*
X106001619Y-88320381D01*
X105954000Y-88272762D01*
X105906381Y-88177524D01*
X105906381Y-87225143D02*
X105906381Y-87129904D01*
X105954000Y-87034666D01*
X106001619Y-86987047D01*
X106096857Y-86939428D01*
X106287333Y-86891809D01*
X106525429Y-86891809D01*
X106715905Y-86939428D01*
X106811143Y-86987047D01*
X106858762Y-87034666D01*
X106906381Y-87129904D01*
X106906381Y-87225143D01*
X106858762Y-87320381D01*
X106811143Y-87368000D01*
X106715905Y-87415619D01*
X106525429Y-87463238D01*
X106287333Y-87463238D01*
X106096857Y-87415619D01*
X106001619Y-87368000D01*
X105954000Y-87320381D01*
X105906381Y-87225143D01*
X106239714Y-85701333D02*
X106906381Y-85701333D01*
X106334952Y-85701333D02*
X106287333Y-85653714D01*
X106239714Y-85558476D01*
X106239714Y-85415618D01*
X106287333Y-85320380D01*
X106382571Y-85272761D01*
X106906381Y-85272761D01*
X106382571Y-84463237D02*
X106382571Y-84796571D01*
X106906381Y-84796571D02*
X105906381Y-84796571D01*
X105906381Y-84320380D01*
X94365143Y-69000666D02*
X94412762Y-69048285D01*
X94460381Y-69191142D01*
X94460381Y-69286380D01*
X94412762Y-69429238D01*
X94317524Y-69524476D01*
X94222286Y-69572095D01*
X94031810Y-69619714D01*
X93888952Y-69619714D01*
X93698476Y-69572095D01*
X93603238Y-69524476D01*
X93508000Y-69429238D01*
X93460381Y-69286380D01*
X93460381Y-69191142D01*
X93508000Y-69048285D01*
X93555619Y-69000666D01*
X93460381Y-68667333D02*
X93460381Y-68000666D01*
X94460381Y-68429238D01*
X95543714Y-65793714D02*
X96210381Y-65793714D01*
X95162762Y-66031810D02*
X95877048Y-66269905D01*
X95877048Y-65650857D01*
X96115143Y-65269905D02*
X96162762Y-65222286D01*
X96210381Y-65269905D01*
X96162762Y-65317524D01*
X96115143Y-65269905D01*
X96210381Y-65269905D01*
X95210381Y-64888953D02*
X95210381Y-64222286D01*
X96210381Y-64650858D01*
X95543714Y-62650857D02*
X96210381Y-62650857D01*
X95543714Y-63079429D02*
X96067524Y-63079429D01*
X96162762Y-63031810D01*
X96210381Y-62936572D01*
X96210381Y-62793714D01*
X96162762Y-62698476D01*
X96115143Y-62650857D01*
X95686571Y-61841333D02*
X95686571Y-62174667D01*
X96210381Y-62174667D02*
X95210381Y-62174667D01*
X95210381Y-61698476D01*
X86891905Y-88932381D02*
X86891905Y-87932381D01*
X87130000Y-87932381D01*
X87272858Y-87980000D01*
X87368096Y-88075238D01*
X87415715Y-88170476D01*
X87463334Y-88360952D01*
X87463334Y-88503810D01*
X87415715Y-88694286D01*
X87368096Y-88789524D01*
X87272858Y-88884762D01*
X87130000Y-88932381D01*
X86891905Y-88932381D01*
X88415715Y-88932381D02*
X87844286Y-88932381D01*
X88130000Y-88932381D02*
X88130000Y-87932381D01*
X88034762Y-88075238D01*
X87939524Y-88170476D01*
X87844286Y-88218095D01*
X86987143Y-94852381D02*
X86510952Y-94852381D01*
X86510952Y-93852381D01*
X87320476Y-94328571D02*
X87653810Y-94328571D01*
X87796667Y-94852381D02*
X87320476Y-94852381D01*
X87320476Y-93852381D01*
X87796667Y-93852381D01*
X88225238Y-94852381D02*
X88225238Y-93852381D01*
X88463333Y-93852381D01*
X88606191Y-93900000D01*
X88701429Y-93995238D01*
X88749048Y-94090476D01*
X88796667Y-94280952D01*
X88796667Y-94423810D01*
X88749048Y-94614286D01*
X88701429Y-94709524D01*
X88606191Y-94804762D01*
X88463333Y-94852381D01*
X88225238Y-94852381D01*
X71731333Y-89352381D02*
X71731333Y-88352381D01*
X72112286Y-88352381D01*
X72207524Y-88400000D01*
X72255143Y-88447619D01*
X72302762Y-88542857D01*
X72302762Y-88685714D01*
X72255143Y-88780952D01*
X72207524Y-88828571D01*
X72112286Y-88876190D01*
X71731333Y-88876190D01*
X72683714Y-89066667D02*
X73159905Y-89066667D01*
X72588476Y-89352381D02*
X72921809Y-88352381D01*
X73255143Y-89352381D01*
X74112286Y-89352381D02*
X73540857Y-89352381D01*
X73826571Y-89352381D02*
X73826571Y-88352381D01*
X73731333Y-88495238D01*
X73636095Y-88590476D01*
X73540857Y-88638095D01*
X71731333Y-91892381D02*
X71731333Y-90892381D01*
X72112286Y-90892381D01*
X72207524Y-90940000D01*
X72255143Y-90987619D01*
X72302762Y-91082857D01*
X72302762Y-91225714D01*
X72255143Y-91320952D01*
X72207524Y-91368571D01*
X72112286Y-91416190D01*
X71731333Y-91416190D01*
X72683714Y-91606667D02*
X73159905Y-91606667D01*
X72588476Y-91892381D02*
X72921809Y-90892381D01*
X73255143Y-91892381D01*
X73540857Y-90987619D02*
X73588476Y-90940000D01*
X73683714Y-90892381D01*
X73921810Y-90892381D01*
X74017048Y-90940000D01*
X74064667Y-90987619D01*
X74112286Y-91082857D01*
X74112286Y-91178095D01*
X74064667Y-91320952D01*
X73493238Y-91892381D01*
X74112286Y-91892381D01*
X89352381Y-110894667D02*
X88352381Y-110894667D01*
X88352381Y-110513714D01*
X88400000Y-110418476D01*
X88447619Y-110370857D01*
X88542857Y-110323238D01*
X88685714Y-110323238D01*
X88780952Y-110370857D01*
X88828571Y-110418476D01*
X88876190Y-110513714D01*
X88876190Y-110894667D01*
X89066667Y-109942286D02*
X89066667Y-109466095D01*
X89352381Y-110037524D02*
X88352381Y-109704191D01*
X89352381Y-109370857D01*
X88685714Y-108608952D02*
X89352381Y-108608952D01*
X88304762Y-108847048D02*
X89019048Y-109085143D01*
X89019048Y-108466095D01*
X91892381Y-110894667D02*
X90892381Y-110894667D01*
X90892381Y-110513714D01*
X90940000Y-110418476D01*
X90987619Y-110370857D01*
X91082857Y-110323238D01*
X91225714Y-110323238D01*
X91320952Y-110370857D01*
X91368571Y-110418476D01*
X91416190Y-110513714D01*
X91416190Y-110894667D01*
X91606667Y-109942286D02*
X91606667Y-109466095D01*
X91892381Y-110037524D02*
X90892381Y-109704191D01*
X91892381Y-109370857D01*
X90892381Y-108561333D02*
X90892381Y-109037524D01*
X91368571Y-109085143D01*
X91320952Y-109037524D01*
X91273333Y-108942286D01*
X91273333Y-108704190D01*
X91320952Y-108608952D01*
X91368571Y-108561333D01*
X91463810Y-108513714D01*
X91701905Y-108513714D01*
X91797143Y-108561333D01*
X91844762Y-108608952D01*
X91892381Y-108704190D01*
X91892381Y-108942286D01*
X91844762Y-109037524D01*
X91797143Y-109085143D01*
X94432381Y-110894667D02*
X93432381Y-110894667D01*
X93432381Y-110513714D01*
X93480000Y-110418476D01*
X93527619Y-110370857D01*
X93622857Y-110323238D01*
X93765714Y-110323238D01*
X93860952Y-110370857D01*
X93908571Y-110418476D01*
X93956190Y-110513714D01*
X93956190Y-110894667D01*
X94146667Y-109942286D02*
X94146667Y-109466095D01*
X94432381Y-110037524D02*
X93432381Y-109704191D01*
X94432381Y-109370857D01*
X93432381Y-108608952D02*
X93432381Y-108799429D01*
X93480000Y-108894667D01*
X93527619Y-108942286D01*
X93670476Y-109037524D01*
X93860952Y-109085143D01*
X94241905Y-109085143D01*
X94337143Y-109037524D01*
X94384762Y-108989905D01*
X94432381Y-108894667D01*
X94432381Y-108704190D01*
X94384762Y-108608952D01*
X94337143Y-108561333D01*
X94241905Y-108513714D01*
X94003810Y-108513714D01*
X93908571Y-108561333D01*
X93860952Y-108608952D01*
X93813333Y-108704190D01*
X93813333Y-108894667D01*
X93860952Y-108989905D01*
X93908571Y-109037524D01*
X94003810Y-109085143D01*
X96972381Y-110894667D02*
X95972381Y-110894667D01*
X95972381Y-110513714D01*
X96020000Y-110418476D01*
X96067619Y-110370857D01*
X96162857Y-110323238D01*
X96305714Y-110323238D01*
X96400952Y-110370857D01*
X96448571Y-110418476D01*
X96496190Y-110513714D01*
X96496190Y-110894667D01*
X96686667Y-109942286D02*
X96686667Y-109466095D01*
X96972381Y-110037524D02*
X95972381Y-109704191D01*
X96972381Y-109370857D01*
X95972381Y-109132762D02*
X95972381Y-108466095D01*
X96972381Y-108894667D01*
X99512381Y-110966095D02*
X98512381Y-110966095D01*
X98512381Y-110585142D01*
X98560000Y-110489904D01*
X98607619Y-110442285D01*
X98702857Y-110394666D01*
X98845714Y-110394666D01*
X98940952Y-110442285D01*
X98988571Y-110489904D01*
X99036190Y-110585142D01*
X99036190Y-110966095D01*
X98988571Y-109632761D02*
X99036190Y-109489904D01*
X99083810Y-109442285D01*
X99179048Y-109394666D01*
X99321905Y-109394666D01*
X99417143Y-109442285D01*
X99464762Y-109489904D01*
X99512381Y-109585142D01*
X99512381Y-109966095D01*
X98512381Y-109966095D01*
X98512381Y-109632761D01*
X98560000Y-109537523D01*
X98607619Y-109489904D01*
X98702857Y-109442285D01*
X98798095Y-109442285D01*
X98893333Y-109489904D01*
X98940952Y-109537523D01*
X98988571Y-109632761D01*
X98988571Y-109966095D01*
X98512381Y-108775619D02*
X98512381Y-108680380D01*
X98560000Y-108585142D01*
X98607619Y-108537523D01*
X98702857Y-108489904D01*
X98893333Y-108442285D01*
X99131429Y-108442285D01*
X99321905Y-108489904D01*
X99417143Y-108537523D01*
X99464762Y-108585142D01*
X99512381Y-108680380D01*
X99512381Y-108775619D01*
X99464762Y-108870857D01*
X99417143Y-108918476D01*
X99321905Y-108966095D01*
X99131429Y-109013714D01*
X98893333Y-109013714D01*
X98702857Y-108966095D01*
X98607619Y-108918476D01*
X98560000Y-108870857D01*
X98512381Y-108775619D01*
X102052381Y-110966095D02*
X101052381Y-110966095D01*
X101052381Y-110585142D01*
X101100000Y-110489904D01*
X101147619Y-110442285D01*
X101242857Y-110394666D01*
X101385714Y-110394666D01*
X101480952Y-110442285D01*
X101528571Y-110489904D01*
X101576190Y-110585142D01*
X101576190Y-110966095D01*
X101528571Y-109632761D02*
X101576190Y-109489904D01*
X101623810Y-109442285D01*
X101719048Y-109394666D01*
X101861905Y-109394666D01*
X101957143Y-109442285D01*
X102004762Y-109489904D01*
X102052381Y-109585142D01*
X102052381Y-109966095D01*
X101052381Y-109966095D01*
X101052381Y-109632761D01*
X101100000Y-109537523D01*
X101147619Y-109489904D01*
X101242857Y-109442285D01*
X101338095Y-109442285D01*
X101433333Y-109489904D01*
X101480952Y-109537523D01*
X101528571Y-109632761D01*
X101528571Y-109966095D01*
X102052381Y-108442285D02*
X102052381Y-109013714D01*
X102052381Y-108728000D02*
X101052381Y-108728000D01*
X101195238Y-108823238D01*
X101290476Y-108918476D01*
X101338095Y-109013714D01*
X104592381Y-110966095D02*
X103592381Y-110966095D01*
X103592381Y-110585142D01*
X103640000Y-110489904D01*
X103687619Y-110442285D01*
X103782857Y-110394666D01*
X103925714Y-110394666D01*
X104020952Y-110442285D01*
X104068571Y-110489904D01*
X104116190Y-110585142D01*
X104116190Y-110966095D01*
X104068571Y-109632761D02*
X104116190Y-109489904D01*
X104163810Y-109442285D01*
X104259048Y-109394666D01*
X104401905Y-109394666D01*
X104497143Y-109442285D01*
X104544762Y-109489904D01*
X104592381Y-109585142D01*
X104592381Y-109966095D01*
X103592381Y-109966095D01*
X103592381Y-109632761D01*
X103640000Y-109537523D01*
X103687619Y-109489904D01*
X103782857Y-109442285D01*
X103878095Y-109442285D01*
X103973333Y-109489904D01*
X104020952Y-109537523D01*
X104068571Y-109632761D01*
X104068571Y-109966095D01*
X103687619Y-109013714D02*
X103640000Y-108966095D01*
X103592381Y-108870857D01*
X103592381Y-108632761D01*
X103640000Y-108537523D01*
X103687619Y-108489904D01*
X103782857Y-108442285D01*
X103878095Y-108442285D01*
X104020952Y-108489904D01*
X104592381Y-109061333D01*
X104592381Y-108442285D01*
X102052381Y-56356095D02*
X101052381Y-56356095D01*
X101052381Y-55975142D01*
X101100000Y-55879904D01*
X101147619Y-55832285D01*
X101242857Y-55784666D01*
X101385714Y-55784666D01*
X101480952Y-55832285D01*
X101528571Y-55879904D01*
X101576190Y-55975142D01*
X101576190Y-56356095D01*
X101528571Y-55022761D02*
X101576190Y-54879904D01*
X101623810Y-54832285D01*
X101719048Y-54784666D01*
X101861905Y-54784666D01*
X101957143Y-54832285D01*
X102004762Y-54879904D01*
X102052381Y-54975142D01*
X102052381Y-55356095D01*
X101052381Y-55356095D01*
X101052381Y-55022761D01*
X101100000Y-54927523D01*
X101147619Y-54879904D01*
X101242857Y-54832285D01*
X101338095Y-54832285D01*
X101433333Y-54879904D01*
X101480952Y-54927523D01*
X101528571Y-55022761D01*
X101528571Y-55356095D01*
X101385714Y-53927523D02*
X102052381Y-53927523D01*
X101004762Y-54165619D02*
X101719048Y-54403714D01*
X101719048Y-53784666D01*
X94432381Y-56356095D02*
X93432381Y-56356095D01*
X93432381Y-55975142D01*
X93480000Y-55879904D01*
X93527619Y-55832285D01*
X93622857Y-55784666D01*
X93765714Y-55784666D01*
X93860952Y-55832285D01*
X93908571Y-55879904D01*
X93956190Y-55975142D01*
X93956190Y-56356095D01*
X93908571Y-55022761D02*
X93956190Y-54879904D01*
X94003810Y-54832285D01*
X94099048Y-54784666D01*
X94241905Y-54784666D01*
X94337143Y-54832285D01*
X94384762Y-54879904D01*
X94432381Y-54975142D01*
X94432381Y-55356095D01*
X93432381Y-55356095D01*
X93432381Y-55022761D01*
X93480000Y-54927523D01*
X93527619Y-54879904D01*
X93622857Y-54832285D01*
X93718095Y-54832285D01*
X93813333Y-54879904D01*
X93860952Y-54927523D01*
X93908571Y-55022761D01*
X93908571Y-55356095D01*
X93860952Y-54213238D02*
X93813333Y-54308476D01*
X93765714Y-54356095D01*
X93670476Y-54403714D01*
X93622857Y-54403714D01*
X93527619Y-54356095D01*
X93480000Y-54308476D01*
X93432381Y-54213238D01*
X93432381Y-54022761D01*
X93480000Y-53927523D01*
X93527619Y-53879904D01*
X93622857Y-53832285D01*
X93670476Y-53832285D01*
X93765714Y-53879904D01*
X93813333Y-53927523D01*
X93860952Y-54022761D01*
X93860952Y-54213238D01*
X93908571Y-54308476D01*
X93956190Y-54356095D01*
X94051429Y-54403714D01*
X94241905Y-54403714D01*
X94337143Y-54356095D01*
X94384762Y-54308476D01*
X94432381Y-54213238D01*
X94432381Y-54022761D01*
X94384762Y-53927523D01*
X94337143Y-53879904D01*
X94241905Y-53832285D01*
X94051429Y-53832285D01*
X93956190Y-53879904D01*
X93908571Y-53927523D01*
X93860952Y-54022761D01*
X91892381Y-56356095D02*
X90892381Y-56356095D01*
X90892381Y-55975142D01*
X90940000Y-55879904D01*
X90987619Y-55832285D01*
X91082857Y-55784666D01*
X91225714Y-55784666D01*
X91320952Y-55832285D01*
X91368571Y-55879904D01*
X91416190Y-55975142D01*
X91416190Y-56356095D01*
X91368571Y-55022761D02*
X91416190Y-54879904D01*
X91463810Y-54832285D01*
X91559048Y-54784666D01*
X91701905Y-54784666D01*
X91797143Y-54832285D01*
X91844762Y-54879904D01*
X91892381Y-54975142D01*
X91892381Y-55356095D01*
X90892381Y-55356095D01*
X90892381Y-55022761D01*
X90940000Y-54927523D01*
X90987619Y-54879904D01*
X91082857Y-54832285D01*
X91178095Y-54832285D01*
X91273333Y-54879904D01*
X91320952Y-54927523D01*
X91368571Y-55022761D01*
X91368571Y-55356095D01*
X91892381Y-54308476D02*
X91892381Y-54118000D01*
X91844762Y-54022761D01*
X91797143Y-53975142D01*
X91654286Y-53879904D01*
X91463810Y-53832285D01*
X91082857Y-53832285D01*
X90987619Y-53879904D01*
X90940000Y-53927523D01*
X90892381Y-54022761D01*
X90892381Y-54213238D01*
X90940000Y-54308476D01*
X90987619Y-54356095D01*
X91082857Y-54403714D01*
X91320952Y-54403714D01*
X91416190Y-54356095D01*
X91463810Y-54308476D01*
X91511429Y-54213238D01*
X91511429Y-54022761D01*
X91463810Y-53927523D01*
X91416190Y-53879904D01*
X91320952Y-53832285D01*
X109672381Y-111950286D02*
X108672381Y-111950286D01*
X108672381Y-111569333D01*
X108720000Y-111474095D01*
X108767619Y-111426476D01*
X108862857Y-111378857D01*
X109005714Y-111378857D01*
X109100952Y-111426476D01*
X109148571Y-111474095D01*
X109196190Y-111569333D01*
X109196190Y-111950286D01*
X109148571Y-110616952D02*
X109196190Y-110474095D01*
X109243810Y-110426476D01*
X109339048Y-110378857D01*
X109481905Y-110378857D01*
X109577143Y-110426476D01*
X109624762Y-110474095D01*
X109672381Y-110569333D01*
X109672381Y-110950286D01*
X108672381Y-110950286D01*
X108672381Y-110616952D01*
X108720000Y-110521714D01*
X108767619Y-110474095D01*
X108862857Y-110426476D01*
X108958095Y-110426476D01*
X109053333Y-110474095D01*
X109100952Y-110521714D01*
X109148571Y-110616952D01*
X109148571Y-110950286D01*
X109672381Y-109426476D02*
X109672381Y-109997905D01*
X109672381Y-109712191D02*
X108672381Y-109712191D01*
X108815238Y-109807429D01*
X108910476Y-109902667D01*
X108958095Y-109997905D01*
X108672381Y-108807429D02*
X108672381Y-108712190D01*
X108720000Y-108616952D01*
X108767619Y-108569333D01*
X108862857Y-108521714D01*
X109053333Y-108474095D01*
X109291429Y-108474095D01*
X109481905Y-108521714D01*
X109577143Y-108569333D01*
X109624762Y-108616952D01*
X109672381Y-108712190D01*
X109672381Y-108807429D01*
X109624762Y-108902667D01*
X109577143Y-108950286D01*
X109481905Y-108997905D01*
X109291429Y-109045524D01*
X109053333Y-109045524D01*
X108862857Y-108997905D01*
X108767619Y-108950286D01*
X108720000Y-108902667D01*
X108672381Y-108807429D01*
X124015714Y-107132381D02*
X124015714Y-106132381D01*
X124396667Y-106132381D01*
X124491905Y-106180000D01*
X124539524Y-106227619D01*
X124587143Y-106322857D01*
X124587143Y-106465714D01*
X124539524Y-106560952D01*
X124491905Y-106608571D01*
X124396667Y-106656190D01*
X124015714Y-106656190D01*
X125349048Y-106608571D02*
X125491905Y-106656190D01*
X125539524Y-106703810D01*
X125587143Y-106799048D01*
X125587143Y-106941905D01*
X125539524Y-107037143D01*
X125491905Y-107084762D01*
X125396667Y-107132381D01*
X125015714Y-107132381D01*
X125015714Y-106132381D01*
X125349048Y-106132381D01*
X125444286Y-106180000D01*
X125491905Y-106227619D01*
X125539524Y-106322857D01*
X125539524Y-106418095D01*
X125491905Y-106513333D01*
X125444286Y-106560952D01*
X125349048Y-106608571D01*
X125015714Y-106608571D01*
X126539524Y-107132381D02*
X125968095Y-107132381D01*
X126253809Y-107132381D02*
X126253809Y-106132381D01*
X126158571Y-106275238D01*
X126063333Y-106370476D01*
X125968095Y-106418095D01*
X127491905Y-107132381D02*
X126920476Y-107132381D01*
X127206190Y-107132381D02*
X127206190Y-106132381D01*
X127110952Y-106275238D01*
X127015714Y-106370476D01*
X126920476Y-106418095D01*
X124015714Y-104592381D02*
X124015714Y-103592381D01*
X124396667Y-103592381D01*
X124491905Y-103640000D01*
X124539524Y-103687619D01*
X124587143Y-103782857D01*
X124587143Y-103925714D01*
X124539524Y-104020952D01*
X124491905Y-104068571D01*
X124396667Y-104116190D01*
X124015714Y-104116190D01*
X125349048Y-104068571D02*
X125491905Y-104116190D01*
X125539524Y-104163810D01*
X125587143Y-104259048D01*
X125587143Y-104401905D01*
X125539524Y-104497143D01*
X125491905Y-104544762D01*
X125396667Y-104592381D01*
X125015714Y-104592381D01*
X125015714Y-103592381D01*
X125349048Y-103592381D01*
X125444286Y-103640000D01*
X125491905Y-103687619D01*
X125539524Y-103782857D01*
X125539524Y-103878095D01*
X125491905Y-103973333D01*
X125444286Y-104020952D01*
X125349048Y-104068571D01*
X125015714Y-104068571D01*
X126539524Y-104592381D02*
X125968095Y-104592381D01*
X126253809Y-104592381D02*
X126253809Y-103592381D01*
X126158571Y-103735238D01*
X126063333Y-103830476D01*
X125968095Y-103878095D01*
X126920476Y-103687619D02*
X126968095Y-103640000D01*
X127063333Y-103592381D01*
X127301429Y-103592381D01*
X127396667Y-103640000D01*
X127444286Y-103687619D01*
X127491905Y-103782857D01*
X127491905Y-103878095D01*
X127444286Y-104020952D01*
X126872857Y-104592381D01*
X127491905Y-104592381D01*
X70675714Y-81732381D02*
X70675714Y-80732381D01*
X71056667Y-80732381D01*
X71151905Y-80780000D01*
X71199524Y-80827619D01*
X71247143Y-80922857D01*
X71247143Y-81065714D01*
X71199524Y-81160952D01*
X71151905Y-81208571D01*
X71056667Y-81256190D01*
X70675714Y-81256190D01*
X72247143Y-81637143D02*
X72199524Y-81684762D01*
X72056667Y-81732381D01*
X71961429Y-81732381D01*
X71818571Y-81684762D01*
X71723333Y-81589524D01*
X71675714Y-81494286D01*
X71628095Y-81303810D01*
X71628095Y-81160952D01*
X71675714Y-80970476D01*
X71723333Y-80875238D01*
X71818571Y-80780000D01*
X71961429Y-80732381D01*
X72056667Y-80732381D01*
X72199524Y-80780000D01*
X72247143Y-80827619D01*
X73199524Y-81732381D02*
X72628095Y-81732381D01*
X72913809Y-81732381D02*
X72913809Y-80732381D01*
X72818571Y-80875238D01*
X72723333Y-80970476D01*
X72628095Y-81018095D01*
X73532857Y-80732381D02*
X74151905Y-80732381D01*
X73818571Y-81113333D01*
X73961429Y-81113333D01*
X74056667Y-81160952D01*
X74104286Y-81208571D01*
X74151905Y-81303810D01*
X74151905Y-81541905D01*
X74104286Y-81637143D01*
X74056667Y-81684762D01*
X73961429Y-81732381D01*
X73675714Y-81732381D01*
X73580476Y-81684762D01*
X73532857Y-81637143D01*
X71636095Y-84272381D02*
X71636095Y-83272381D01*
X72017048Y-83272381D01*
X72112286Y-83320000D01*
X72159905Y-83367619D01*
X72207524Y-83462857D01*
X72207524Y-83605714D01*
X72159905Y-83700952D01*
X72112286Y-83748571D01*
X72017048Y-83796190D01*
X71636095Y-83796190D01*
X72636095Y-84272381D02*
X72636095Y-83272381D01*
X72636095Y-83748571D02*
X73207524Y-83748571D01*
X73207524Y-84272381D02*
X73207524Y-83272381D01*
X73874190Y-83272381D02*
X73969429Y-83272381D01*
X74064667Y-83320000D01*
X74112286Y-83367619D01*
X74159905Y-83462857D01*
X74207524Y-83653333D01*
X74207524Y-83891429D01*
X74159905Y-84081905D01*
X74112286Y-84177143D01*
X74064667Y-84224762D01*
X73969429Y-84272381D01*
X73874190Y-84272381D01*
X73778952Y-84224762D01*
X73731333Y-84177143D01*
X73683714Y-84081905D01*
X73636095Y-83891429D01*
X73636095Y-83653333D01*
X73683714Y-83462857D01*
X73731333Y-83367619D01*
X73778952Y-83320000D01*
X73874190Y-83272381D01*
X71636095Y-86812381D02*
X71636095Y-85812381D01*
X72017048Y-85812381D01*
X72112286Y-85860000D01*
X72159905Y-85907619D01*
X72207524Y-86002857D01*
X72207524Y-86145714D01*
X72159905Y-86240952D01*
X72112286Y-86288571D01*
X72017048Y-86336190D01*
X71636095Y-86336190D01*
X72636095Y-86812381D02*
X72636095Y-85812381D01*
X72636095Y-86288571D02*
X73207524Y-86288571D01*
X73207524Y-86812381D02*
X73207524Y-85812381D01*
X74207524Y-86812381D02*
X73636095Y-86812381D01*
X73921809Y-86812381D02*
X73921809Y-85812381D01*
X73826571Y-85955238D01*
X73731333Y-86050476D01*
X73636095Y-86098095D01*
X124087429Y-99464762D02*
X124230286Y-99512381D01*
X124468382Y-99512381D01*
X124563620Y-99464762D01*
X124611239Y-99417143D01*
X124658858Y-99321905D01*
X124658858Y-99226667D01*
X124611239Y-99131429D01*
X124563620Y-99083810D01*
X124468382Y-99036190D01*
X124277905Y-98988571D01*
X124182667Y-98940952D01*
X124135048Y-98893333D01*
X124087429Y-98798095D01*
X124087429Y-98702857D01*
X124135048Y-98607619D01*
X124182667Y-98560000D01*
X124277905Y-98512381D01*
X124516001Y-98512381D01*
X124658858Y-98560000D01*
X125087429Y-99512381D02*
X125087429Y-98512381D01*
X125468382Y-98512381D01*
X125563620Y-98560000D01*
X125611239Y-98607619D01*
X125658858Y-98702857D01*
X125658858Y-98845714D01*
X125611239Y-98940952D01*
X125563620Y-98988571D01*
X125468382Y-99036190D01*
X125087429Y-99036190D01*
X126087429Y-99512381D02*
X126087429Y-98512381D01*
X126516000Y-98607619D02*
X126563619Y-98560000D01*
X126658857Y-98512381D01*
X126896953Y-98512381D01*
X126992191Y-98560000D01*
X127039810Y-98607619D01*
X127087429Y-98702857D01*
X127087429Y-98798095D01*
X127039810Y-98940952D01*
X126468381Y-99512381D01*
X127087429Y-99512381D01*
X127516000Y-99131429D02*
X128277905Y-99131429D01*
X128754095Y-99512381D02*
X128754095Y-98512381D01*
X129087429Y-99226667D01*
X129420762Y-98512381D01*
X129420762Y-99512381D01*
X130087428Y-98512381D02*
X130277905Y-98512381D01*
X130373143Y-98560000D01*
X130468381Y-98655238D01*
X130516000Y-98845714D01*
X130516000Y-99179048D01*
X130468381Y-99369524D01*
X130373143Y-99464762D01*
X130277905Y-99512381D01*
X130087428Y-99512381D01*
X129992190Y-99464762D01*
X129896952Y-99369524D01*
X129849333Y-99179048D01*
X129849333Y-98845714D01*
X129896952Y-98655238D01*
X129992190Y-98560000D01*
X130087428Y-98512381D01*
X130896952Y-99464762D02*
X131039809Y-99512381D01*
X131277905Y-99512381D01*
X131373143Y-99464762D01*
X131420762Y-99417143D01*
X131468381Y-99321905D01*
X131468381Y-99226667D01*
X131420762Y-99131429D01*
X131373143Y-99083810D01*
X131277905Y-99036190D01*
X131087428Y-98988571D01*
X130992190Y-98940952D01*
X130944571Y-98893333D01*
X130896952Y-98798095D01*
X130896952Y-98702857D01*
X130944571Y-98607619D01*
X130992190Y-98560000D01*
X131087428Y-98512381D01*
X131325524Y-98512381D01*
X131468381Y-98560000D01*
X131896952Y-99512381D02*
X131896952Y-98512381D01*
X124087429Y-102004762D02*
X124230286Y-102052381D01*
X124468382Y-102052381D01*
X124563620Y-102004762D01*
X124611239Y-101957143D01*
X124658858Y-101861905D01*
X124658858Y-101766667D01*
X124611239Y-101671429D01*
X124563620Y-101623810D01*
X124468382Y-101576190D01*
X124277905Y-101528571D01*
X124182667Y-101480952D01*
X124135048Y-101433333D01*
X124087429Y-101338095D01*
X124087429Y-101242857D01*
X124135048Y-101147619D01*
X124182667Y-101100000D01*
X124277905Y-101052381D01*
X124516001Y-101052381D01*
X124658858Y-101100000D01*
X125087429Y-102052381D02*
X125087429Y-101052381D01*
X125468382Y-101052381D01*
X125563620Y-101100000D01*
X125611239Y-101147619D01*
X125658858Y-101242857D01*
X125658858Y-101385714D01*
X125611239Y-101480952D01*
X125563620Y-101528571D01*
X125468382Y-101576190D01*
X125087429Y-101576190D01*
X126087429Y-102052381D02*
X126087429Y-101052381D01*
X126516000Y-101147619D02*
X126563619Y-101100000D01*
X126658857Y-101052381D01*
X126896953Y-101052381D01*
X126992191Y-101100000D01*
X127039810Y-101147619D01*
X127087429Y-101242857D01*
X127087429Y-101338095D01*
X127039810Y-101480952D01*
X126468381Y-102052381D01*
X127087429Y-102052381D01*
X127516000Y-101671429D02*
X128277905Y-101671429D01*
X128754095Y-102052381D02*
X128754095Y-101052381D01*
X129087429Y-101766667D01*
X129420762Y-101052381D01*
X129420762Y-102052381D01*
X129896952Y-102052381D02*
X129896952Y-101052381D01*
X130325523Y-102004762D02*
X130468380Y-102052381D01*
X130706476Y-102052381D01*
X130801714Y-102004762D01*
X130849333Y-101957143D01*
X130896952Y-101861905D01*
X130896952Y-101766667D01*
X130849333Y-101671429D01*
X130801714Y-101623810D01*
X130706476Y-101576190D01*
X130515999Y-101528571D01*
X130420761Y-101480952D01*
X130373142Y-101433333D01*
X130325523Y-101338095D01*
X130325523Y-101242857D01*
X130373142Y-101147619D01*
X130420761Y-101100000D01*
X130515999Y-101052381D01*
X130754095Y-101052381D01*
X130896952Y-101100000D01*
X131515999Y-101052381D02*
X131706476Y-101052381D01*
X131801714Y-101100000D01*
X131896952Y-101195238D01*
X131944571Y-101385714D01*
X131944571Y-101719048D01*
X131896952Y-101909524D01*
X131801714Y-102004762D01*
X131706476Y-102052381D01*
X131515999Y-102052381D01*
X131420761Y-102004762D01*
X131325523Y-101909524D01*
X131277904Y-101719048D01*
X131277904Y-101385714D01*
X131325523Y-101195238D01*
X131420761Y-101100000D01*
X131515999Y-101052381D01*
X107084762Y-115609238D02*
X107132381Y-115466381D01*
X107132381Y-115228285D01*
X107084762Y-115133047D01*
X107037143Y-115085428D01*
X106941905Y-115037809D01*
X106846667Y-115037809D01*
X106751429Y-115085428D01*
X106703810Y-115133047D01*
X106656190Y-115228285D01*
X106608571Y-115418762D01*
X106560952Y-115514000D01*
X106513333Y-115561619D01*
X106418095Y-115609238D01*
X106322857Y-115609238D01*
X106227619Y-115561619D01*
X106180000Y-115514000D01*
X106132381Y-115418762D01*
X106132381Y-115180666D01*
X106180000Y-115037809D01*
X107132381Y-114609238D02*
X106132381Y-114609238D01*
X106132381Y-114228285D01*
X106180000Y-114133047D01*
X106227619Y-114085428D01*
X106322857Y-114037809D01*
X106465714Y-114037809D01*
X106560952Y-114085428D01*
X106608571Y-114133047D01*
X106656190Y-114228285D01*
X106656190Y-114609238D01*
X107132381Y-113609238D02*
X106132381Y-113609238D01*
X106227619Y-113180667D02*
X106180000Y-113133048D01*
X106132381Y-113037810D01*
X106132381Y-112799714D01*
X106180000Y-112704476D01*
X106227619Y-112656857D01*
X106322857Y-112609238D01*
X106418095Y-112609238D01*
X106560952Y-112656857D01*
X107132381Y-113228286D01*
X107132381Y-112609238D01*
X106751429Y-112180667D02*
X106751429Y-111418762D01*
X107084762Y-110990191D02*
X107132381Y-110847334D01*
X107132381Y-110609238D01*
X107084762Y-110514000D01*
X107037143Y-110466381D01*
X106941905Y-110418762D01*
X106846667Y-110418762D01*
X106751429Y-110466381D01*
X106703810Y-110514000D01*
X106656190Y-110609238D01*
X106608571Y-110799715D01*
X106560952Y-110894953D01*
X106513333Y-110942572D01*
X106418095Y-110990191D01*
X106322857Y-110990191D01*
X106227619Y-110942572D01*
X106180000Y-110894953D01*
X106132381Y-110799715D01*
X106132381Y-110561619D01*
X106180000Y-110418762D01*
X107037143Y-109418762D02*
X107084762Y-109466381D01*
X107132381Y-109609238D01*
X107132381Y-109704476D01*
X107084762Y-109847334D01*
X106989524Y-109942572D01*
X106894286Y-109990191D01*
X106703810Y-110037810D01*
X106560952Y-110037810D01*
X106370476Y-109990191D01*
X106275238Y-109942572D01*
X106180000Y-109847334D01*
X106132381Y-109704476D01*
X106132381Y-109609238D01*
X106180000Y-109466381D01*
X106227619Y-109418762D01*
X107132381Y-108990191D02*
X106132381Y-108990191D01*
X107132381Y-108418762D02*
X106560952Y-108847334D01*
X106132381Y-108418762D02*
X106703810Y-108990191D01*
X96972381Y-56308190D02*
X95972381Y-56308190D01*
X96067619Y-55879619D02*
X96020000Y-55832000D01*
X95972381Y-55736762D01*
X95972381Y-55498666D01*
X96020000Y-55403428D01*
X96067619Y-55355809D01*
X96162857Y-55308190D01*
X96258095Y-55308190D01*
X96400952Y-55355809D01*
X96972381Y-55927238D01*
X96972381Y-55308190D01*
X96877143Y-54308190D02*
X96924762Y-54355809D01*
X96972381Y-54498666D01*
X96972381Y-54593904D01*
X96924762Y-54736762D01*
X96829524Y-54832000D01*
X96734286Y-54879619D01*
X96543810Y-54927238D01*
X96400952Y-54927238D01*
X96210476Y-54879619D01*
X96115238Y-54832000D01*
X96020000Y-54736762D01*
X95972381Y-54593904D01*
X95972381Y-54498666D01*
X96020000Y-54355809D01*
X96067619Y-54308190D01*
X96972381Y-53355809D02*
X96972381Y-53927238D01*
X96972381Y-53641524D02*
X95972381Y-53641524D01*
X96115238Y-53736762D01*
X96210476Y-53832000D01*
X96258095Y-53927238D01*
X96591429Y-52927238D02*
X96591429Y-52165333D01*
X96924762Y-51736762D02*
X96972381Y-51593905D01*
X96972381Y-51355809D01*
X96924762Y-51260571D01*
X96877143Y-51212952D01*
X96781905Y-51165333D01*
X96686667Y-51165333D01*
X96591429Y-51212952D01*
X96543810Y-51260571D01*
X96496190Y-51355809D01*
X96448571Y-51546286D01*
X96400952Y-51641524D01*
X96353333Y-51689143D01*
X96258095Y-51736762D01*
X96162857Y-51736762D01*
X96067619Y-51689143D01*
X96020000Y-51641524D01*
X95972381Y-51546286D01*
X95972381Y-51308190D01*
X96020000Y-51165333D01*
X96972381Y-50736762D02*
X95972381Y-50736762D01*
X95972381Y-50498667D01*
X96020000Y-50355809D01*
X96115238Y-50260571D01*
X96210476Y-50212952D01*
X96400952Y-50165333D01*
X96543810Y-50165333D01*
X96734286Y-50212952D01*
X96829524Y-50260571D01*
X96924762Y-50355809D01*
X96972381Y-50498667D01*
X96972381Y-50736762D01*
X96686667Y-49784381D02*
X96686667Y-49308190D01*
X96972381Y-49879619D02*
X95972381Y-49546286D01*
X96972381Y-49212952D01*
X99512381Y-56284381D02*
X98512381Y-56284381D01*
X98607619Y-55855810D02*
X98560000Y-55808191D01*
X98512381Y-55712953D01*
X98512381Y-55474857D01*
X98560000Y-55379619D01*
X98607619Y-55332000D01*
X98702857Y-55284381D01*
X98798095Y-55284381D01*
X98940952Y-55332000D01*
X99512381Y-55903429D01*
X99512381Y-55284381D01*
X99417143Y-54284381D02*
X99464762Y-54332000D01*
X99512381Y-54474857D01*
X99512381Y-54570095D01*
X99464762Y-54712953D01*
X99369524Y-54808191D01*
X99274286Y-54855810D01*
X99083810Y-54903429D01*
X98940952Y-54903429D01*
X98750476Y-54855810D01*
X98655238Y-54808191D01*
X98560000Y-54712953D01*
X98512381Y-54570095D01*
X98512381Y-54474857D01*
X98560000Y-54332000D01*
X98607619Y-54284381D01*
X99512381Y-53332000D02*
X99512381Y-53903429D01*
X99512381Y-53617715D02*
X98512381Y-53617715D01*
X98655238Y-53712953D01*
X98750476Y-53808191D01*
X98798095Y-53903429D01*
X99131429Y-52903429D02*
X99131429Y-52141524D01*
X99464762Y-51712953D02*
X99512381Y-51570096D01*
X99512381Y-51332000D01*
X99464762Y-51236762D01*
X99417143Y-51189143D01*
X99321905Y-51141524D01*
X99226667Y-51141524D01*
X99131429Y-51189143D01*
X99083810Y-51236762D01*
X99036190Y-51332000D01*
X98988571Y-51522477D01*
X98940952Y-51617715D01*
X98893333Y-51665334D01*
X98798095Y-51712953D01*
X98702857Y-51712953D01*
X98607619Y-51665334D01*
X98560000Y-51617715D01*
X98512381Y-51522477D01*
X98512381Y-51284381D01*
X98560000Y-51141524D01*
X99417143Y-50141524D02*
X99464762Y-50189143D01*
X99512381Y-50332000D01*
X99512381Y-50427238D01*
X99464762Y-50570096D01*
X99369524Y-50665334D01*
X99274286Y-50712953D01*
X99083810Y-50760572D01*
X98940952Y-50760572D01*
X98750476Y-50712953D01*
X98655238Y-50665334D01*
X98560000Y-50570096D01*
X98512381Y-50427238D01*
X98512381Y-50332000D01*
X98560000Y-50189143D01*
X98607619Y-50141524D01*
X99512381Y-49236762D02*
X99512381Y-49712953D01*
X98512381Y-49712953D01*
X124071524Y-95972381D02*
X124642953Y-95972381D01*
X124357238Y-96972381D02*
X124357238Y-95972381D01*
X124976286Y-96972381D02*
X124976286Y-95972381D01*
X125452476Y-96972381D02*
X125452476Y-95972381D01*
X125785810Y-96686667D01*
X126119143Y-95972381D01*
X126119143Y-96972381D01*
X127119143Y-96972381D02*
X126547714Y-96972381D01*
X126833428Y-96972381D02*
X126833428Y-95972381D01*
X126738190Y-96115238D01*
X126642952Y-96210476D01*
X126547714Y-96258095D01*
X127547714Y-96591429D02*
X128309619Y-96591429D01*
X129357238Y-96877143D02*
X129309619Y-96924762D01*
X129166762Y-96972381D01*
X129071524Y-96972381D01*
X128928666Y-96924762D01*
X128833428Y-96829524D01*
X128785809Y-96734286D01*
X128738190Y-96543810D01*
X128738190Y-96400952D01*
X128785809Y-96210476D01*
X128833428Y-96115238D01*
X128928666Y-96020000D01*
X129071524Y-95972381D01*
X129166762Y-95972381D01*
X129309619Y-96020000D01*
X129357238Y-96067619D01*
X129785809Y-96972381D02*
X129785809Y-95972381D01*
X129785809Y-96448571D02*
X130357238Y-96448571D01*
X130357238Y-96972381D02*
X130357238Y-95972381D01*
X131357238Y-96972381D02*
X130785809Y-96972381D01*
X131071523Y-96972381D02*
X131071523Y-95972381D01*
X130976285Y-96115238D01*
X130881047Y-96210476D01*
X130785809Y-96258095D01*
X139136952Y-93432381D02*
X139708381Y-93432381D01*
X139422666Y-94432381D02*
X139422666Y-93432381D01*
X140613143Y-94337143D02*
X140565524Y-94384762D01*
X140422667Y-94432381D01*
X140327429Y-94432381D01*
X140184571Y-94384762D01*
X140089333Y-94289524D01*
X140041714Y-94194286D01*
X139994095Y-94003810D01*
X139994095Y-93860952D01*
X140041714Y-93670476D01*
X140089333Y-93575238D01*
X140184571Y-93480000D01*
X140327429Y-93432381D01*
X140422667Y-93432381D01*
X140565524Y-93480000D01*
X140613143Y-93527619D01*
X141041714Y-94432381D02*
X141041714Y-93432381D01*
X141613143Y-94432381D02*
X141184571Y-93860952D01*
X141613143Y-93432381D02*
X141041714Y-94003810D01*
X141803619Y-94527619D02*
X142565524Y-94527619D01*
X142756000Y-94384762D02*
X142898857Y-94432381D01*
X143136953Y-94432381D01*
X143232191Y-94384762D01*
X143279810Y-94337143D01*
X143327429Y-94241905D01*
X143327429Y-94146667D01*
X143279810Y-94051429D01*
X143232191Y-94003810D01*
X143136953Y-93956190D01*
X142946476Y-93908571D01*
X142851238Y-93860952D01*
X142803619Y-93813333D01*
X142756000Y-93718095D01*
X142756000Y-93622857D01*
X142803619Y-93527619D01*
X142851238Y-93480000D01*
X142946476Y-93432381D01*
X143184572Y-93432381D01*
X143327429Y-93480000D01*
X143660762Y-93432381D02*
X143898857Y-94432381D01*
X144089334Y-93718095D01*
X144279810Y-94432381D01*
X144517905Y-93432381D01*
X145470286Y-94337143D02*
X145422667Y-94384762D01*
X145279810Y-94432381D01*
X145184572Y-94432381D01*
X145041714Y-94384762D01*
X144946476Y-94289524D01*
X144898857Y-94194286D01*
X144851238Y-94003810D01*
X144851238Y-93860952D01*
X144898857Y-93670476D01*
X144946476Y-93575238D01*
X145041714Y-93480000D01*
X145184572Y-93432381D01*
X145279810Y-93432381D01*
X145422667Y-93480000D01*
X145470286Y-93527619D01*
X146375048Y-94432381D02*
X145898857Y-94432381D01*
X145898857Y-93432381D01*
X146708381Y-94432381D02*
X146708381Y-93432381D01*
X147279810Y-94432381D02*
X146851238Y-93860952D01*
X147279810Y-93432381D02*
X146708381Y-94003810D01*
X139954096Y-103640000D02*
X139858858Y-103592381D01*
X139716001Y-103592381D01*
X139573143Y-103640000D01*
X139477905Y-103735238D01*
X139430286Y-103830476D01*
X139382667Y-104020952D01*
X139382667Y-104163810D01*
X139430286Y-104354286D01*
X139477905Y-104449524D01*
X139573143Y-104544762D01*
X139716001Y-104592381D01*
X139811239Y-104592381D01*
X139954096Y-104544762D01*
X140001715Y-104497143D01*
X140001715Y-104163810D01*
X139811239Y-104163810D01*
X140430286Y-104592381D02*
X140430286Y-103592381D01*
X141001715Y-104592381D01*
X141001715Y-103592381D01*
X141477905Y-104592381D02*
X141477905Y-103592381D01*
X141716000Y-103592381D01*
X141858858Y-103640000D01*
X141954096Y-103735238D01*
X142001715Y-103830476D01*
X142049334Y-104020952D01*
X142049334Y-104163810D01*
X142001715Y-104354286D01*
X141954096Y-104449524D01*
X141858858Y-104544762D01*
X141716000Y-104592381D01*
X141477905Y-104592381D01*
X132008571Y-80882666D02*
X132056190Y-80739809D01*
X132103810Y-80692190D01*
X132199048Y-80644571D01*
X132341905Y-80644571D01*
X132437143Y-80692190D01*
X132484762Y-80739809D01*
X132532381Y-80835047D01*
X132532381Y-81216000D01*
X131532381Y-81216000D01*
X131532381Y-80882666D01*
X131580000Y-80787428D01*
X131627619Y-80739809D01*
X131722857Y-80692190D01*
X131818095Y-80692190D01*
X131913333Y-80739809D01*
X131960952Y-80787428D01*
X132008571Y-80882666D01*
X132008571Y-81216000D01*
X132532381Y-79739809D02*
X132532381Y-80216000D01*
X131532381Y-80216000D01*
X132008571Y-79406476D02*
X132008571Y-79073142D01*
X132532381Y-78930285D02*
X132532381Y-79406476D01*
X131532381Y-79406476D01*
X131532381Y-78930285D01*
X132151429Y-78501714D02*
X132151429Y-77739809D01*
X132532381Y-76692190D02*
X132056190Y-77025524D01*
X132532381Y-77263619D02*
X131532381Y-77263619D01*
X131532381Y-76882666D01*
X131580000Y-76787428D01*
X131627619Y-76739809D01*
X131722857Y-76692190D01*
X131865714Y-76692190D01*
X131960952Y-76739809D01*
X132008571Y-76787428D01*
X132056190Y-76882666D01*
X132056190Y-77263619D01*
X132008571Y-76263619D02*
X132008571Y-75930285D01*
X132532381Y-75787428D02*
X132532381Y-76263619D01*
X131532381Y-76263619D01*
X131532381Y-75787428D01*
X132484762Y-75406476D02*
X132532381Y-75263619D01*
X132532381Y-75025523D01*
X132484762Y-74930285D01*
X132437143Y-74882666D01*
X132341905Y-74835047D01*
X132246667Y-74835047D01*
X132151429Y-74882666D01*
X132103810Y-74930285D01*
X132056190Y-75025523D01*
X132008571Y-75216000D01*
X131960952Y-75311238D01*
X131913333Y-75358857D01*
X131818095Y-75406476D01*
X131722857Y-75406476D01*
X131627619Y-75358857D01*
X131580000Y-75311238D01*
X131532381Y-75216000D01*
X131532381Y-74977904D01*
X131580000Y-74835047D01*
X132008571Y-74406476D02*
X132008571Y-74073142D01*
X132532381Y-73930285D02*
X132532381Y-74406476D01*
X131532381Y-74406476D01*
X131532381Y-73930285D01*
X131532381Y-73644571D02*
X131532381Y-73073142D01*
X132532381Y-73358857D02*
X131532381Y-73358857D01*
X113959048Y-55808571D02*
X114101905Y-55856190D01*
X114149524Y-55903810D01*
X114197143Y-55999048D01*
X114197143Y-56141905D01*
X114149524Y-56237143D01*
X114101905Y-56284762D01*
X114006667Y-56332381D01*
X113625714Y-56332381D01*
X113625714Y-55332381D01*
X113959048Y-55332381D01*
X114054286Y-55380000D01*
X114101905Y-55427619D01*
X114149524Y-55522857D01*
X114149524Y-55618095D01*
X114101905Y-55713333D01*
X114054286Y-55760952D01*
X113959048Y-55808571D01*
X113625714Y-55808571D01*
X115101905Y-56332381D02*
X114625714Y-56332381D01*
X114625714Y-55332381D01*
X115435238Y-55808571D02*
X115768572Y-55808571D01*
X115911429Y-56332381D02*
X115435238Y-56332381D01*
X115435238Y-55332381D01*
X115911429Y-55332381D01*
X116340000Y-55951429D02*
X117101905Y-55951429D01*
X118149524Y-56332381D02*
X117816190Y-55856190D01*
X117578095Y-56332381D02*
X117578095Y-55332381D01*
X117959048Y-55332381D01*
X118054286Y-55380000D01*
X118101905Y-55427619D01*
X118149524Y-55522857D01*
X118149524Y-55665714D01*
X118101905Y-55760952D01*
X118054286Y-55808571D01*
X117959048Y-55856190D01*
X117578095Y-55856190D01*
X118482857Y-55332381D02*
X119149524Y-56332381D01*
X119149524Y-55332381D02*
X118482857Y-56332381D01*
X119530476Y-56332381D02*
X119530476Y-55332381D01*
X119768571Y-55332381D01*
X119911429Y-55380000D01*
X120006667Y-55475238D01*
X120054286Y-55570476D01*
X120101905Y-55760952D01*
X120101905Y-55903810D01*
X120054286Y-56094286D01*
X120006667Y-56189524D01*
X119911429Y-56284762D01*
X119768571Y-56332381D01*
X119530476Y-56332381D01*
X114078096Y-58348571D02*
X114220953Y-58396190D01*
X114268572Y-58443810D01*
X114316191Y-58539048D01*
X114316191Y-58681905D01*
X114268572Y-58777143D01*
X114220953Y-58824762D01*
X114125715Y-58872381D01*
X113744762Y-58872381D01*
X113744762Y-57872381D01*
X114078096Y-57872381D01*
X114173334Y-57920000D01*
X114220953Y-57967619D01*
X114268572Y-58062857D01*
X114268572Y-58158095D01*
X114220953Y-58253333D01*
X114173334Y-58300952D01*
X114078096Y-58348571D01*
X113744762Y-58348571D01*
X115220953Y-58872381D02*
X114744762Y-58872381D01*
X114744762Y-57872381D01*
X115554286Y-58348571D02*
X115887620Y-58348571D01*
X116030477Y-58872381D02*
X115554286Y-58872381D01*
X115554286Y-57872381D01*
X116030477Y-57872381D01*
X116459048Y-58491429D02*
X117220953Y-58491429D01*
X117554286Y-57872381D02*
X118125715Y-57872381D01*
X117840000Y-58872381D02*
X117840000Y-57872381D01*
X118363810Y-57872381D02*
X119030477Y-58872381D01*
X119030477Y-57872381D02*
X118363810Y-58872381D01*
X119411429Y-58872381D02*
X119411429Y-57872381D01*
X119649524Y-57872381D01*
X119792382Y-57920000D01*
X119887620Y-58015238D01*
X119935239Y-58110476D01*
X119982858Y-58300952D01*
X119982858Y-58443810D01*
X119935239Y-58634286D01*
X119887620Y-58729524D01*
X119792382Y-58824762D01*
X119649524Y-58872381D01*
X119411429Y-58872381D01*
X114292382Y-60888571D02*
X114435239Y-60936190D01*
X114482858Y-60983810D01*
X114530477Y-61079048D01*
X114530477Y-61221905D01*
X114482858Y-61317143D01*
X114435239Y-61364762D01*
X114340001Y-61412381D01*
X113959048Y-61412381D01*
X113959048Y-60412381D01*
X114292382Y-60412381D01*
X114387620Y-60460000D01*
X114435239Y-60507619D01*
X114482858Y-60602857D01*
X114482858Y-60698095D01*
X114435239Y-60793333D01*
X114387620Y-60840952D01*
X114292382Y-60888571D01*
X113959048Y-60888571D01*
X115435239Y-61412381D02*
X114959048Y-61412381D01*
X114959048Y-60412381D01*
X115768572Y-60888571D02*
X116101906Y-60888571D01*
X116244763Y-61412381D02*
X115768572Y-61412381D01*
X115768572Y-60412381D01*
X116244763Y-60412381D01*
X116673334Y-61031429D02*
X117435239Y-61031429D01*
X117911429Y-61412381D02*
X117911429Y-60412381D01*
X118387619Y-61412381D02*
X118387619Y-60412381D01*
X118959048Y-61412381D01*
X118959048Y-60412381D01*
X119292381Y-60412381D02*
X119863810Y-60412381D01*
X119578095Y-61412381D02*
X119578095Y-60412381D01*
X129468571Y-81636666D02*
X129516190Y-81493809D01*
X129563810Y-81446190D01*
X129659048Y-81398571D01*
X129801905Y-81398571D01*
X129897143Y-81446190D01*
X129944762Y-81493809D01*
X129992381Y-81589047D01*
X129992381Y-81970000D01*
X128992381Y-81970000D01*
X128992381Y-81636666D01*
X129040000Y-81541428D01*
X129087619Y-81493809D01*
X129182857Y-81446190D01*
X129278095Y-81446190D01*
X129373333Y-81493809D01*
X129420952Y-81541428D01*
X129468571Y-81636666D01*
X129468571Y-81970000D01*
X129992381Y-80493809D02*
X129992381Y-80970000D01*
X128992381Y-80970000D01*
X129468571Y-80160476D02*
X129468571Y-79827142D01*
X129992381Y-79684285D02*
X129992381Y-80160476D01*
X128992381Y-80160476D01*
X128992381Y-79684285D01*
X129611429Y-79255714D02*
X129611429Y-78493809D01*
X129468571Y-78017619D02*
X129468571Y-77684285D01*
X129992381Y-77541428D02*
X129992381Y-78017619D01*
X128992381Y-78017619D01*
X128992381Y-77541428D01*
X129992381Y-77112857D02*
X128992381Y-77112857D01*
X129992381Y-76541428D01*
X128992381Y-76541428D01*
X129706667Y-76112857D02*
X129706667Y-75636666D01*
X129992381Y-76208095D02*
X128992381Y-75874762D01*
X129992381Y-75541428D01*
X129468571Y-74874761D02*
X129516190Y-74731904D01*
X129563810Y-74684285D01*
X129659048Y-74636666D01*
X129801905Y-74636666D01*
X129897143Y-74684285D01*
X129944762Y-74731904D01*
X129992381Y-74827142D01*
X129992381Y-75208095D01*
X128992381Y-75208095D01*
X128992381Y-74874761D01*
X129040000Y-74779523D01*
X129087619Y-74731904D01*
X129182857Y-74684285D01*
X129278095Y-74684285D01*
X129373333Y-74731904D01*
X129420952Y-74779523D01*
X129468571Y-74874761D01*
X129468571Y-75208095D01*
X129992381Y-73731904D02*
X129992381Y-74208095D01*
X128992381Y-74208095D01*
X129468571Y-73398571D02*
X129468571Y-73065237D01*
X129992381Y-72922380D02*
X129992381Y-73398571D01*
X128992381Y-73398571D01*
X128992381Y-72922380D01*
X134548571Y-78374571D02*
X134596190Y-78231714D01*
X134643810Y-78184095D01*
X134739048Y-78136476D01*
X134881905Y-78136476D01*
X134977143Y-78184095D01*
X135024762Y-78231714D01*
X135072381Y-78326952D01*
X135072381Y-78707905D01*
X134072381Y-78707905D01*
X134072381Y-78374571D01*
X134120000Y-78279333D01*
X134167619Y-78231714D01*
X134262857Y-78184095D01*
X134358095Y-78184095D01*
X134453333Y-78231714D01*
X134500952Y-78279333D01*
X134548571Y-78374571D01*
X134548571Y-78707905D01*
X135072381Y-77231714D02*
X135072381Y-77707905D01*
X134072381Y-77707905D01*
X134548571Y-76898381D02*
X134548571Y-76565047D01*
X135072381Y-76422190D02*
X135072381Y-76898381D01*
X134072381Y-76898381D01*
X134072381Y-76422190D01*
X134691429Y-75993619D02*
X134691429Y-75231714D01*
X135072381Y-74755524D02*
X134072381Y-74755524D01*
X135072381Y-74184095D01*
X134072381Y-74184095D01*
X134977143Y-73136476D02*
X135024762Y-73184095D01*
X135072381Y-73326952D01*
X135072381Y-73422190D01*
X135024762Y-73565048D01*
X134929524Y-73660286D01*
X134834286Y-73707905D01*
X134643810Y-73755524D01*
X134500952Y-73755524D01*
X134310476Y-73707905D01*
X134215238Y-73660286D01*
X134120000Y-73565048D01*
X134072381Y-73422190D01*
X134072381Y-73326952D01*
X134120000Y-73184095D01*
X134167619Y-73136476D01*
X144708571Y-78374571D02*
X144756190Y-78231714D01*
X144803810Y-78184095D01*
X144899048Y-78136476D01*
X145041905Y-78136476D01*
X145137143Y-78184095D01*
X145184762Y-78231714D01*
X145232381Y-78326952D01*
X145232381Y-78707905D01*
X144232381Y-78707905D01*
X144232381Y-78374571D01*
X144280000Y-78279333D01*
X144327619Y-78231714D01*
X144422857Y-78184095D01*
X144518095Y-78184095D01*
X144613333Y-78231714D01*
X144660952Y-78279333D01*
X144708571Y-78374571D01*
X144708571Y-78707905D01*
X145232381Y-77231714D02*
X145232381Y-77707905D01*
X144232381Y-77707905D01*
X144708571Y-76898381D02*
X144708571Y-76565047D01*
X145232381Y-76422190D02*
X145232381Y-76898381D01*
X144232381Y-76898381D01*
X144232381Y-76422190D01*
X144851429Y-75993619D02*
X144851429Y-75231714D01*
X145232381Y-74755524D02*
X144232381Y-74755524D01*
X145232381Y-74184095D01*
X144232381Y-74184095D01*
X145137143Y-73136476D02*
X145184762Y-73184095D01*
X145232381Y-73326952D01*
X145232381Y-73422190D01*
X145184762Y-73565048D01*
X145089524Y-73660286D01*
X144994286Y-73707905D01*
X144803810Y-73755524D01*
X144660952Y-73755524D01*
X144470476Y-73707905D01*
X144375238Y-73660286D01*
X144280000Y-73565048D01*
X144232381Y-73422190D01*
X144232381Y-73326952D01*
X144280000Y-73184095D01*
X144327619Y-73136476D01*
X100528381Y-64682666D02*
X100052190Y-65016000D01*
X100528381Y-65254095D02*
X99528381Y-65254095D01*
X99528381Y-64873142D01*
X99576000Y-64777904D01*
X99623619Y-64730285D01*
X99718857Y-64682666D01*
X99861714Y-64682666D01*
X99956952Y-64730285D01*
X100004571Y-64777904D01*
X100052190Y-64873142D01*
X100052190Y-65254095D01*
X100528381Y-63730285D02*
X100528381Y-64301714D01*
X100528381Y-64016000D02*
X99528381Y-64016000D01*
X99671238Y-64111238D01*
X99766476Y-64206476D01*
X99814095Y-64301714D01*
X102052381Y-62952190D02*
X102052381Y-63523619D01*
X102052381Y-63237905D02*
X101052381Y-63237905D01*
X101195238Y-63333143D01*
X101290476Y-63428381D01*
X101338095Y-63523619D01*
X101147619Y-62571238D02*
X101100000Y-62523619D01*
X101052381Y-62428381D01*
X101052381Y-62190285D01*
X101100000Y-62095047D01*
X101147619Y-62047428D01*
X101242857Y-61999809D01*
X101338095Y-61999809D01*
X101480952Y-62047428D01*
X102052381Y-62618857D01*
X102052381Y-61999809D01*
X102052381Y-60809333D02*
X101052381Y-60809333D01*
X101671429Y-60714095D02*
X102052381Y-60428380D01*
X101385714Y-60428380D02*
X101766667Y-60809333D01*
X92146381Y-95162666D02*
X91670190Y-95496000D01*
X92146381Y-95734095D02*
X91146381Y-95734095D01*
X91146381Y-95353142D01*
X91194000Y-95257904D01*
X91241619Y-95210285D01*
X91336857Y-95162666D01*
X91479714Y-95162666D01*
X91574952Y-95210285D01*
X91622571Y-95257904D01*
X91670190Y-95353142D01*
X91670190Y-95734095D01*
X91241619Y-94781714D02*
X91194000Y-94734095D01*
X91146381Y-94638857D01*
X91146381Y-94400761D01*
X91194000Y-94305523D01*
X91241619Y-94257904D01*
X91336857Y-94210285D01*
X91432095Y-94210285D01*
X91574952Y-94257904D01*
X92146381Y-94829333D01*
X92146381Y-94210285D01*
X93642381Y-91940000D02*
X93642381Y-92511429D01*
X93642381Y-92225715D02*
X92642381Y-92225715D01*
X92785238Y-92320953D01*
X92880476Y-92416191D01*
X92928095Y-92511429D01*
X93642381Y-90749524D02*
X92642381Y-90749524D01*
X93261429Y-90654286D02*
X93642381Y-90368571D01*
X92975714Y-90368571D02*
X93356667Y-90749524D01*
X107132381Y-69762666D02*
X106656190Y-70096000D01*
X107132381Y-70334095D02*
X106132381Y-70334095D01*
X106132381Y-69953142D01*
X106180000Y-69857904D01*
X106227619Y-69810285D01*
X106322857Y-69762666D01*
X106465714Y-69762666D01*
X106560952Y-69810285D01*
X106608571Y-69857904D01*
X106656190Y-69953142D01*
X106656190Y-70334095D01*
X106132381Y-69429333D02*
X106132381Y-68810285D01*
X106513333Y-69143619D01*
X106513333Y-69000761D01*
X106560952Y-68905523D01*
X106608571Y-68857904D01*
X106703810Y-68810285D01*
X106941905Y-68810285D01*
X107037143Y-68857904D01*
X107084762Y-68905523D01*
X107132381Y-69000761D01*
X107132381Y-69286476D01*
X107084762Y-69381714D01*
X107037143Y-69429333D01*
X106132381Y-63190286D02*
X106132381Y-62571238D01*
X106513333Y-62904572D01*
X106513333Y-62761714D01*
X106560952Y-62666476D01*
X106608571Y-62618857D01*
X106703810Y-62571238D01*
X106941905Y-62571238D01*
X107037143Y-62618857D01*
X107084762Y-62666476D01*
X107132381Y-62761714D01*
X107132381Y-63047429D01*
X107084762Y-63142667D01*
X107037143Y-63190286D01*
X107132381Y-62142667D02*
X106132381Y-62142667D01*
X106751429Y-62047429D02*
X107132381Y-61761714D01*
X106465714Y-61761714D02*
X106846667Y-62142667D01*
X106132381Y-61428381D02*
X106132381Y-60809333D01*
X106513333Y-61142667D01*
X106513333Y-60999809D01*
X106560952Y-60904571D01*
X106608571Y-60856952D01*
X106703810Y-60809333D01*
X106941905Y-60809333D01*
X107037143Y-60856952D01*
X107084762Y-60904571D01*
X107132381Y-60999809D01*
X107132381Y-61285524D01*
X107084762Y-61380762D01*
X107037143Y-61428381D01*
X104592381Y-69762666D02*
X104116190Y-70096000D01*
X104592381Y-70334095D02*
X103592381Y-70334095D01*
X103592381Y-69953142D01*
X103640000Y-69857904D01*
X103687619Y-69810285D01*
X103782857Y-69762666D01*
X103925714Y-69762666D01*
X104020952Y-69810285D01*
X104068571Y-69857904D01*
X104116190Y-69953142D01*
X104116190Y-70334095D01*
X103925714Y-68905523D02*
X104592381Y-68905523D01*
X103544762Y-69143619D02*
X104259048Y-69381714D01*
X104259048Y-68762666D01*
X103592381Y-63190286D02*
X103592381Y-62571238D01*
X103973333Y-62904572D01*
X103973333Y-62761714D01*
X104020952Y-62666476D01*
X104068571Y-62618857D01*
X104163810Y-62571238D01*
X104401905Y-62571238D01*
X104497143Y-62618857D01*
X104544762Y-62666476D01*
X104592381Y-62761714D01*
X104592381Y-63047429D01*
X104544762Y-63142667D01*
X104497143Y-63190286D01*
X104592381Y-62142667D02*
X103592381Y-62142667D01*
X104211429Y-62047429D02*
X104592381Y-61761714D01*
X103925714Y-61761714D02*
X104306667Y-62142667D01*
X103592381Y-61428381D02*
X103592381Y-60809333D01*
X103973333Y-61142667D01*
X103973333Y-60999809D01*
X104020952Y-60904571D01*
X104068571Y-60856952D01*
X104163810Y-60809333D01*
X104401905Y-60809333D01*
X104497143Y-60856952D01*
X104544762Y-60904571D01*
X104592381Y-60999809D01*
X104592381Y-61285524D01*
X104544762Y-61380762D01*
X104497143Y-61428381D01*
X103378095Y-71557381D02*
X103378095Y-72366905D01*
X103425714Y-72462143D01*
X103473333Y-72509762D01*
X103568571Y-72557381D01*
X103759048Y-72557381D01*
X103854286Y-72509762D01*
X103901905Y-72462143D01*
X103949524Y-72366905D01*
X103949524Y-71557381D01*
X104949524Y-72557381D02*
X104378095Y-72557381D01*
X104663809Y-72557381D02*
X104663809Y-71557381D01*
X104568571Y-71700238D01*
X104473333Y-71795476D01*
X104378095Y-71843095D01*
X109943047Y-81684762D02*
X110085904Y-81732381D01*
X110324000Y-81732381D01*
X110419238Y-81684762D01*
X110466857Y-81637143D01*
X110514476Y-81541905D01*
X110514476Y-81446667D01*
X110466857Y-81351429D01*
X110419238Y-81303810D01*
X110324000Y-81256190D01*
X110133523Y-81208571D01*
X110038285Y-81160952D01*
X109990666Y-81113333D01*
X109943047Y-81018095D01*
X109943047Y-80922857D01*
X109990666Y-80827619D01*
X110038285Y-80780000D01*
X110133523Y-80732381D01*
X110371619Y-80732381D01*
X110514476Y-80780000D01*
X110800190Y-80732381D02*
X111371619Y-80732381D01*
X111085904Y-81732381D02*
X111085904Y-80732381D01*
X111704952Y-81732381D02*
X111704952Y-80732381D01*
X112038286Y-81446667D01*
X112371619Y-80732381D01*
X112371619Y-81732381D01*
X112752571Y-80732381D02*
X113371619Y-80732381D01*
X113038285Y-81113333D01*
X113181143Y-81113333D01*
X113276381Y-81160952D01*
X113324000Y-81208571D01*
X113371619Y-81303810D01*
X113371619Y-81541905D01*
X113324000Y-81637143D01*
X113276381Y-81684762D01*
X113181143Y-81732381D01*
X112895428Y-81732381D01*
X112800190Y-81684762D01*
X112752571Y-81637143D01*
X113752571Y-80827619D02*
X113800190Y-80780000D01*
X113895428Y-80732381D01*
X114133524Y-80732381D01*
X114228762Y-80780000D01*
X114276381Y-80827619D01*
X114324000Y-80922857D01*
X114324000Y-81018095D01*
X114276381Y-81160952D01*
X113704952Y-81732381D01*
X114324000Y-81732381D01*
X115228762Y-81732381D02*
X114752571Y-81732381D01*
X114752571Y-80732381D01*
X115990667Y-81065714D02*
X115990667Y-81732381D01*
X115752571Y-80684762D02*
X115514476Y-81399048D01*
X116133524Y-81399048D01*
X116419238Y-80732381D02*
X117038286Y-80732381D01*
X116704952Y-81113333D01*
X116847810Y-81113333D01*
X116943048Y-81160952D01*
X116990667Y-81208571D01*
X117038286Y-81303810D01*
X117038286Y-81541905D01*
X116990667Y-81637143D01*
X116943048Y-81684762D01*
X116847810Y-81732381D01*
X116562095Y-81732381D01*
X116466857Y-81684762D01*
X116419238Y-81637143D01*
X117371619Y-80732381D02*
X117990667Y-80732381D01*
X117657333Y-81113333D01*
X117800191Y-81113333D01*
X117895429Y-81160952D01*
X117943048Y-81208571D01*
X117990667Y-81303810D01*
X117990667Y-81541905D01*
X117943048Y-81637143D01*
X117895429Y-81684762D01*
X117800191Y-81732381D01*
X117514476Y-81732381D01*
X117419238Y-81684762D01*
X117371619Y-81637143D01*
X118990667Y-81637143D02*
X118943048Y-81684762D01*
X118800191Y-81732381D01*
X118704953Y-81732381D01*
X118562095Y-81684762D01*
X118466857Y-81589524D01*
X118419238Y-81494286D01*
X118371619Y-81303810D01*
X118371619Y-81160952D01*
X118419238Y-80970476D01*
X118466857Y-80875238D01*
X118562095Y-80780000D01*
X118704953Y-80732381D01*
X118800191Y-80732381D01*
X118943048Y-80780000D01*
X118990667Y-80827619D01*
X119990667Y-81637143D02*
X119943048Y-81684762D01*
X119800191Y-81732381D01*
X119704953Y-81732381D01*
X119562095Y-81684762D01*
X119466857Y-81589524D01*
X119419238Y-81494286D01*
X119371619Y-81303810D01*
X119371619Y-81160952D01*
X119419238Y-80970476D01*
X119466857Y-80875238D01*
X119562095Y-80780000D01*
X119704953Y-80732381D01*
X119800191Y-80732381D01*
X119943048Y-80780000D01*
X119990667Y-80827619D01*
X120276381Y-80732381D02*
X120847810Y-80732381D01*
X120562095Y-81732381D02*
X120562095Y-80732381D01*
X121609715Y-80732381D02*
X121419238Y-80732381D01*
X121324000Y-80780000D01*
X121276381Y-80827619D01*
X121181143Y-80970476D01*
X121133524Y-81160952D01*
X121133524Y-81541905D01*
X121181143Y-81637143D01*
X121228762Y-81684762D01*
X121324000Y-81732381D01*
X121514477Y-81732381D01*
X121609715Y-81684762D01*
X121657334Y-81637143D01*
X121704953Y-81541905D01*
X121704953Y-81303810D01*
X121657334Y-81208571D01*
X121609715Y-81160952D01*
X121514477Y-81113333D01*
X121324000Y-81113333D01*
X121228762Y-81160952D01*
X121181143Y-81208571D01*
X121133524Y-81303810D01*
X139700095Y-64476381D02*
X139700095Y-65285905D01*
X139747714Y-65381143D01*
X139795333Y-65428762D01*
X139890571Y-65476381D01*
X140081048Y-65476381D01*
X140176286Y-65428762D01*
X140223905Y-65381143D01*
X140271524Y-65285905D01*
X140271524Y-64476381D01*
X140700095Y-64571619D02*
X140747714Y-64524000D01*
X140842952Y-64476381D01*
X141081048Y-64476381D01*
X141176286Y-64524000D01*
X141223905Y-64571619D01*
X141271524Y-64666857D01*
X141271524Y-64762095D01*
X141223905Y-64904952D01*
X140652476Y-65476381D01*
X141271524Y-65476381D01*
X131739333Y-53030381D02*
X131739333Y-52030381D01*
X132310762Y-53030381D01*
X132310762Y-52030381D01*
X133358381Y-53030381D02*
X133025047Y-52554190D01*
X132786952Y-53030381D02*
X132786952Y-52030381D01*
X133167905Y-52030381D01*
X133263143Y-52078000D01*
X133310762Y-52125619D01*
X133358381Y-52220857D01*
X133358381Y-52363714D01*
X133310762Y-52458952D01*
X133263143Y-52506571D01*
X133167905Y-52554190D01*
X132786952Y-52554190D01*
X134120286Y-52506571D02*
X133786952Y-52506571D01*
X133786952Y-53030381D02*
X133786952Y-52030381D01*
X134263143Y-52030381D01*
X135120286Y-52030381D02*
X134644095Y-52030381D01*
X134596476Y-52506571D01*
X134644095Y-52458952D01*
X134739333Y-52411333D01*
X134977429Y-52411333D01*
X135072667Y-52458952D01*
X135120286Y-52506571D01*
X135167905Y-52601810D01*
X135167905Y-52839905D01*
X135120286Y-52935143D01*
X135072667Y-52982762D01*
X134977429Y-53030381D01*
X134739333Y-53030381D01*
X134644095Y-52982762D01*
X134596476Y-52935143D01*
X136120286Y-53030381D02*
X135548857Y-53030381D01*
X135834571Y-53030381D02*
X135834571Y-52030381D01*
X135739333Y-52173238D01*
X135644095Y-52268476D01*
X135548857Y-52316095D01*
X136691714Y-52458952D02*
X136596476Y-52411333D01*
X136548857Y-52363714D01*
X136501238Y-52268476D01*
X136501238Y-52220857D01*
X136548857Y-52125619D01*
X136596476Y-52078000D01*
X136691714Y-52030381D01*
X136882191Y-52030381D01*
X136977429Y-52078000D01*
X137025048Y-52125619D01*
X137072667Y-52220857D01*
X137072667Y-52268476D01*
X137025048Y-52363714D01*
X136977429Y-52411333D01*
X136882191Y-52458952D01*
X136691714Y-52458952D01*
X136596476Y-52506571D01*
X136548857Y-52554190D01*
X136501238Y-52649429D01*
X136501238Y-52839905D01*
X136548857Y-52935143D01*
X136596476Y-52982762D01*
X136691714Y-53030381D01*
X136882191Y-53030381D01*
X136977429Y-52982762D01*
X137025048Y-52935143D01*
X137072667Y-52839905D01*
X137072667Y-52649429D01*
X137025048Y-52554190D01*
X136977429Y-52506571D01*
X136882191Y-52458952D01*
X137453619Y-52125619D02*
X137501238Y-52078000D01*
X137596476Y-52030381D01*
X137834572Y-52030381D01*
X137929810Y-52078000D01*
X137977429Y-52125619D01*
X138025048Y-52220857D01*
X138025048Y-52316095D01*
X137977429Y-52458952D01*
X137406000Y-53030381D01*
X138025048Y-53030381D01*
X138406000Y-52125619D02*
X138453619Y-52078000D01*
X138548857Y-52030381D01*
X138786953Y-52030381D01*
X138882191Y-52078000D01*
X138929810Y-52125619D01*
X138977429Y-52220857D01*
X138977429Y-52316095D01*
X138929810Y-52458952D01*
X138358381Y-53030381D01*
X138977429Y-53030381D01*
X139406000Y-52649429D02*
X140167905Y-52649429D01*
X140834571Y-52030381D02*
X140929810Y-52030381D01*
X141025048Y-52078000D01*
X141072667Y-52125619D01*
X141120286Y-52220857D01*
X141167905Y-52411333D01*
X141167905Y-52649429D01*
X141120286Y-52839905D01*
X141072667Y-52935143D01*
X141025048Y-52982762D01*
X140929810Y-53030381D01*
X140834571Y-53030381D01*
X140739333Y-52982762D01*
X140691714Y-52935143D01*
X140644095Y-52839905D01*
X140596476Y-52649429D01*
X140596476Y-52411333D01*
X140644095Y-52220857D01*
X140691714Y-52125619D01*
X140739333Y-52078000D01*
X140834571Y-52030381D01*
X142025048Y-52363714D02*
X142025048Y-53030381D01*
X141786952Y-51982762D02*
X141548857Y-52697048D01*
X142167905Y-52697048D01*
X93448190Y-75152191D02*
X93924381Y-75152191D01*
X92924381Y-75485524D02*
X93448190Y-75152191D01*
X92924381Y-74818857D01*
X93924381Y-73961714D02*
X93924381Y-74533143D01*
X93924381Y-74247429D02*
X92924381Y-74247429D01*
X93067238Y-74342667D01*
X93162476Y-74437905D01*
X93210095Y-74533143D01*
X144708571Y-45608571D02*
X144756190Y-45465714D01*
X144803810Y-45418095D01*
X144899048Y-45370476D01*
X145041905Y-45370476D01*
X145137143Y-45418095D01*
X145184762Y-45465714D01*
X145232381Y-45560952D01*
X145232381Y-45941905D01*
X144232381Y-45941905D01*
X144232381Y-45608571D01*
X144280000Y-45513333D01*
X144327619Y-45465714D01*
X144422857Y-45418095D01*
X144518095Y-45418095D01*
X144613333Y-45465714D01*
X144660952Y-45513333D01*
X144708571Y-45608571D01*
X144708571Y-45941905D01*
X145232381Y-44465714D02*
X145232381Y-44941905D01*
X144232381Y-44941905D01*
X144708571Y-44132381D02*
X144708571Y-43799047D01*
X145232381Y-43656190D02*
X145232381Y-44132381D01*
X144232381Y-44132381D01*
X144232381Y-43656190D01*
X144851429Y-43227619D02*
X144851429Y-42465714D01*
X145232381Y-41989524D02*
X144232381Y-41989524D01*
X145232381Y-41418095D01*
X144232381Y-41418095D01*
X145137143Y-40370476D02*
X145184762Y-40418095D01*
X145232381Y-40560952D01*
X145232381Y-40656190D01*
X145184762Y-40799048D01*
X145089524Y-40894286D01*
X144994286Y-40941905D01*
X144803810Y-40989524D01*
X144660952Y-40989524D01*
X144470476Y-40941905D01*
X144375238Y-40894286D01*
X144280000Y-40799048D01*
X144232381Y-40656190D01*
X144232381Y-40560952D01*
X144280000Y-40418095D01*
X144327619Y-40370476D01*
X139628571Y-82081142D02*
X139676190Y-81938285D01*
X139723810Y-81890666D01*
X139819048Y-81843047D01*
X139961905Y-81843047D01*
X140057143Y-81890666D01*
X140104762Y-81938285D01*
X140152381Y-82033523D01*
X140152381Y-82414476D01*
X139152381Y-82414476D01*
X139152381Y-82081142D01*
X139200000Y-81985904D01*
X139247619Y-81938285D01*
X139342857Y-81890666D01*
X139438095Y-81890666D01*
X139533333Y-81938285D01*
X139580952Y-81985904D01*
X139628571Y-82081142D01*
X139628571Y-82414476D01*
X140152381Y-80938285D02*
X140152381Y-81414476D01*
X139152381Y-81414476D01*
X139628571Y-80604952D02*
X139628571Y-80271618D01*
X140152381Y-80128761D02*
X140152381Y-80604952D01*
X139152381Y-80604952D01*
X139152381Y-80128761D01*
X139771429Y-79700190D02*
X139771429Y-78938285D01*
X140104762Y-78509714D02*
X140152381Y-78366857D01*
X140152381Y-78128761D01*
X140104762Y-78033523D01*
X140057143Y-77985904D01*
X139961905Y-77938285D01*
X139866667Y-77938285D01*
X139771429Y-77985904D01*
X139723810Y-78033523D01*
X139676190Y-78128761D01*
X139628571Y-78319238D01*
X139580952Y-78414476D01*
X139533333Y-78462095D01*
X139438095Y-78509714D01*
X139342857Y-78509714D01*
X139247619Y-78462095D01*
X139200000Y-78414476D01*
X139152381Y-78319238D01*
X139152381Y-78081142D01*
X139200000Y-77938285D01*
X139152381Y-77604952D02*
X140152381Y-77366857D01*
X139438095Y-77176380D01*
X140152381Y-76985904D01*
X139152381Y-76747809D01*
X140152381Y-76366857D02*
X139152381Y-76366857D01*
X139152381Y-76128762D01*
X139200000Y-75985904D01*
X139295238Y-75890666D01*
X139390476Y-75843047D01*
X139580952Y-75795428D01*
X139723810Y-75795428D01*
X139914286Y-75843047D01*
X140009524Y-75890666D01*
X140104762Y-75985904D01*
X140152381Y-76128762D01*
X140152381Y-76366857D01*
X140057143Y-74795428D02*
X140104762Y-74843047D01*
X140152381Y-74985904D01*
X140152381Y-75081142D01*
X140104762Y-75224000D01*
X140009524Y-75319238D01*
X139914286Y-75366857D01*
X139723810Y-75414476D01*
X139580952Y-75414476D01*
X139390476Y-75366857D01*
X139295238Y-75319238D01*
X139200000Y-75224000D01*
X139152381Y-75081142D01*
X139152381Y-74985904D01*
X139200000Y-74843047D01*
X139247619Y-74795428D01*
X140152381Y-73890666D02*
X140152381Y-74366857D01*
X139152381Y-74366857D01*
X140152381Y-73557333D02*
X139152381Y-73557333D01*
X140152381Y-72985904D02*
X139580952Y-73414476D01*
X139152381Y-72985904D02*
X139723810Y-73557333D01*
X137088571Y-80676285D02*
X137136190Y-80533428D01*
X137183810Y-80485809D01*
X137279048Y-80438190D01*
X137421905Y-80438190D01*
X137517143Y-80485809D01*
X137564762Y-80533428D01*
X137612381Y-80628666D01*
X137612381Y-81009619D01*
X136612381Y-81009619D01*
X136612381Y-80676285D01*
X136660000Y-80581047D01*
X136707619Y-80533428D01*
X136802857Y-80485809D01*
X136898095Y-80485809D01*
X136993333Y-80533428D01*
X137040952Y-80581047D01*
X137088571Y-80676285D01*
X137088571Y-81009619D01*
X137612381Y-79533428D02*
X137612381Y-80009619D01*
X136612381Y-80009619D01*
X137088571Y-79200095D02*
X137088571Y-78866761D01*
X137612381Y-78723904D02*
X137612381Y-79200095D01*
X136612381Y-79200095D01*
X136612381Y-78723904D01*
X137231429Y-78295333D02*
X137231429Y-77533428D01*
X137564762Y-77104857D02*
X137612381Y-76962000D01*
X137612381Y-76723904D01*
X137564762Y-76628666D01*
X137517143Y-76581047D01*
X137421905Y-76533428D01*
X137326667Y-76533428D01*
X137231429Y-76581047D01*
X137183810Y-76628666D01*
X137136190Y-76723904D01*
X137088571Y-76914381D01*
X137040952Y-77009619D01*
X136993333Y-77057238D01*
X136898095Y-77104857D01*
X136802857Y-77104857D01*
X136707619Y-77057238D01*
X136660000Y-77009619D01*
X136612381Y-76914381D01*
X136612381Y-76676285D01*
X136660000Y-76533428D01*
X136612381Y-76200095D02*
X137612381Y-75962000D01*
X136898095Y-75771523D01*
X137612381Y-75581047D01*
X136612381Y-75342952D01*
X137612381Y-74962000D02*
X136612381Y-74962000D01*
X136612381Y-74723905D01*
X136660000Y-74581047D01*
X136755238Y-74485809D01*
X136850476Y-74438190D01*
X137040952Y-74390571D01*
X137183810Y-74390571D01*
X137374286Y-74438190D01*
X137469524Y-74485809D01*
X137564762Y-74581047D01*
X137612381Y-74723905D01*
X137612381Y-74962000D01*
X137612381Y-73962000D02*
X136612381Y-73962000D01*
X136612381Y-73295334D02*
X136612381Y-73104857D01*
X136660000Y-73009619D01*
X136755238Y-72914381D01*
X136945714Y-72866762D01*
X137279048Y-72866762D01*
X137469524Y-72914381D01*
X137564762Y-73009619D01*
X137612381Y-73104857D01*
X137612381Y-73295334D01*
X137564762Y-73390572D01*
X137469524Y-73485810D01*
X137279048Y-73533429D01*
X136945714Y-73533429D01*
X136755238Y-73485810D01*
X136660000Y-73390572D01*
X136612381Y-73295334D01*
X61762856Y-44235714D02*
X61762856Y-45235714D01*
X61762856Y-44283333D02*
X61858094Y-44235714D01*
X62048571Y-44235714D01*
X62143809Y-44283333D01*
X62191428Y-44330952D01*
X62239047Y-44426190D01*
X62239047Y-44711905D01*
X62191428Y-44807143D01*
X62143809Y-44854762D01*
X62048571Y-44902381D01*
X61858094Y-44902381D01*
X61762856Y-44854762D01*
X63048571Y-44854762D02*
X62953333Y-44902381D01*
X62762856Y-44902381D01*
X62667618Y-44854762D01*
X62619999Y-44759524D01*
X62619999Y-44378571D01*
X62667618Y-44283333D01*
X62762856Y-44235714D01*
X62953333Y-44235714D01*
X63048571Y-44283333D01*
X63096190Y-44378571D01*
X63096190Y-44473810D01*
X62619999Y-44569048D01*
X63524761Y-44902381D02*
X63524761Y-44235714D01*
X63524761Y-44426190D02*
X63572380Y-44330952D01*
X63619999Y-44283333D01*
X63715237Y-44235714D01*
X63810476Y-44235714D01*
X64048571Y-44235714D02*
X64286666Y-44902381D01*
X64524762Y-44235714D01*
X65334286Y-44902381D02*
X65334286Y-44378571D01*
X65286667Y-44283333D01*
X65191429Y-44235714D01*
X65000952Y-44235714D01*
X64905714Y-44283333D01*
X65334286Y-44854762D02*
X65239048Y-44902381D01*
X65000952Y-44902381D01*
X64905714Y-44854762D01*
X64858095Y-44759524D01*
X64858095Y-44664286D01*
X64905714Y-44569048D01*
X65000952Y-44521429D01*
X65239048Y-44521429D01*
X65334286Y-44473810D01*
X65762857Y-44854762D02*
X65858095Y-44902381D01*
X66048571Y-44902381D01*
X66143810Y-44854762D01*
X66191429Y-44759524D01*
X66191429Y-44711905D01*
X66143810Y-44616667D01*
X66048571Y-44569048D01*
X65905714Y-44569048D01*
X65810476Y-44521429D01*
X65762857Y-44426190D01*
X65762857Y-44378571D01*
X65810476Y-44283333D01*
X65905714Y-44235714D01*
X66048571Y-44235714D01*
X66143810Y-44283333D01*
X66620000Y-44902381D02*
X66620000Y-44235714D01*
X66620000Y-43902381D02*
X66572381Y-43950000D01*
X66620000Y-43997619D01*
X66667619Y-43950000D01*
X66620000Y-43902381D01*
X66620000Y-43997619D01*
X67000952Y-44235714D02*
X67239047Y-44902381D01*
X67477143Y-44235714D01*
X68239048Y-44854762D02*
X68143810Y-44902381D01*
X67953333Y-44902381D01*
X67858095Y-44854762D01*
X67810476Y-44759524D01*
X67810476Y-44378571D01*
X67858095Y-44283333D01*
X67953333Y-44235714D01*
X68143810Y-44235714D01*
X68239048Y-44283333D01*
X68286667Y-44378571D01*
X68286667Y-44473810D01*
X67810476Y-44569048D01*
X69905715Y-44902381D02*
X69905715Y-43902381D01*
X69905715Y-44854762D02*
X69810477Y-44902381D01*
X69620000Y-44902381D01*
X69524762Y-44854762D01*
X69477143Y-44807143D01*
X69429524Y-44711905D01*
X69429524Y-44426190D01*
X69477143Y-44330952D01*
X69524762Y-44283333D01*
X69620000Y-44235714D01*
X69810477Y-44235714D01*
X69905715Y-44283333D01*
X70381905Y-44902381D02*
X70381905Y-44235714D01*
X70381905Y-43902381D02*
X70334286Y-43950000D01*
X70381905Y-43997619D01*
X70429524Y-43950000D01*
X70381905Y-43902381D01*
X70381905Y-43997619D01*
X70810476Y-44854762D02*
X70905714Y-44902381D01*
X71096190Y-44902381D01*
X71191429Y-44854762D01*
X71239048Y-44759524D01*
X71239048Y-44711905D01*
X71191429Y-44616667D01*
X71096190Y-44569048D01*
X70953333Y-44569048D01*
X70858095Y-44521429D01*
X70810476Y-44426190D01*
X70810476Y-44378571D01*
X70858095Y-44283333D01*
X70953333Y-44235714D01*
X71096190Y-44235714D01*
X71191429Y-44283333D01*
X71667619Y-44235714D02*
X71667619Y-45235714D01*
X71667619Y-44283333D02*
X71762857Y-44235714D01*
X71953334Y-44235714D01*
X72048572Y-44283333D01*
X72096191Y-44330952D01*
X72143810Y-44426190D01*
X72143810Y-44711905D01*
X72096191Y-44807143D01*
X72048572Y-44854762D01*
X71953334Y-44902381D01*
X71762857Y-44902381D01*
X71667619Y-44854762D01*
X72715238Y-44902381D02*
X72620000Y-44854762D01*
X72572381Y-44759524D01*
X72572381Y-43902381D01*
X73524763Y-44902381D02*
X73524763Y-44378571D01*
X73477144Y-44283333D01*
X73381906Y-44235714D01*
X73191429Y-44235714D01*
X73096191Y-44283333D01*
X73524763Y-44854762D02*
X73429525Y-44902381D01*
X73191429Y-44902381D01*
X73096191Y-44854762D01*
X73048572Y-44759524D01*
X73048572Y-44664286D01*
X73096191Y-44569048D01*
X73191429Y-44521429D01*
X73429525Y-44521429D01*
X73524763Y-44473810D01*
X73905715Y-44235714D02*
X74143810Y-44902381D01*
X74381906Y-44235714D02*
X74143810Y-44902381D01*
X74048572Y-45140476D01*
X74000953Y-45188095D01*
X73905715Y-45235714D01*
X75524763Y-44902381D02*
X75524763Y-44235714D01*
X75524763Y-44330952D02*
X75572382Y-44283333D01*
X75667620Y-44235714D01*
X75810478Y-44235714D01*
X75905716Y-44283333D01*
X75953335Y-44378571D01*
X75953335Y-44902381D01*
X75953335Y-44378571D02*
X76000954Y-44283333D01*
X76096192Y-44235714D01*
X76239049Y-44235714D01*
X76334287Y-44283333D01*
X76381906Y-44378571D01*
X76381906Y-44902381D01*
X77000953Y-44902381D02*
X76905715Y-44854762D01*
X76858096Y-44807143D01*
X76810477Y-44711905D01*
X76810477Y-44426190D01*
X76858096Y-44330952D01*
X76905715Y-44283333D01*
X77000953Y-44235714D01*
X77143811Y-44235714D01*
X77239049Y-44283333D01*
X77286668Y-44330952D01*
X77334287Y-44426190D01*
X77334287Y-44711905D01*
X77286668Y-44807143D01*
X77239049Y-44854762D01*
X77143811Y-44902381D01*
X77000953Y-44902381D01*
X78191430Y-44902381D02*
X78191430Y-43902381D01*
X78191430Y-44854762D02*
X78096192Y-44902381D01*
X77905715Y-44902381D01*
X77810477Y-44854762D01*
X77762858Y-44807143D01*
X77715239Y-44711905D01*
X77715239Y-44426190D01*
X77762858Y-44330952D01*
X77810477Y-44283333D01*
X77905715Y-44235714D01*
X78096192Y-44235714D01*
X78191430Y-44283333D01*
X79096192Y-44235714D02*
X79096192Y-44902381D01*
X78667620Y-44235714D02*
X78667620Y-44759524D01*
X78715239Y-44854762D01*
X78810477Y-44902381D01*
X78953335Y-44902381D01*
X79048573Y-44854762D01*
X79096192Y-44807143D01*
X79715239Y-44902381D02*
X79620001Y-44854762D01*
X79572382Y-44759524D01*
X79572382Y-43902381D01*
X80477145Y-44854762D02*
X80381907Y-44902381D01*
X80191430Y-44902381D01*
X80096192Y-44854762D01*
X80048573Y-44759524D01*
X80048573Y-44378571D01*
X80096192Y-44283333D01*
X80191430Y-44235714D01*
X80381907Y-44235714D01*
X80477145Y-44283333D01*
X80524764Y-44378571D01*
X80524764Y-44473810D01*
X80048573Y-44569048D01*
X101117143Y-121356381D02*
X101117143Y-120356381D01*
X101498096Y-120356381D01*
X101593334Y-120404000D01*
X101640953Y-120451619D01*
X101688572Y-120546857D01*
X101688572Y-120689714D01*
X101640953Y-120784952D01*
X101593334Y-120832571D01*
X101498096Y-120880190D01*
X101117143Y-120880190D01*
X102307619Y-120356381D02*
X102498096Y-120356381D01*
X102593334Y-120404000D01*
X102688572Y-120499238D01*
X102736191Y-120689714D01*
X102736191Y-121023048D01*
X102688572Y-121213524D01*
X102593334Y-121308762D01*
X102498096Y-121356381D01*
X102307619Y-121356381D01*
X102212381Y-121308762D01*
X102117143Y-121213524D01*
X102069524Y-121023048D01*
X102069524Y-120689714D01*
X102117143Y-120499238D01*
X102212381Y-120404000D01*
X102307619Y-120356381D01*
X103069524Y-120356381D02*
X103307619Y-121356381D01*
X103498096Y-120642095D01*
X103688572Y-121356381D01*
X103926667Y-120356381D01*
X104307619Y-120832571D02*
X104640953Y-120832571D01*
X104783810Y-121356381D02*
X104307619Y-121356381D01*
X104307619Y-120356381D01*
X104783810Y-120356381D01*
X105783810Y-121356381D02*
X105450476Y-120880190D01*
X105212381Y-121356381D02*
X105212381Y-120356381D01*
X105593334Y-120356381D01*
X105688572Y-120404000D01*
X105736191Y-120451619D01*
X105783810Y-120546857D01*
X105783810Y-120689714D01*
X105736191Y-120784952D01*
X105688572Y-120832571D01*
X105593334Y-120880190D01*
X105212381Y-120880190D01*
X106212381Y-120975429D02*
X106974286Y-120975429D01*
X107450476Y-121356381D02*
X107450476Y-120356381D01*
X107831429Y-120356381D01*
X107926667Y-120404000D01*
X107974286Y-120451619D01*
X108021905Y-120546857D01*
X108021905Y-120689714D01*
X107974286Y-120784952D01*
X107926667Y-120832571D01*
X107831429Y-120880190D01*
X107450476Y-120880190D01*
X108450476Y-120832571D02*
X108783810Y-120832571D01*
X108926667Y-121356381D02*
X108450476Y-121356381D01*
X108450476Y-120356381D01*
X108926667Y-120356381D01*
X109926667Y-121356381D02*
X109593333Y-120880190D01*
X109355238Y-121356381D02*
X109355238Y-120356381D01*
X109736191Y-120356381D01*
X109831429Y-120404000D01*
X109879048Y-120451619D01*
X109926667Y-120546857D01*
X109926667Y-120689714D01*
X109879048Y-120784952D01*
X109831429Y-120832571D01*
X109736191Y-120880190D01*
X109355238Y-120880190D01*
X110212381Y-120356381D02*
X110545714Y-121356381D01*
X110879048Y-120356381D01*
X111164762Y-121070667D02*
X111640953Y-121070667D01*
X111069524Y-121356381D02*
X111402857Y-120356381D01*
X111736191Y-121356381D01*
X112021905Y-121308762D02*
X112164762Y-121356381D01*
X112402858Y-121356381D01*
X112498096Y-121308762D01*
X112545715Y-121261143D01*
X112593334Y-121165905D01*
X112593334Y-121070667D01*
X112545715Y-120975429D01*
X112498096Y-120927810D01*
X112402858Y-120880190D01*
X112212381Y-120832571D01*
X112117143Y-120784952D01*
X112069524Y-120737333D01*
X112021905Y-120642095D01*
X112021905Y-120546857D01*
X112069524Y-120451619D01*
X112117143Y-120404000D01*
X112212381Y-120356381D01*
X112450477Y-120356381D01*
X112593334Y-120404000D01*
X113021905Y-121356381D02*
X113021905Y-120356381D01*
X113355238Y-120356381D02*
X113688571Y-121356381D01*
X114021905Y-120356381D01*
X114355238Y-120832571D02*
X114688572Y-120832571D01*
X114831429Y-121356381D02*
X114355238Y-121356381D01*
X114355238Y-120356381D01*
X114831429Y-120356381D01*
X115260000Y-120975429D02*
X116021905Y-120975429D01*
X116450476Y-121070667D02*
X116926667Y-121070667D01*
X116355238Y-121356381D02*
X116688571Y-120356381D01*
X117021905Y-121356381D01*
X117355238Y-121356381D02*
X117355238Y-120356381D01*
X117593333Y-120356381D01*
X117736191Y-120404000D01*
X117831429Y-120499238D01*
X117879048Y-120594476D01*
X117926667Y-120784952D01*
X117926667Y-120927810D01*
X117879048Y-121118286D01*
X117831429Y-121213524D01*
X117736191Y-121308762D01*
X117593333Y-121356381D01*
X117355238Y-121356381D01*
X118307619Y-121070667D02*
X118783810Y-121070667D01*
X118212381Y-121356381D02*
X118545714Y-120356381D01*
X118879048Y-121356381D01*
X119212381Y-121356381D02*
X119212381Y-120356381D01*
X119593334Y-120356381D01*
X119688572Y-120404000D01*
X119736191Y-120451619D01*
X119783810Y-120546857D01*
X119783810Y-120689714D01*
X119736191Y-120784952D01*
X119688572Y-120832571D01*
X119593334Y-120880190D01*
X119212381Y-120880190D01*
X120069524Y-120356381D02*
X120640953Y-120356381D01*
X120355238Y-121356381D02*
X120355238Y-120356381D01*
X120974286Y-120832571D02*
X121307620Y-120832571D01*
X121450477Y-121356381D02*
X120974286Y-121356381D01*
X120974286Y-120356381D01*
X121450477Y-120356381D01*
X122450477Y-121356381D02*
X122117143Y-120880190D01*
X121879048Y-121356381D02*
X121879048Y-120356381D01*
X122260001Y-120356381D01*
X122355239Y-120404000D01*
X122402858Y-120451619D01*
X122450477Y-120546857D01*
X122450477Y-120689714D01*
X122402858Y-120784952D01*
X122355239Y-120832571D01*
X122260001Y-120880190D01*
X121879048Y-120880190D01*
X87043808Y-130595714D02*
X87043808Y-131595714D01*
X87043808Y-130643333D02*
X87139046Y-130595714D01*
X87329523Y-130595714D01*
X87424761Y-130643333D01*
X87472380Y-130690952D01*
X87519999Y-130786190D01*
X87519999Y-131071905D01*
X87472380Y-131167143D01*
X87424761Y-131214762D01*
X87329523Y-131262381D01*
X87139046Y-131262381D01*
X87043808Y-131214762D01*
X88329523Y-131214762D02*
X88234285Y-131262381D01*
X88043808Y-131262381D01*
X87948570Y-131214762D01*
X87900951Y-131119524D01*
X87900951Y-130738571D01*
X87948570Y-130643333D01*
X88043808Y-130595714D01*
X88234285Y-130595714D01*
X88329523Y-130643333D01*
X88377142Y-130738571D01*
X88377142Y-130833810D01*
X87900951Y-130929048D01*
X88805713Y-131262381D02*
X88805713Y-130595714D01*
X88805713Y-130786190D02*
X88853332Y-130690952D01*
X88900951Y-130643333D01*
X88996189Y-130595714D01*
X89091428Y-130595714D01*
X89329523Y-130595714D02*
X89567618Y-131262381D01*
X89805714Y-130595714D01*
X90615238Y-131262381D02*
X90615238Y-130738571D01*
X90567619Y-130643333D01*
X90472381Y-130595714D01*
X90281904Y-130595714D01*
X90186666Y-130643333D01*
X90615238Y-131214762D02*
X90520000Y-131262381D01*
X90281904Y-131262381D01*
X90186666Y-131214762D01*
X90139047Y-131119524D01*
X90139047Y-131024286D01*
X90186666Y-130929048D01*
X90281904Y-130881429D01*
X90520000Y-130881429D01*
X90615238Y-130833810D01*
X91043809Y-131214762D02*
X91139047Y-131262381D01*
X91329523Y-131262381D01*
X91424762Y-131214762D01*
X91472381Y-131119524D01*
X91472381Y-131071905D01*
X91424762Y-130976667D01*
X91329523Y-130929048D01*
X91186666Y-130929048D01*
X91091428Y-130881429D01*
X91043809Y-130786190D01*
X91043809Y-130738571D01*
X91091428Y-130643333D01*
X91186666Y-130595714D01*
X91329523Y-130595714D01*
X91424762Y-130643333D01*
X91900952Y-131262381D02*
X91900952Y-130595714D01*
X91900952Y-130262381D02*
X91853333Y-130310000D01*
X91900952Y-130357619D01*
X91948571Y-130310000D01*
X91900952Y-130262381D01*
X91900952Y-130357619D01*
X92281904Y-130595714D02*
X92519999Y-131262381D01*
X92758095Y-130595714D01*
X93520000Y-131214762D02*
X93424762Y-131262381D01*
X93234285Y-131262381D01*
X93139047Y-131214762D01*
X93091428Y-131119524D01*
X93091428Y-130738571D01*
X93139047Y-130643333D01*
X93234285Y-130595714D01*
X93424762Y-130595714D01*
X93520000Y-130643333D01*
X93567619Y-130738571D01*
X93567619Y-130833810D01*
X93091428Y-130929048D01*
X95186667Y-131262381D02*
X95186667Y-130262381D01*
X95186667Y-131214762D02*
X95091429Y-131262381D01*
X94900952Y-131262381D01*
X94805714Y-131214762D01*
X94758095Y-131167143D01*
X94710476Y-131071905D01*
X94710476Y-130786190D01*
X94758095Y-130690952D01*
X94805714Y-130643333D01*
X94900952Y-130595714D01*
X95091429Y-130595714D01*
X95186667Y-130643333D01*
X95662857Y-131262381D02*
X95662857Y-130595714D01*
X95662857Y-130262381D02*
X95615238Y-130310000D01*
X95662857Y-130357619D01*
X95710476Y-130310000D01*
X95662857Y-130262381D01*
X95662857Y-130357619D01*
X96091428Y-131214762D02*
X96186666Y-131262381D01*
X96377142Y-131262381D01*
X96472381Y-131214762D01*
X96520000Y-131119524D01*
X96520000Y-131071905D01*
X96472381Y-130976667D01*
X96377142Y-130929048D01*
X96234285Y-130929048D01*
X96139047Y-130881429D01*
X96091428Y-130786190D01*
X96091428Y-130738571D01*
X96139047Y-130643333D01*
X96234285Y-130595714D01*
X96377142Y-130595714D01*
X96472381Y-130643333D01*
X96948571Y-130595714D02*
X96948571Y-131595714D01*
X96948571Y-130643333D02*
X97043809Y-130595714D01*
X97234286Y-130595714D01*
X97329524Y-130643333D01*
X97377143Y-130690952D01*
X97424762Y-130786190D01*
X97424762Y-131071905D01*
X97377143Y-131167143D01*
X97329524Y-131214762D01*
X97234286Y-131262381D01*
X97043809Y-131262381D01*
X96948571Y-131214762D01*
X97996190Y-131262381D02*
X97900952Y-131214762D01*
X97853333Y-131119524D01*
X97853333Y-130262381D01*
X98805715Y-131262381D02*
X98805715Y-130738571D01*
X98758096Y-130643333D01*
X98662858Y-130595714D01*
X98472381Y-130595714D01*
X98377143Y-130643333D01*
X98805715Y-131214762D02*
X98710477Y-131262381D01*
X98472381Y-131262381D01*
X98377143Y-131214762D01*
X98329524Y-131119524D01*
X98329524Y-131024286D01*
X98377143Y-130929048D01*
X98472381Y-130881429D01*
X98710477Y-130881429D01*
X98805715Y-130833810D01*
X99186667Y-130595714D02*
X99424762Y-131262381D01*
X99662858Y-130595714D02*
X99424762Y-131262381D01*
X99329524Y-131500476D01*
X99281905Y-131548095D01*
X99186667Y-131595714D01*
X101234287Y-131262381D02*
X101234287Y-130738571D01*
X101186668Y-130643333D01*
X101091430Y-130595714D01*
X100900953Y-130595714D01*
X100805715Y-130643333D01*
X101234287Y-131214762D02*
X101139049Y-131262381D01*
X100900953Y-131262381D01*
X100805715Y-131214762D01*
X100758096Y-131119524D01*
X100758096Y-131024286D01*
X100805715Y-130929048D01*
X100900953Y-130881429D01*
X101139049Y-130881429D01*
X101234287Y-130833810D01*
X102139049Y-131262381D02*
X102139049Y-130262381D01*
X102139049Y-131214762D02*
X102043811Y-131262381D01*
X101853334Y-131262381D01*
X101758096Y-131214762D01*
X101710477Y-131167143D01*
X101662858Y-131071905D01*
X101662858Y-130786190D01*
X101710477Y-130690952D01*
X101758096Y-130643333D01*
X101853334Y-130595714D01*
X102043811Y-130595714D01*
X102139049Y-130643333D01*
X103043811Y-131262381D02*
X103043811Y-130738571D01*
X102996192Y-130643333D01*
X102900954Y-130595714D01*
X102710477Y-130595714D01*
X102615239Y-130643333D01*
X103043811Y-131214762D02*
X102948573Y-131262381D01*
X102710477Y-131262381D01*
X102615239Y-131214762D01*
X102567620Y-131119524D01*
X102567620Y-131024286D01*
X102615239Y-130929048D01*
X102710477Y-130881429D01*
X102948573Y-130881429D01*
X103043811Y-130833810D01*
X103520001Y-130595714D02*
X103520001Y-131595714D01*
X103520001Y-130643333D02*
X103615239Y-130595714D01*
X103805716Y-130595714D01*
X103900954Y-130643333D01*
X103948573Y-130690952D01*
X103996192Y-130786190D01*
X103996192Y-131071905D01*
X103948573Y-131167143D01*
X103900954Y-131214762D01*
X103805716Y-131262381D01*
X103615239Y-131262381D01*
X103520001Y-131214762D01*
X104281906Y-130595714D02*
X104662858Y-130595714D01*
X104424763Y-130262381D02*
X104424763Y-131119524D01*
X104472382Y-131214762D01*
X104567620Y-131262381D01*
X104662858Y-131262381D01*
X105377145Y-131214762D02*
X105281907Y-131262381D01*
X105091430Y-131262381D01*
X104996192Y-131214762D01*
X104948573Y-131119524D01*
X104948573Y-130738571D01*
X104996192Y-130643333D01*
X105091430Y-130595714D01*
X105281907Y-130595714D01*
X105377145Y-130643333D01*
X105424764Y-130738571D01*
X105424764Y-130833810D01*
X104948573Y-130929048D01*
X105853335Y-131262381D02*
X105853335Y-130595714D01*
X105853335Y-130786190D02*
X105900954Y-130690952D01*
X105948573Y-130643333D01*
X106043811Y-130595714D01*
X106139050Y-130595714D01*
X65771429Y-66702381D02*
X65771429Y-65702381D01*
X66152382Y-65702381D01*
X66247620Y-65750000D01*
X66295239Y-65797619D01*
X66342858Y-65892857D01*
X66342858Y-66035714D01*
X66295239Y-66130952D01*
X66247620Y-66178571D01*
X66152382Y-66226190D01*
X65771429Y-66226190D01*
X66961905Y-65702381D02*
X67152382Y-65702381D01*
X67247620Y-65750000D01*
X67342858Y-65845238D01*
X67390477Y-66035714D01*
X67390477Y-66369048D01*
X67342858Y-66559524D01*
X67247620Y-66654762D01*
X67152382Y-66702381D01*
X66961905Y-66702381D01*
X66866667Y-66654762D01*
X66771429Y-66559524D01*
X66723810Y-66369048D01*
X66723810Y-66035714D01*
X66771429Y-65845238D01*
X66866667Y-65750000D01*
X66961905Y-65702381D01*
X67723810Y-65702381D02*
X67961905Y-66702381D01*
X68152382Y-65988095D01*
X68342858Y-66702381D01*
X68580953Y-65702381D01*
X68961905Y-66178571D02*
X69295239Y-66178571D01*
X69438096Y-66702381D02*
X68961905Y-66702381D01*
X68961905Y-65702381D01*
X69438096Y-65702381D01*
X70438096Y-66702381D02*
X70104762Y-66226190D01*
X69866667Y-66702381D02*
X69866667Y-65702381D01*
X70247620Y-65702381D01*
X70342858Y-65750000D01*
X70390477Y-65797619D01*
X70438096Y-65892857D01*
X70438096Y-66035714D01*
X70390477Y-66130952D01*
X70342858Y-66178571D01*
X70247620Y-66226190D01*
X69866667Y-66226190D01*
X70866667Y-66321429D02*
X71628572Y-66321429D01*
X72104762Y-66702381D02*
X72104762Y-65702381D01*
X72485715Y-65702381D01*
X72580953Y-65750000D01*
X72628572Y-65797619D01*
X72676191Y-65892857D01*
X72676191Y-66035714D01*
X72628572Y-66130952D01*
X72580953Y-66178571D01*
X72485715Y-66226190D01*
X72104762Y-66226190D01*
X73104762Y-66178571D02*
X73438096Y-66178571D01*
X73580953Y-66702381D02*
X73104762Y-66702381D01*
X73104762Y-65702381D01*
X73580953Y-65702381D01*
X74580953Y-66702381D02*
X74247619Y-66226190D01*
X74009524Y-66702381D02*
X74009524Y-65702381D01*
X74390477Y-65702381D01*
X74485715Y-65750000D01*
X74533334Y-65797619D01*
X74580953Y-65892857D01*
X74580953Y-66035714D01*
X74533334Y-66130952D01*
X74485715Y-66178571D01*
X74390477Y-66226190D01*
X74009524Y-66226190D01*
X74866667Y-65702381D02*
X75200000Y-66702381D01*
X75533334Y-65702381D01*
X75819048Y-66416667D02*
X76295239Y-66416667D01*
X75723810Y-66702381D02*
X76057143Y-65702381D01*
X76390477Y-66702381D01*
X76676191Y-66654762D02*
X76819048Y-66702381D01*
X77057144Y-66702381D01*
X77152382Y-66654762D01*
X77200001Y-66607143D01*
X77247620Y-66511905D01*
X77247620Y-66416667D01*
X77200001Y-66321429D01*
X77152382Y-66273810D01*
X77057144Y-66226190D01*
X76866667Y-66178571D01*
X76771429Y-66130952D01*
X76723810Y-66083333D01*
X76676191Y-65988095D01*
X76676191Y-65892857D01*
X76723810Y-65797619D01*
X76771429Y-65750000D01*
X76866667Y-65702381D01*
X77104763Y-65702381D01*
X77247620Y-65750000D01*
X77676191Y-66702381D02*
X77676191Y-65702381D01*
X78009524Y-65702381D02*
X78342857Y-66702381D01*
X78676191Y-65702381D01*
X79009524Y-66178571D02*
X79342858Y-66178571D01*
X79485715Y-66702381D02*
X79009524Y-66702381D01*
X79009524Y-65702381D01*
X79485715Y-65702381D01*
X79914286Y-66321429D02*
X80676191Y-66321429D01*
X81152381Y-66702381D02*
X81152381Y-65702381D01*
X81485715Y-66416667D01*
X81819048Y-65702381D01*
X81819048Y-66702381D01*
X82485714Y-65702381D02*
X82676191Y-65702381D01*
X82771429Y-65750000D01*
X82866667Y-65845238D01*
X82914286Y-66035714D01*
X82914286Y-66369048D01*
X82866667Y-66559524D01*
X82771429Y-66654762D01*
X82676191Y-66702381D01*
X82485714Y-66702381D01*
X82390476Y-66654762D01*
X82295238Y-66559524D01*
X82247619Y-66369048D01*
X82247619Y-66035714D01*
X82295238Y-65845238D01*
X82390476Y-65750000D01*
X82485714Y-65702381D01*
X83342857Y-66702381D02*
X83342857Y-65702381D01*
X83580952Y-65702381D01*
X83723810Y-65750000D01*
X83819048Y-65845238D01*
X83866667Y-65940476D01*
X83914286Y-66130952D01*
X83914286Y-66273810D01*
X83866667Y-66464286D01*
X83819048Y-66559524D01*
X83723810Y-66654762D01*
X83580952Y-66702381D01*
X83342857Y-66702381D01*
X84342857Y-65702381D02*
X84342857Y-66511905D01*
X84390476Y-66607143D01*
X84438095Y-66654762D01*
X84533333Y-66702381D01*
X84723810Y-66702381D01*
X84819048Y-66654762D01*
X84866667Y-66607143D01*
X84914286Y-66511905D01*
X84914286Y-65702381D01*
X85866667Y-66702381D02*
X85390476Y-66702381D01*
X85390476Y-65702381D01*
X86200000Y-66178571D02*
X86533334Y-66178571D01*
X86676191Y-66702381D02*
X86200000Y-66702381D01*
X86200000Y-65702381D01*
X86676191Y-65702381D01*
X139232191Y-95972381D02*
X139803620Y-95972381D01*
X139517905Y-96972381D02*
X139517905Y-95972381D01*
X140136953Y-96972381D02*
X140136953Y-95972381D01*
X140470287Y-96686667D01*
X140803620Y-95972381D01*
X140803620Y-96972381D01*
X141232191Y-96924762D02*
X141375048Y-96972381D01*
X141613144Y-96972381D01*
X141708382Y-96924762D01*
X141756001Y-96877143D01*
X141803620Y-96781905D01*
X141803620Y-96686667D01*
X141756001Y-96591429D01*
X141708382Y-96543810D01*
X141613144Y-96496190D01*
X141422667Y-96448571D01*
X141327429Y-96400952D01*
X141279810Y-96353333D01*
X141232191Y-96258095D01*
X141232191Y-96162857D01*
X141279810Y-96067619D01*
X141327429Y-96020000D01*
X141422667Y-95972381D01*
X141660763Y-95972381D01*
X141803620Y-96020000D01*
X141994096Y-97067619D02*
X142756001Y-97067619D01*
X142946477Y-96924762D02*
X143089334Y-96972381D01*
X143327430Y-96972381D01*
X143422668Y-96924762D01*
X143470287Y-96877143D01*
X143517906Y-96781905D01*
X143517906Y-96686667D01*
X143470287Y-96591429D01*
X143422668Y-96543810D01*
X143327430Y-96496190D01*
X143136953Y-96448571D01*
X143041715Y-96400952D01*
X142994096Y-96353333D01*
X142946477Y-96258095D01*
X142946477Y-96162857D01*
X142994096Y-96067619D01*
X143041715Y-96020000D01*
X143136953Y-95972381D01*
X143375049Y-95972381D01*
X143517906Y-96020000D01*
X143851239Y-95972381D02*
X144089334Y-96972381D01*
X144279811Y-96258095D01*
X144470287Y-96972381D01*
X144708382Y-95972381D01*
X145089334Y-96972381D02*
X145089334Y-95972381D01*
X145327429Y-95972381D01*
X145470287Y-96020000D01*
X145565525Y-96115238D01*
X145613144Y-96210476D01*
X145660763Y-96400952D01*
X145660763Y-96543810D01*
X145613144Y-96734286D01*
X145565525Y-96829524D01*
X145470287Y-96924762D01*
X145327429Y-96972381D01*
X145089334Y-96972381D01*
X146089334Y-96972381D02*
X146089334Y-95972381D01*
X146756000Y-95972381D02*
X146946477Y-95972381D01*
X147041715Y-96020000D01*
X147136953Y-96115238D01*
X147184572Y-96305714D01*
X147184572Y-96639048D01*
X147136953Y-96829524D01*
X147041715Y-96924762D01*
X146946477Y-96972381D01*
X146756000Y-96972381D01*
X146660762Y-96924762D01*
X146565524Y-96829524D01*
X146517905Y-96639048D01*
X146517905Y-96305714D01*
X146565524Y-96115238D01*
X146660762Y-96020000D01*
X146756000Y-95972381D01*
X139232095Y-98512381D02*
X139803524Y-98512381D01*
X139517809Y-99512381D02*
X139517809Y-98512381D01*
X140136857Y-99512381D02*
X140136857Y-98512381D01*
X140374952Y-98512381D01*
X140517810Y-98560000D01*
X140613048Y-98655238D01*
X140660667Y-98750476D01*
X140708286Y-98940952D01*
X140708286Y-99083810D01*
X140660667Y-99274286D01*
X140613048Y-99369524D01*
X140517810Y-99464762D01*
X140374952Y-99512381D01*
X140136857Y-99512381D01*
X141327333Y-98512381D02*
X141517810Y-98512381D01*
X141613048Y-98560000D01*
X141708286Y-98655238D01*
X141755905Y-98845714D01*
X141755905Y-99179048D01*
X141708286Y-99369524D01*
X141613048Y-99464762D01*
X141517810Y-99512381D01*
X141327333Y-99512381D01*
X141232095Y-99464762D01*
X141136857Y-99369524D01*
X141089238Y-99179048D01*
X141089238Y-98845714D01*
X141136857Y-98655238D01*
X141232095Y-98560000D01*
X141327333Y-98512381D01*
X141946381Y-99607619D02*
X142708286Y-99607619D01*
X142898762Y-99464762D02*
X143041619Y-99512381D01*
X143279715Y-99512381D01*
X143374953Y-99464762D01*
X143422572Y-99417143D01*
X143470191Y-99321905D01*
X143470191Y-99226667D01*
X143422572Y-99131429D01*
X143374953Y-99083810D01*
X143279715Y-99036190D01*
X143089238Y-98988571D01*
X142994000Y-98940952D01*
X142946381Y-98893333D01*
X142898762Y-98798095D01*
X142898762Y-98702857D01*
X142946381Y-98607619D01*
X142994000Y-98560000D01*
X143089238Y-98512381D01*
X143327334Y-98512381D01*
X143470191Y-98560000D01*
X143803524Y-98512381D02*
X144041619Y-99512381D01*
X144232096Y-98798095D01*
X144422572Y-99512381D01*
X144660667Y-98512381D01*
X145232095Y-98512381D02*
X145422572Y-98512381D01*
X145517810Y-98560000D01*
X145613048Y-98655238D01*
X145660667Y-98845714D01*
X145660667Y-99179048D01*
X145613048Y-99369524D01*
X145517810Y-99464762D01*
X145422572Y-99512381D01*
X145232095Y-99512381D01*
X145136857Y-99464762D01*
X145041619Y-99369524D01*
X144994000Y-99179048D01*
X144994000Y-98845714D01*
X145041619Y-98655238D01*
X145136857Y-98560000D01*
X145232095Y-98512381D01*
X139208095Y-101052381D02*
X139541428Y-102052381D01*
X139874762Y-101052381D01*
X140160476Y-101766667D02*
X140636667Y-101766667D01*
X140065238Y-102052381D02*
X140398571Y-101052381D01*
X140731905Y-102052381D01*
X141065238Y-102052381D02*
X141065238Y-101052381D01*
X141446191Y-101052381D01*
X141541429Y-101100000D01*
X141589048Y-101147619D01*
X141636667Y-101242857D01*
X141636667Y-101385714D01*
X141589048Y-101480952D01*
X141541429Y-101528571D01*
X141446191Y-101576190D01*
X141065238Y-101576190D01*
X142065238Y-102052381D02*
X142065238Y-101052381D01*
X142446191Y-101052381D01*
X142541429Y-101100000D01*
X142589048Y-101147619D01*
X142636667Y-101242857D01*
X142636667Y-101385714D01*
X142589048Y-101480952D01*
X142541429Y-101528571D01*
X142446191Y-101576190D01*
X142065238Y-101576190D01*
X136398096Y-123750000D02*
X136302858Y-123702381D01*
X136160001Y-123702381D01*
X136017143Y-123750000D01*
X135921905Y-123845238D01*
X135874286Y-123940476D01*
X135826667Y-124130952D01*
X135826667Y-124273810D01*
X135874286Y-124464286D01*
X135921905Y-124559524D01*
X136017143Y-124654762D01*
X136160001Y-124702381D01*
X136255239Y-124702381D01*
X136398096Y-124654762D01*
X136445715Y-124607143D01*
X136445715Y-124273810D01*
X136255239Y-124273810D01*
X136874286Y-124702381D02*
X136874286Y-123702381D01*
X137445715Y-124702381D01*
X137445715Y-123702381D01*
X137921905Y-124702381D02*
X137921905Y-123702381D01*
X138160000Y-123702381D01*
X138302858Y-123750000D01*
X138398096Y-123845238D01*
X138445715Y-123940476D01*
X138493334Y-124130952D01*
X138493334Y-124273810D01*
X138445715Y-124464286D01*
X138398096Y-124559524D01*
X138302858Y-124654762D01*
X138160000Y-124702381D01*
X137921905Y-124702381D01*
X71660000Y-124741429D02*
X72421905Y-124741429D01*
X72040953Y-125122381D02*
X72040953Y-124360476D01*
X72802857Y-124122381D02*
X73421905Y-124122381D01*
X73088571Y-124503333D01*
X73231429Y-124503333D01*
X73326667Y-124550952D01*
X73374286Y-124598571D01*
X73421905Y-124693810D01*
X73421905Y-124931905D01*
X73374286Y-125027143D01*
X73326667Y-125074762D01*
X73231429Y-125122381D01*
X72945714Y-125122381D01*
X72850476Y-125074762D01*
X72802857Y-125027143D01*
X73850476Y-125027143D02*
X73898095Y-125074762D01*
X73850476Y-125122381D01*
X73802857Y-125074762D01*
X73850476Y-125027143D01*
X73850476Y-125122381D01*
X74231428Y-124122381D02*
X74850476Y-124122381D01*
X74517142Y-124503333D01*
X74660000Y-124503333D01*
X74755238Y-124550952D01*
X74802857Y-124598571D01*
X74850476Y-124693810D01*
X74850476Y-124931905D01*
X74802857Y-125027143D01*
X74755238Y-125074762D01*
X74660000Y-125122381D01*
X74374285Y-125122381D01*
X74279047Y-125074762D01*
X74231428Y-125027143D01*
X75136190Y-124122381D02*
X75469523Y-125122381D01*
X75802857Y-124122381D01*
X62738096Y-129040000D02*
X62642858Y-128992381D01*
X62500001Y-128992381D01*
X62357143Y-129040000D01*
X62261905Y-129135238D01*
X62214286Y-129230476D01*
X62166667Y-129420952D01*
X62166667Y-129563810D01*
X62214286Y-129754286D01*
X62261905Y-129849524D01*
X62357143Y-129944762D01*
X62500001Y-129992381D01*
X62595239Y-129992381D01*
X62738096Y-129944762D01*
X62785715Y-129897143D01*
X62785715Y-129563810D01*
X62595239Y-129563810D01*
X63214286Y-129992381D02*
X63214286Y-128992381D01*
X63785715Y-129992381D01*
X63785715Y-128992381D01*
X64261905Y-129992381D02*
X64261905Y-128992381D01*
X64500000Y-128992381D01*
X64642858Y-129040000D01*
X64738096Y-129135238D01*
X64785715Y-129230476D01*
X64833334Y-129420952D01*
X64833334Y-129563810D01*
X64785715Y-129754286D01*
X64738096Y-129849524D01*
X64642858Y-129944762D01*
X64500000Y-129992381D01*
X64261905Y-129992381D01*
X131834000Y-47497904D02*
X131786381Y-47593142D01*
X131786381Y-47735999D01*
X131834000Y-47878857D01*
X131929238Y-47974095D01*
X132024476Y-48021714D01*
X132214952Y-48069333D01*
X132357810Y-48069333D01*
X132548286Y-48021714D01*
X132643524Y-47974095D01*
X132738762Y-47878857D01*
X132786381Y-47735999D01*
X132786381Y-47640761D01*
X132738762Y-47497904D01*
X132691143Y-47450285D01*
X132357810Y-47450285D01*
X132357810Y-47640761D01*
X132786381Y-47021714D02*
X131786381Y-47021714D01*
X132786381Y-46450285D01*
X131786381Y-46450285D01*
X132786381Y-45974095D02*
X131786381Y-45974095D01*
X131786381Y-45736000D01*
X131834000Y-45593142D01*
X131929238Y-45497904D01*
X132024476Y-45450285D01*
X132214952Y-45402666D01*
X132357810Y-45402666D01*
X132548286Y-45450285D01*
X132643524Y-45497904D01*
X132738762Y-45593142D01*
X132786381Y-45736000D01*
X132786381Y-45974095D01*
X57554762Y-111092383D02*
X57602381Y-111187621D01*
X57602381Y-111378098D01*
X57554762Y-111473336D01*
X57507143Y-111520955D01*
X57411905Y-111568574D01*
X57126190Y-111568574D01*
X57030952Y-111520955D01*
X56983333Y-111473336D01*
X56935714Y-111378098D01*
X56935714Y-111187621D01*
X56983333Y-111092383D01*
X57602381Y-110663812D02*
X56935714Y-110663812D01*
X57126190Y-110663812D02*
X57030952Y-110616193D01*
X56983333Y-110568574D01*
X56935714Y-110473336D01*
X56935714Y-110378097D01*
X56935714Y-110140002D02*
X57602381Y-109901907D01*
X56935714Y-109663811D02*
X57602381Y-109901907D01*
X57840476Y-109997145D01*
X57888095Y-110044764D01*
X57935714Y-110140002D01*
X57554762Y-109330478D02*
X57602381Y-109235240D01*
X57602381Y-109044764D01*
X57554762Y-108949525D01*
X57459524Y-108901906D01*
X57411905Y-108901906D01*
X57316667Y-108949525D01*
X57269048Y-109044764D01*
X57269048Y-109187621D01*
X57221429Y-109282859D01*
X57126190Y-109330478D01*
X57078571Y-109330478D01*
X56983333Y-109282859D01*
X56935714Y-109187621D01*
X56935714Y-109044764D01*
X56983333Y-108949525D01*
X56935714Y-108616192D02*
X56935714Y-108235240D01*
X56602381Y-108473335D02*
X57459524Y-108473335D01*
X57554762Y-108425716D01*
X57602381Y-108330478D01*
X57602381Y-108235240D01*
X57602381Y-107473334D02*
X57078571Y-107473334D01*
X56983333Y-107520953D01*
X56935714Y-107616191D01*
X56935714Y-107806668D01*
X56983333Y-107901906D01*
X57554762Y-107473334D02*
X57602381Y-107568572D01*
X57602381Y-107806668D01*
X57554762Y-107901906D01*
X57459524Y-107949525D01*
X57364286Y-107949525D01*
X57269048Y-107901906D01*
X57221429Y-107806668D01*
X57221429Y-107568572D01*
X57173810Y-107473334D01*
X57602381Y-106854287D02*
X57554762Y-106949525D01*
X57459524Y-106997144D01*
X56602381Y-106997144D01*
X56935714Y-106616191D02*
X56935714Y-106235239D01*
X57602381Y-106473334D02*
X56745238Y-106473334D01*
X56650000Y-106425715D01*
X56602381Y-106330477D01*
X56602381Y-106235239D01*
X57602381Y-105759048D02*
X57554762Y-105854286D01*
X57507143Y-105901905D01*
X57411905Y-105949524D01*
X57126190Y-105949524D01*
X57030952Y-105901905D01*
X56983333Y-105854286D01*
X56935714Y-105759048D01*
X56935714Y-105616190D01*
X56983333Y-105520952D01*
X57030952Y-105473333D01*
X57126190Y-105425714D01*
X57411905Y-105425714D01*
X57507143Y-105473333D01*
X57554762Y-105520952D01*
X57602381Y-105616190D01*
X57602381Y-105759048D01*
X56935714Y-104997143D02*
X57602381Y-104997143D01*
X57030952Y-104997143D02*
X56983333Y-104949524D01*
X56935714Y-104854286D01*
X56935714Y-104711428D01*
X56983333Y-104616190D01*
X57078571Y-104568571D01*
X57602381Y-104568571D01*
X56935714Y-104235238D02*
X56935714Y-103854286D01*
X56602381Y-104092381D02*
X57459524Y-104092381D01*
X57554762Y-104044762D01*
X57602381Y-103949524D01*
X57602381Y-103854286D01*
X56935714Y-103616190D02*
X56935714Y-103092380D01*
X57602381Y-103616190D01*
X57602381Y-103092380D01*
X57602381Y-101520951D02*
X57078571Y-101520951D01*
X56983333Y-101568570D01*
X56935714Y-101663808D01*
X56935714Y-101854285D01*
X56983333Y-101949523D01*
X57554762Y-101520951D02*
X57602381Y-101616189D01*
X57602381Y-101854285D01*
X57554762Y-101949523D01*
X57459524Y-101997142D01*
X57364286Y-101997142D01*
X57269048Y-101949523D01*
X57221429Y-101854285D01*
X57221429Y-101616189D01*
X57173810Y-101520951D01*
X57602381Y-100616189D02*
X56602381Y-100616189D01*
X57554762Y-100616189D02*
X57602381Y-100711427D01*
X57602381Y-100901904D01*
X57554762Y-100997142D01*
X57507143Y-101044761D01*
X57411905Y-101092380D01*
X57126190Y-101092380D01*
X57030952Y-101044761D01*
X56983333Y-100997142D01*
X56935714Y-100901904D01*
X56935714Y-100711427D01*
X56983333Y-100616189D01*
X57602381Y-99711427D02*
X57078571Y-99711427D01*
X56983333Y-99759046D01*
X56935714Y-99854284D01*
X56935714Y-100044761D01*
X56983333Y-100139999D01*
X57554762Y-99711427D02*
X57602381Y-99806665D01*
X57602381Y-100044761D01*
X57554762Y-100139999D01*
X57459524Y-100187618D01*
X57364286Y-100187618D01*
X57269048Y-100139999D01*
X57221429Y-100044761D01*
X57221429Y-99806665D01*
X57173810Y-99711427D01*
X56935714Y-99235237D02*
X57935714Y-99235237D01*
X56983333Y-99235237D02*
X56935714Y-99139999D01*
X56935714Y-98949522D01*
X56983333Y-98854284D01*
X57030952Y-98806665D01*
X57126190Y-98759046D01*
X57411905Y-98759046D01*
X57507143Y-98806665D01*
X57554762Y-98854284D01*
X57602381Y-98949522D01*
X57602381Y-99139999D01*
X57554762Y-99235237D01*
X56935714Y-98473332D02*
X56935714Y-98092380D01*
X56602381Y-98330475D02*
X57459524Y-98330475D01*
X57554762Y-98282856D01*
X57602381Y-98187618D01*
X57602381Y-98092380D01*
X57554762Y-97378093D02*
X57602381Y-97473331D01*
X57602381Y-97663808D01*
X57554762Y-97759046D01*
X57459524Y-97806665D01*
X57078571Y-97806665D01*
X56983333Y-97759046D01*
X56935714Y-97663808D01*
X56935714Y-97473331D01*
X56983333Y-97378093D01*
X57078571Y-97330474D01*
X57173810Y-97330474D01*
X57269048Y-97806665D01*
X57602381Y-96901903D02*
X56935714Y-96901903D01*
X57126190Y-96901903D02*
X57030952Y-96854284D01*
X56983333Y-96806665D01*
X56935714Y-96711427D01*
X56935714Y-96616188D01*
X65279047Y-99512381D02*
X65279047Y-98512381D01*
X65660000Y-98512381D01*
X65755238Y-98560000D01*
X65802857Y-98607619D01*
X65850476Y-98702857D01*
X65850476Y-98845714D01*
X65802857Y-98940952D01*
X65755238Y-98988571D01*
X65660000Y-99036190D01*
X65279047Y-99036190D01*
X66469523Y-98512381D02*
X66660000Y-98512381D01*
X66755238Y-98560000D01*
X66850476Y-98655238D01*
X66898095Y-98845714D01*
X66898095Y-99179048D01*
X66850476Y-99369524D01*
X66755238Y-99464762D01*
X66660000Y-99512381D01*
X66469523Y-99512381D01*
X66374285Y-99464762D01*
X66279047Y-99369524D01*
X66231428Y-99179048D01*
X66231428Y-98845714D01*
X66279047Y-98655238D01*
X66374285Y-98560000D01*
X66469523Y-98512381D01*
X67231428Y-98512381D02*
X67469523Y-99512381D01*
X67660000Y-98798095D01*
X67850476Y-99512381D01*
X68088571Y-98512381D01*
X68469523Y-98988571D02*
X68802857Y-98988571D01*
X68945714Y-99512381D02*
X68469523Y-99512381D01*
X68469523Y-98512381D01*
X68945714Y-98512381D01*
X69945714Y-99512381D02*
X69612380Y-99036190D01*
X69374285Y-99512381D02*
X69374285Y-98512381D01*
X69755238Y-98512381D01*
X69850476Y-98560000D01*
X69898095Y-98607619D01*
X69945714Y-98702857D01*
X69945714Y-98845714D01*
X69898095Y-98940952D01*
X69850476Y-98988571D01*
X69755238Y-99036190D01*
X69374285Y-99036190D01*
X70374285Y-99131429D02*
X71136190Y-99131429D01*
X72183809Y-99417143D02*
X72136190Y-99464762D01*
X71993333Y-99512381D01*
X71898095Y-99512381D01*
X71755237Y-99464762D01*
X71659999Y-99369524D01*
X71612380Y-99274286D01*
X71564761Y-99083810D01*
X71564761Y-98940952D01*
X71612380Y-98750476D01*
X71659999Y-98655238D01*
X71755237Y-98560000D01*
X71898095Y-98512381D01*
X71993333Y-98512381D01*
X72136190Y-98560000D01*
X72183809Y-98607619D01*
X73183809Y-99512381D02*
X72850475Y-99036190D01*
X72612380Y-99512381D02*
X72612380Y-98512381D01*
X72993333Y-98512381D01*
X73088571Y-98560000D01*
X73136190Y-98607619D01*
X73183809Y-98702857D01*
X73183809Y-98845714D01*
X73136190Y-98940952D01*
X73088571Y-98988571D01*
X72993333Y-99036190D01*
X72612380Y-99036190D01*
X73802856Y-99036190D02*
X73802856Y-99512381D01*
X73469523Y-98512381D02*
X73802856Y-99036190D01*
X74136190Y-98512381D01*
X74421904Y-99464762D02*
X74564761Y-99512381D01*
X74802857Y-99512381D01*
X74898095Y-99464762D01*
X74945714Y-99417143D01*
X74993333Y-99321905D01*
X74993333Y-99226667D01*
X74945714Y-99131429D01*
X74898095Y-99083810D01*
X74802857Y-99036190D01*
X74612380Y-98988571D01*
X74517142Y-98940952D01*
X74469523Y-98893333D01*
X74421904Y-98798095D01*
X74421904Y-98702857D01*
X74469523Y-98607619D01*
X74517142Y-98560000D01*
X74612380Y-98512381D01*
X74850476Y-98512381D01*
X74993333Y-98560000D01*
X75279047Y-98512381D02*
X75850476Y-98512381D01*
X75564761Y-99512381D02*
X75564761Y-98512381D01*
X76136190Y-99226667D02*
X76612381Y-99226667D01*
X76040952Y-99512381D02*
X76374285Y-98512381D01*
X76707619Y-99512381D01*
X77517143Y-99512381D02*
X77040952Y-99512381D01*
X77040952Y-98512381D01*
X78183810Y-98988571D02*
X77850476Y-98988571D01*
X77850476Y-99512381D02*
X77850476Y-98512381D01*
X78326667Y-98512381D01*
X78898095Y-98512381D02*
X79088572Y-98512381D01*
X79183810Y-98560000D01*
X79279048Y-98655238D01*
X79326667Y-98845714D01*
X79326667Y-99179048D01*
X79279048Y-99369524D01*
X79183810Y-99464762D01*
X79088572Y-99512381D01*
X78898095Y-99512381D01*
X78802857Y-99464762D01*
X78707619Y-99369524D01*
X78660000Y-99179048D01*
X78660000Y-98845714D01*
X78707619Y-98655238D01*
X78802857Y-98560000D01*
X78898095Y-98512381D01*
X79755238Y-99512381D02*
X79755238Y-98512381D01*
X80326667Y-99512381D01*
X80326667Y-98512381D01*
X80660000Y-98512381D02*
X81231429Y-98512381D01*
X80945714Y-99512381D02*
X80945714Y-98512381D01*
X81469524Y-98512381D02*
X82136191Y-98512381D01*
X81469524Y-99512381D01*
X82136191Y-99512381D01*
X69207619Y-117082381D02*
X69207619Y-116082381D01*
X69588572Y-116082381D01*
X69683810Y-116130000D01*
X69731429Y-116177619D01*
X69779048Y-116272857D01*
X69779048Y-116415714D01*
X69731429Y-116510952D01*
X69683810Y-116558571D01*
X69588572Y-116606190D01*
X69207619Y-116606190D01*
X70398095Y-116082381D02*
X70588572Y-116082381D01*
X70683810Y-116130000D01*
X70779048Y-116225238D01*
X70826667Y-116415714D01*
X70826667Y-116749048D01*
X70779048Y-116939524D01*
X70683810Y-117034762D01*
X70588572Y-117082381D01*
X70398095Y-117082381D01*
X70302857Y-117034762D01*
X70207619Y-116939524D01*
X70160000Y-116749048D01*
X70160000Y-116415714D01*
X70207619Y-116225238D01*
X70302857Y-116130000D01*
X70398095Y-116082381D01*
X71160000Y-116082381D02*
X71398095Y-117082381D01*
X71588572Y-116368095D01*
X71779048Y-117082381D01*
X72017143Y-116082381D01*
X72398095Y-116558571D02*
X72731429Y-116558571D01*
X72874286Y-117082381D02*
X72398095Y-117082381D01*
X72398095Y-116082381D01*
X72874286Y-116082381D01*
X73874286Y-117082381D02*
X73540952Y-116606190D01*
X73302857Y-117082381D02*
X73302857Y-116082381D01*
X73683810Y-116082381D01*
X73779048Y-116130000D01*
X73826667Y-116177619D01*
X73874286Y-116272857D01*
X73874286Y-116415714D01*
X73826667Y-116510952D01*
X73779048Y-116558571D01*
X73683810Y-116606190D01*
X73302857Y-116606190D01*
X74302857Y-116701429D02*
X75064762Y-116701429D01*
X76112381Y-116987143D02*
X76064762Y-117034762D01*
X75921905Y-117082381D01*
X75826667Y-117082381D01*
X75683809Y-117034762D01*
X75588571Y-116939524D01*
X75540952Y-116844286D01*
X75493333Y-116653810D01*
X75493333Y-116510952D01*
X75540952Y-116320476D01*
X75588571Y-116225238D01*
X75683809Y-116130000D01*
X75826667Y-116082381D01*
X75921905Y-116082381D01*
X76064762Y-116130000D01*
X76112381Y-116177619D01*
X76540952Y-117082381D02*
X76540952Y-116082381D01*
X76921905Y-116082381D01*
X77017143Y-116130000D01*
X77064762Y-116177619D01*
X77112381Y-116272857D01*
X77112381Y-116415714D01*
X77064762Y-116510952D01*
X77017143Y-116558571D01*
X76921905Y-116606190D01*
X76540952Y-116606190D01*
X77540952Y-116082381D02*
X77540952Y-116891905D01*
X77588571Y-116987143D01*
X77636190Y-117034762D01*
X77731428Y-117082381D01*
X77921905Y-117082381D01*
X78017143Y-117034762D01*
X78064762Y-116987143D01*
X78112381Y-116891905D01*
X78112381Y-116082381D01*
X113236762Y-63428571D02*
X113379619Y-63476190D01*
X113427238Y-63523810D01*
X113474857Y-63619048D01*
X113474857Y-63761905D01*
X113427238Y-63857143D01*
X113379619Y-63904762D01*
X113284381Y-63952381D01*
X112903428Y-63952381D01*
X112903428Y-62952381D01*
X113236762Y-62952381D01*
X113332000Y-63000000D01*
X113379619Y-63047619D01*
X113427238Y-63142857D01*
X113427238Y-63238095D01*
X113379619Y-63333333D01*
X113332000Y-63380952D01*
X113236762Y-63428571D01*
X112903428Y-63428571D01*
X114379619Y-63952381D02*
X113903428Y-63952381D01*
X113903428Y-62952381D01*
X114712952Y-63428571D02*
X115046286Y-63428571D01*
X115189143Y-63952381D02*
X114712952Y-63952381D01*
X114712952Y-62952381D01*
X115189143Y-62952381D01*
X115617714Y-63571429D02*
X116379619Y-63571429D01*
X116712952Y-62952381D02*
X117284381Y-62952381D01*
X116998666Y-63952381D02*
X116998666Y-62952381D01*
X117617714Y-63428571D02*
X117951048Y-63428571D01*
X118093905Y-63952381D02*
X117617714Y-63952381D01*
X117617714Y-62952381D01*
X118093905Y-62952381D01*
X118474857Y-63904762D02*
X118617714Y-63952381D01*
X118855810Y-63952381D01*
X118951048Y-63904762D01*
X118998667Y-63857143D01*
X119046286Y-63761905D01*
X119046286Y-63666667D01*
X118998667Y-63571429D01*
X118951048Y-63523810D01*
X118855810Y-63476190D01*
X118665333Y-63428571D01*
X118570095Y-63380952D01*
X118522476Y-63333333D01*
X118474857Y-63238095D01*
X118474857Y-63142857D01*
X118522476Y-63047619D01*
X118570095Y-63000000D01*
X118665333Y-62952381D01*
X118903429Y-62952381D01*
X119046286Y-63000000D01*
X119332000Y-62952381D02*
X119903429Y-62952381D01*
X119617714Y-63952381D02*
X119617714Y-62952381D01*
X111284286Y-51252381D02*
X111284286Y-50252381D01*
X111665239Y-50252381D01*
X111760477Y-50300000D01*
X111808096Y-50347619D01*
X111855715Y-50442857D01*
X111855715Y-50585714D01*
X111808096Y-50680952D01*
X111760477Y-50728571D01*
X111665239Y-50776190D01*
X111284286Y-50776190D01*
X112474762Y-50252381D02*
X112665239Y-50252381D01*
X112760477Y-50300000D01*
X112855715Y-50395238D01*
X112903334Y-50585714D01*
X112903334Y-50919048D01*
X112855715Y-51109524D01*
X112760477Y-51204762D01*
X112665239Y-51252381D01*
X112474762Y-51252381D01*
X112379524Y-51204762D01*
X112284286Y-51109524D01*
X112236667Y-50919048D01*
X112236667Y-50585714D01*
X112284286Y-50395238D01*
X112379524Y-50300000D01*
X112474762Y-50252381D01*
X113236667Y-50252381D02*
X113474762Y-51252381D01*
X113665239Y-50538095D01*
X113855715Y-51252381D01*
X114093810Y-50252381D01*
X114474762Y-50728571D02*
X114808096Y-50728571D01*
X114950953Y-51252381D02*
X114474762Y-51252381D01*
X114474762Y-50252381D01*
X114950953Y-50252381D01*
X115950953Y-51252381D02*
X115617619Y-50776190D01*
X115379524Y-51252381D02*
X115379524Y-50252381D01*
X115760477Y-50252381D01*
X115855715Y-50300000D01*
X115903334Y-50347619D01*
X115950953Y-50442857D01*
X115950953Y-50585714D01*
X115903334Y-50680952D01*
X115855715Y-50728571D01*
X115760477Y-50776190D01*
X115379524Y-50776190D01*
X116379524Y-50871429D02*
X117141429Y-50871429D01*
X117950953Y-50728571D02*
X118093810Y-50776190D01*
X118141429Y-50823810D01*
X118189048Y-50919048D01*
X118189048Y-51061905D01*
X118141429Y-51157143D01*
X118093810Y-51204762D01*
X117998572Y-51252381D01*
X117617619Y-51252381D01*
X117617619Y-50252381D01*
X117950953Y-50252381D01*
X118046191Y-50300000D01*
X118093810Y-50347619D01*
X118141429Y-50442857D01*
X118141429Y-50538095D01*
X118093810Y-50633333D01*
X118046191Y-50680952D01*
X117950953Y-50728571D01*
X117617619Y-50728571D01*
X119093810Y-51252381D02*
X118617619Y-51252381D01*
X118617619Y-50252381D01*
X119427143Y-50728571D02*
X119760477Y-50728571D01*
X119903334Y-51252381D02*
X119427143Y-51252381D01*
X119427143Y-50252381D01*
X119903334Y-50252381D01*
X139073143Y-91892381D02*
X139073143Y-90892381D01*
X139644572Y-91892381D01*
X139644572Y-90892381D01*
X140692191Y-91892381D02*
X140358857Y-91416190D01*
X140120762Y-91892381D02*
X140120762Y-90892381D01*
X140501715Y-90892381D01*
X140596953Y-90940000D01*
X140644572Y-90987619D01*
X140692191Y-91082857D01*
X140692191Y-91225714D01*
X140644572Y-91320952D01*
X140596953Y-91368571D01*
X140501715Y-91416190D01*
X140120762Y-91416190D01*
X141073143Y-91844762D02*
X141216000Y-91892381D01*
X141454096Y-91892381D01*
X141549334Y-91844762D01*
X141596953Y-91797143D01*
X141644572Y-91701905D01*
X141644572Y-91606667D01*
X141596953Y-91511429D01*
X141549334Y-91463810D01*
X141454096Y-91416190D01*
X141263619Y-91368571D01*
X141168381Y-91320952D01*
X141120762Y-91273333D01*
X141073143Y-91178095D01*
X141073143Y-91082857D01*
X141120762Y-90987619D01*
X141168381Y-90940000D01*
X141263619Y-90892381D01*
X141501715Y-90892381D01*
X141644572Y-90940000D01*
X141930286Y-90892381D02*
X142501715Y-90892381D01*
X142216000Y-91892381D02*
X142216000Y-90892381D01*
X86812381Y-110894667D02*
X85812381Y-110894667D01*
X85812381Y-110513714D01*
X85860000Y-110418476D01*
X85907619Y-110370857D01*
X86002857Y-110323238D01*
X86145714Y-110323238D01*
X86240952Y-110370857D01*
X86288571Y-110418476D01*
X86336190Y-110513714D01*
X86336190Y-110894667D01*
X86526667Y-109942286D02*
X86526667Y-109466095D01*
X86812381Y-110037524D02*
X85812381Y-109704191D01*
X86812381Y-109370857D01*
X85812381Y-109132762D02*
X85812381Y-108513714D01*
X86193333Y-108847048D01*
X86193333Y-108704190D01*
X86240952Y-108608952D01*
X86288571Y-108561333D01*
X86383810Y-108513714D01*
X86621905Y-108513714D01*
X86717143Y-108561333D01*
X86764762Y-108608952D01*
X86812381Y-108704190D01*
X86812381Y-108989905D01*
X86764762Y-109085143D01*
X86717143Y-109132762D01*
X124087143Y-94432381D02*
X124087143Y-93432381D01*
X124468096Y-93432381D01*
X124563334Y-93480000D01*
X124610953Y-93527619D01*
X124658572Y-93622857D01*
X124658572Y-93765714D01*
X124610953Y-93860952D01*
X124563334Y-93908571D01*
X124468096Y-93956190D01*
X124087143Y-93956190D01*
X125039524Y-94146667D02*
X125515715Y-94146667D01*
X124944286Y-94432381D02*
X125277619Y-93432381D01*
X125610953Y-94432381D01*
X126468096Y-94432381D02*
X125896667Y-94432381D01*
X126182381Y-94432381D02*
X126182381Y-93432381D01*
X126087143Y-93575238D01*
X125991905Y-93670476D01*
X125896667Y-93718095D01*
X127420477Y-94432381D02*
X126849048Y-94432381D01*
X127134762Y-94432381D02*
X127134762Y-93432381D01*
X127039524Y-93575238D01*
X126944286Y-93670476D01*
X126849048Y-93718095D01*
X124087143Y-91892381D02*
X124087143Y-90892381D01*
X124468096Y-90892381D01*
X124563334Y-90940000D01*
X124610953Y-90987619D01*
X124658572Y-91082857D01*
X124658572Y-91225714D01*
X124610953Y-91320952D01*
X124563334Y-91368571D01*
X124468096Y-91416190D01*
X124087143Y-91416190D01*
X125039524Y-91606667D02*
X125515715Y-91606667D01*
X124944286Y-91892381D02*
X125277619Y-90892381D01*
X125610953Y-91892381D01*
X126468096Y-91892381D02*
X125896667Y-91892381D01*
X126182381Y-91892381D02*
X126182381Y-90892381D01*
X126087143Y-91035238D01*
X125991905Y-91130476D01*
X125896667Y-91178095D01*
X126849048Y-90987619D02*
X126896667Y-90940000D01*
X126991905Y-90892381D01*
X127230001Y-90892381D01*
X127325239Y-90940000D01*
X127372858Y-90987619D01*
X127420477Y-91082857D01*
X127420477Y-91178095D01*
X127372858Y-91320952D01*
X126801429Y-91892381D01*
X127420477Y-91892381D01*
M02*
