M48
METRIC,TZ
T1C0.400
T2C0.900
T3C1.000
%
G90
G05
T1
X68702Y-93362
X74065Y-106458
X77914Y-100765
X78860Y-101640
X80762Y-99012
X80883Y-98209
X83919Y-83611
X84703Y-89877
X84854Y-88727
X88392Y-73406
X88392Y-75946
X91832Y-88674
X92202Y-79502
X92221Y-46091
X93472Y-67564
X97536Y-67564
X98989Y-65995
X101129Y-78580
X101686Y-77855
X101732Y-76490
X102686Y-70384
X104883Y-71300
X104890Y-84152
X105538Y-72574
X107011Y-76274
X107528Y-73224
X110744Y-88138
X112494Y-79819
X113353Y-80066
X114046Y-73914
X117202Y-72725
X118015Y-72652
X118550Y-73764
X120014Y-73446
X123817Y-71346
X123887Y-72224
X124369Y-72885
X124795Y-70848
T2
X86360Y-91440
X88900Y-91440
T3
X57150Y-71120
X57150Y-73660
X57150Y-76200
X57150Y-78740
X57150Y-81280
X57150Y-83820
X57150Y-86360
X57150Y-88900
X57150Y-91440
X57150Y-93980
X59690Y-71120
X59690Y-73660
X59690Y-76200
X59690Y-78740
X59690Y-81280
X59690Y-83820
X59690Y-86360
X59690Y-88900
X59690Y-91440
X59690Y-93980
X63500Y-127000
X66040Y-96520
X68580Y-96520
X73660Y-111760
X73660Y-114300
X73660Y-127000
X76200Y-68580
X76200Y-71120
X76200Y-81280
X76200Y-83820
X76200Y-86360
X76200Y-88900
X76200Y-91440
X83820Y-41910
X83820Y-44450
X86360Y-41910
X86360Y-44450
X86360Y-106680
X88900Y-41910
X88900Y-44450
X88900Y-106680
X88900Y-128270
X91440Y-41910
X91440Y-44450
X91440Y-58420
X91440Y-106680
X91440Y-128270
X93980Y-41910
X93980Y-44450
X93980Y-58420
X93980Y-106680
X93980Y-128270
X96520Y-41910
X96520Y-44450
X96520Y-58420
X96520Y-106680
X96520Y-128270
X99060Y-41910
X99060Y-44450
X99060Y-58420
X99060Y-106680
X99060Y-128270
X101600Y-58420
X101600Y-106680
X101600Y-128270
X104140Y-106680
X104140Y-128270
X106680Y-106680
X106680Y-128270
X109220Y-106680
X109220Y-128270
X118110Y-123190
X118110Y-125730
X121920Y-50800
X121920Y-55880
X121920Y-58420
X121920Y-60960
X121920Y-63500
X121920Y-91440
X121920Y-93980
X121920Y-96520
X121920Y-99060
X121920Y-101600
X121920Y-104140
X121920Y-106680
X124460Y-50800
X129540Y-71120
X132080Y-71120
X134620Y-45720
X134620Y-71120
X137160Y-71120
X137160Y-91440
X137160Y-93980
X137160Y-96520
X137160Y-99060
X137160Y-101600
X137160Y-104140
X137160Y-121920
X139700Y-71120
X144780Y-48260
X144780Y-71120
T0
M30
